{"glyphs":{"0":{"ha":950,"x_min":69,"x_max":879,"o":"m 474 -14 q 182 88 282 -12 q 72 351 82 188 q 69 486 69 426 q 72 625 69 547 q 124 810 78 729 q 259 939 171 892 q 474 986 347 986 q 689 939 600 986 q 824 810 778 892 q 876 625 871 729 q 879 486 879 586 q 876 351 879 389 q 767 88 867 188 q 474 -14 667 -12 m 474 196 q 571 238 539 196 q 606 358 603 281 q 608 489 608 399 q 606 617 608 579 q 571 735 603 692 q 474 779 539 779 q 342 617 349 779 q 340 489 340 579 q 342 358 340 399 q 474 196 349 196 z "},"1":{"ha":700,"x_min":22,"x_max":611,"o":"m 385 0 q 360 10 371 0 q 350 35 350 21 l 350 685 l 164 542 q 143 535 153 535 q 114 551 126 535 l 28 663 q 22 683 22 672 q 38 714 22 703 l 360 963 q 392 972 374 972 l 575 972 q 601 963 590 972 q 611 938 611 953 l 611 35 q 601 10 611 19 q 575 0 590 0 l 385 0 z "},"2":{"ha":911,"x_min":57,"x_max":850,"o":"m 92 0 q 67 10 78 0 q 57 35 57 21 l 57 139 q 92 208 57 181 l 221 335 q 420 490 353 435 q 523 591 488 546 q 558 676 558 636 q 456 779 558 779 q 372 747 401 779 q 333 665 343 714 q 286 633 325 633 l 103 633 q 81 642 90 633 q 72 663 72 651 q 123 828 75 754 q 257 947 171 903 q 456 990 343 990 q 657 953 572 990 q 785 847 742 915 q 829 689 829 779 q 767 508 829 589 q 579 333 706 428 l 464 218 l 815 218 q 840 208 831 218 q 850 183 850 199 l 850 35 q 840 10 850 21 q 815 0 831 0 l 92 0 z "},"3":{"ha":924,"x_min":43,"x_max":868,"o":"m 454 -14 q 226 28 318 -14 q 90 133 133 71 q 43 258 46 196 q 52 279 43 271 q 74 288 61 288 l 265 288 q 292 281 282 288 q 310 261 301 275 q 456 193 336 193 q 561 225 524 193 q 599 311 599 257 q 460 415 599 415 l 304 415 q 278 426 289 415 q 268 451 268 436 l 268 533 q 292 581 268 565 l 515 764 l 132 764 q 108 774 118 764 q 97 799 97 785 l 97 936 q 107 962 97 951 q 132 972 117 972 l 779 972 q 804 962 794 972 q 814 936 814 951 l 814 813 q 792 767 814 783 l 586 579 l 596 576 q 794 490 721 558 q 868 294 868 422 q 815 131 868 201 q 667 24 761 61 q 454 -14 574 -14 z "},"4":{"ha":956,"x_min":39,"x_max":914,"o":"m 539 0 q 515 10 525 0 q 504 35 504 21 l 504 188 l 74 188 q 49 198 60 188 q 39 222 39 208 l 39 363 q 54 404 39 383 l 457 949 q 508 972 476 972 l 719 972 q 745 963 735 972 q 756 938 756 953 l 756 403 l 878 403 q 904 392 894 403 q 914 368 914 382 l 914 222 q 904 198 914 208 q 879 188 894 188 l 756 188 l 756 35 q 745 10 756 19 q 719 0 735 0 l 539 0 m 286 393 l 510 393 l 510 706 l 286 393 z "},"5":{"ha":904,"x_min":44,"x_max":856,"o":"m 449 -15 q 231 25 322 -15 q 94 132 140 65 q 44 278 47 199 q 53 299 44 290 q 74 307 61 307 l 269 307 q 315 281 303 307 q 367 214 335 235 q 449 193 400 193 q 548 229 508 193 q 588 331 588 265 q 549 425 588 388 q 449 463 510 463 q 393 453 414 463 q 353 429 372 444 q 317 413 332 413 l 124 413 q 102 422 111 413 q 93 443 93 431 l 144 931 q 159 961 146 950 q 190 972 172 972 l 756 972 q 781 963 771 972 q 790 938 790 953 l 790 799 q 781 774 790 785 q 756 764 771 764 l 351 764 l 335 593 q 410 628 368 617 q 518 640 451 640 q 685 601 607 640 q 809 489 763 561 q 856 324 856 417 q 807 149 856 226 q 666 28 758 72 q 449 -15 574 -15 z "},"6":{"ha":910,"x_min":44,"x_max":872,"o":"m 463 -14 q 244 30 339 -14 q 97 153 150 74 q 44 335 44 232 q 163 619 44 454 l 406 944 q 456 972 425 972 l 650 972 q 672 963 663 972 q 681 942 681 954 q 674 924 681 935 l 488 671 q 526 675 504 675 q 691 628 611 671 q 822 510 771 585 q 872 340 872 436 q 821 162 872 243 q 676 33 769 81 q 463 -14 583 -14 m 460 194 q 564 233 521 194 q 607 336 607 271 q 565 440 607 403 q 460 478 522 478 q 355 440 397 478 q 313 336 313 403 q 355 232 313 269 q 460 194 397 194 z "},"7":{"ha":804,"x_min":39,"x_max":768,"o":"m 194 0 q 174 9 182 0 q 165 31 165 18 q 168 43 165 38 l 488 754 l 75 754 q 49 765 60 754 q 39 790 39 775 l 39 936 q 49 962 39 951 q 75 972 60 972 l 732 972 q 758 962 747 972 q 768 936 768 951 l 768 807 q 761 764 768 782 q 753 743 754 746 l 433 33 q 383 0 418 0 l 194 0 z "},"8":{"ha":946,"x_min":61,"x_max":885,"o":"m 472 -14 q 244 27 338 -14 q 106 138 151 68 q 61 293 61 207 q 98 424 61 365 q 194 515 135 483 q 96 707 96 579 q 191 908 96 831 q 472 986 286 986 q 751 909 657 986 q 844 708 844 832 q 750 515 844 582 q 848 426 811 486 q 885 292 885 367 q 839 137 885 206 q 700 27 793 68 q 472 -14 607 -14 m 472 588 q 568 619 531 589 q 606 694 606 649 q 568 772 606 742 q 472 801 531 801 q 376 772 413 801 q 339 694 339 742 q 376 617 339 647 q 472 588 413 588 m 472 169 q 580 203 538 169 q 622 292 622 236 q 580 381 622 347 q 472 414 538 414 q 364 381 407 414 q 321 292 321 347 q 364 203 321 236 q 472 169 407 169 z "},"9":{"ha":897,"x_min":39,"x_max":853,"o":"m 239 0 q 218 9 226 0 q 210 31 210 18 q 215 49 210 40 l 410 314 q 372 311 392 310 q 211 358 288 317 q 87 472 135 399 q 39 638 39 544 q 85 809 39 729 q 223 938 132 889 q 442 986 314 986 q 664 942 571 986 q 805 820 757 897 q 853 647 853 743 q 822 508 853 571 q 728 360 790 444 l 703 325 l 485 28 q 435 0 465 0 l 239 0 m 444 500 q 545 538 506 500 q 585 639 585 575 q 544 740 585 703 q 444 778 504 778 q 344 740 383 778 q 304 639 304 703 q 343 538 304 575 q 444 500 382 500 z "},"\u0000":{"ha":0,"x_min":0,"x_max":0,"o":""},"\r":{"ha":292,"x_min":0,"x_max":0,"o":""}," ":{"ha":292,"x_min":0,"x_max":0,"o":""},"A":{"ha":1000,"x_min":11,"x_max":989,"o":"m 40 0 q 20 9 29 0 q 11 29 11 18 q 13 42 11 38 l 336 932 q 392 972 350 972 l 608 972 q 664 932 650 972 l 988 42 q 989 29 989 38 q 980 9 989 18 q 960 0 971 0 l 779 0 q 732 31 746 0 l 682 165 l 318 165 l 268 31 q 221 0 254 0 l 40 0 m 376 374 l 624 374 l 500 728 l 376 374 z "},"Á":{"ha":1000,"x_min":11,"x_max":989,"o":"m 40 0 q 20 9 29 0 q 11 29 11 18 q 13 42 11 38 l 336 932 q 392 972 350 972 l 608 972 q 664 932 650 972 l 988 42 q 989 29 989 38 q 980 9 989 18 q 960 0 971 0 l 779 0 q 732 31 746 0 l 682 165 l 318 165 l 268 31 q 221 0 254 0 l 40 0 m 376 374 l 624 374 l 500 728 l 376 374 m 408 1042 q 386 1064 386 1042 q 393 1082 386 1075 l 517 1233 q 541 1255 531 1250 q 568 1260 551 1260 l 771 1260 q 790 1252 783 1260 q 797 1232 797 1244 q 790 1215 797 1222 l 604 1063 q 579 1047 590 1051 q 551 1042 568 1042 l 408 1042 z "},"Ă":{"ha":1000,"x_min":11,"x_max":989,"o":"m 40 0 q 20 9 29 0 q 11 29 11 18 q 13 42 11 38 l 336 932 q 392 972 350 972 l 608 972 q 664 932 650 972 l 988 42 q 989 29 989 38 q 980 9 989 18 q 960 0 971 0 l 779 0 q 732 31 746 0 l 682 165 l 318 165 l 268 31 q 221 0 254 0 l 40 0 m 376 374 l 624 374 l 500 728 l 376 374 m 500 1032 q 338 1088 392 1032 q 283 1231 283 1143 q 290 1249 283 1242 q 310 1257 297 1257 l 408 1257 q 428 1249 421 1257 q 435 1231 435 1242 q 500 1149 435 1149 q 565 1231 565 1149 q 572 1249 565 1242 q 592 1257 579 1257 l 690 1257 q 710 1249 703 1257 q 717 1231 717 1242 q 663 1088 717 1143 q 500 1032 608 1032 z "},"Â":{"ha":1000,"x_min":11,"x_max":989,"o":"m 40 0 q 20 9 29 0 q 11 29 11 18 q 13 42 11 38 l 336 932 q 392 972 350 972 l 608 972 q 664 932 650 972 l 988 42 q 989 29 989 38 q 980 9 989 18 q 960 0 971 0 l 779 0 q 732 31 746 0 l 682 165 l 318 165 l 268 31 q 221 0 254 0 l 40 0 m 376 374 l 624 374 l 500 728 l 376 374 m 256 1042 q 235 1061 235 1042 q 244 1083 235 1074 l 389 1235 q 413 1254 403 1249 q 438 1260 424 1260 l 563 1260 q 587 1254 576 1260 q 611 1235 597 1249 l 756 1083 q 765 1061 765 1074 q 744 1042 765 1042 l 671 1042 q 622 1051 640 1042 l 500 1118 l 378 1051 q 329 1042 360 1042 l 256 1042 z "},"Ä":{"ha":1000,"x_min":11,"x_max":989,"o":"m 40 0 q 20 9 29 0 q 11 29 11 18 q 13 42 11 38 l 336 932 q 392 972 350 972 l 608 972 q 664 932 650 972 l 988 42 q 989 29 989 38 q 980 9 989 18 q 960 0 971 0 l 779 0 q 732 31 746 0 l 682 165 l 318 165 l 268 31 q 221 0 254 0 l 40 0 m 376 374 l 624 374 l 500 728 l 376 374 m 265 1042 q 243 1051 251 1042 q 235 1074 235 1060 l 235 1206 q 243 1228 235 1219 q 265 1238 251 1238 l 399 1238 q 422 1228 413 1238 q 431 1206 431 1219 l 431 1074 q 422 1051 431 1060 q 399 1042 413 1042 l 265 1042 m 600 1042 q 577 1051 586 1042 q 568 1074 568 1060 l 568 1206 q 577 1228 568 1219 q 600 1238 586 1238 l 732 1238 q 755 1228 746 1238 q 764 1206 764 1219 l 764 1074 q 755 1051 764 1060 q 732 1042 746 1042 l 600 1042 z "},"À":{"ha":1000,"x_min":11,"x_max":989,"o":"m 40 0 q 20 9 29 0 q 11 29 11 18 q 13 42 11 38 l 336 932 q 392 972 350 972 l 608 972 q 664 932 650 972 l 988 42 q 989 29 989 38 q 980 9 989 18 q 960 0 971 0 l 779 0 q 732 31 746 0 l 682 165 l 318 165 l 268 31 q 221 0 254 0 l 40 0 m 376 374 l 624 374 l 500 728 l 376 374 m 451 1042 q 422 1047 433 1042 q 397 1063 411 1051 l 211 1215 q 204 1232 204 1222 q 211 1252 204 1244 q 231 1260 218 1260 l 433 1260 q 461 1255 451 1260 q 485 1233 471 1250 l 610 1082 q 617 1064 617 1075 q 594 1042 617 1042 l 451 1042 z "},"Ā":{"ha":1000,"x_min":11,"x_max":989,"o":"m 40 0 q 20 9 29 0 q 11 29 11 18 q 13 42 11 38 l 336 932 q 392 972 350 972 l 608 972 q 664 932 650 972 l 988 42 q 989 29 989 38 q 980 9 989 18 q 960 0 971 0 l 779 0 q 732 31 746 0 l 682 165 l 318 165 l 268 31 q 221 0 254 0 l 40 0 m 376 374 l 624 374 l 500 728 l 376 374 m 278 1042 q 256 1051 264 1042 q 247 1074 247 1060 l 247 1179 q 256 1202 247 1193 q 278 1211 264 1211 l 719 1211 q 742 1202 733 1211 q 751 1179 751 1193 l 751 1074 q 742 1051 751 1060 q 719 1042 733 1042 l 278 1042 z "},"Ą":{"ha":1000,"x_min":11,"x_max":989,"o":"m 917 -306 q 753 -244 810 -306 q 697 -83 697 -183 q 712 -17 697 -46 q 751 25 726 11 q 724 53 729 31 l 682 165 l 318 165 l 268 31 q 221 0 254 0 l 40 0 q 20 9 29 0 q 11 29 11 18 q 13 42 11 38 l 336 932 q 392 972 350 972 l 608 972 q 664 932 650 972 l 988 42 q 989 29 989 38 q 980 9 989 18 q 960 0 971 0 l 917 0 q 861 -26 881 -1 q 842 -83 842 -50 q 863 -142 842 -118 q 922 -167 883 -167 l 939 -167 q 964 -177 954 -167 q 974 -201 974 -187 l 974 -271 q 964 -296 974 -286 q 939 -306 954 -306 l 917 -306 m 376 374 l 624 374 l 500 728 l 376 374 z "},"Å":{"ha":1000,"x_min":11,"x_max":989,"o":"m 40 0 q 20 9 29 0 q 11 29 11 18 q 13 42 11 38 l 336 932 q 392 972 350 972 l 608 972 q 664 932 650 972 l 988 42 q 989 29 989 38 q 980 9 989 18 q 960 0 971 0 l 779 0 q 732 31 746 0 l 682 165 l 318 165 l 268 31 q 221 0 254 0 l 40 0 m 376 374 l 624 374 l 500 728 l 376 374 m 500 1028 q 408 1063 446 1028 q 371 1150 371 1097 q 408 1238 371 1203 q 500 1274 446 1274 q 592 1238 554 1274 q 629 1150 629 1203 q 592 1063 629 1097 q 500 1028 554 1028 m 500 1108 q 530 1120 518 1108 q 542 1150 542 1132 q 530 1180 542 1168 q 500 1192 518 1192 q 470 1180 482 1192 q 458 1150 458 1168 q 470 1120 458 1132 q 500 1108 482 1108 z "},"Ã":{"ha":1000,"x_min":11,"x_max":989,"o":"m 40 0 q 20 9 29 0 q 11 29 11 18 q 13 42 11 38 l 336 932 q 392 972 350 972 l 608 972 q 664 932 650 972 l 988 42 q 989 29 989 38 q 980 9 989 18 q 960 0 971 0 l 779 0 q 732 31 746 0 l 682 165 l 318 165 l 268 31 q 221 0 254 0 l 40 0 m 376 374 l 624 374 l 500 728 l 376 374 m 585 1035 q 538 1042 557 1035 q 490 1063 518 1049 q 459 1078 472 1074 q 431 1083 446 1083 q 409 1078 417 1083 q 393 1061 401 1072 q 381 1047 386 1051 q 365 1042 375 1042 l 279 1042 q 262 1049 269 1042 q 254 1065 254 1056 q 270 1144 254 1101 q 322 1217 286 1186 q 414 1247 358 1247 q 464 1240 443 1247 q 510 1218 485 1232 q 539 1205 524 1211 q 568 1199 554 1199 q 590 1204 582 1199 q 606 1221 597 1210 q 618 1235 613 1231 q 633 1240 624 1240 l 721 1240 q 739 1233 732 1240 q 746 1215 746 1226 q 729 1138 746 1181 q 676 1065 713 1096 q 585 1035 640 1035 z "},"Æ":{"ha":1357,"x_min":6,"x_max":1297,"o":"m 36 0 q 15 9 24 0 q 6 29 6 18 q 8 43 6 32 q 152 422 76 238 q 385 933 228 606 q 404 961 390 950 q 439 972 418 972 l 1250 972 q 1276 962 1265 972 q 1286 936 1286 951 l 1286 799 q 1276 774 1286 783 q 1250 764 1265 764 l 839 764 l 839 588 l 1219 588 q 1245 577 1235 588 q 1256 551 1256 567 l 1256 425 q 1245 399 1256 410 q 1219 389 1235 389 l 839 389 l 839 208 l 1261 208 q 1287 198 1276 208 q 1297 172 1297 188 l 1297 35 q 1287 10 1297 19 q 1261 0 1276 0 l 622 0 q 598 10 608 0 q 588 35 588 21 l 588 165 l 328 165 q 264 31 278 69 q 218 0 253 0 l 36 0 m 390 374 l 588 374 l 588 761 l 557 761 l 390 374 z "},"Ǽ":{"ha":1357,"x_min":6,"x_max":1297,"o":"m 36 0 q 15 9 24 0 q 6 29 6 18 q 8 43 6 32 q 152 422 76 238 q 385 933 228 606 q 404 961 390 950 q 439 972 418 972 l 1250 972 q 1276 962 1265 972 q 1286 936 1286 951 l 1286 799 q 1276 774 1286 783 q 1250 764 1265 764 l 839 764 l 839 588 l 1219 588 q 1245 577 1235 588 q 1256 551 1256 567 l 1256 425 q 1245 399 1256 410 q 1219 389 1235 389 l 839 389 l 839 208 l 1261 208 q 1287 198 1276 208 q 1297 172 1297 188 l 1297 35 q 1287 10 1297 19 q 1261 0 1276 0 l 622 0 q 598 10 608 0 q 588 35 588 21 l 588 165 l 328 165 q 264 31 278 69 q 218 0 253 0 l 36 0 m 390 374 l 588 374 l 588 761 l 557 761 l 390 374 m 588 1042 q 565 1064 565 1042 q 572 1082 565 1075 l 696 1233 q 720 1255 710 1250 q 747 1260 731 1260 l 950 1260 q 969 1252 963 1260 q 976 1232 976 1244 q 969 1215 976 1222 l 783 1063 q 758 1047 769 1051 q 731 1042 747 1042 l 588 1042 z "},"B":{"ha":982,"x_min":94,"x_max":928,"o":"m 129 0 q 105 10 115 0 q 94 35 94 21 l 94 936 q 104 962 94 951 q 129 972 114 972 l 558 972 q 821 900 735 972 q 907 694 907 828 q 872 579 907 628 q 793 508 836 531 q 889 426 850 483 q 928 296 928 368 q 835 78 928 156 q 571 0 743 0 l 129 0 m 529 588 q 608 615 581 588 q 636 688 636 643 q 609 758 636 731 q 529 785 582 785 l 356 785 l 356 588 l 529 588 m 542 188 q 626 219 596 188 q 656 296 656 250 q 625 374 656 343 q 542 406 594 406 l 356 406 l 356 188 l 542 188 z "},"C":{"ha":981,"x_min":64,"x_max":933,"o":"m 497 -14 q 185 82 299 -14 q 65 363 72 178 q 64 485 64 400 q 65 610 64 571 q 187 888 72 790 q 497 986 301 986 q 719 946 621 986 q 874 829 817 906 q 933 649 931 753 q 924 628 933 636 q 903 619 915 619 l 706 619 q 677 627 686 619 q 661 656 668 635 q 602 751 642 724 q 497 778 563 778 q 335 603 340 778 q 333 488 333 565 q 335 369 333 410 q 497 194 340 194 q 602 222 561 194 q 661 317 643 250 q 676 345 667 338 q 706 353 686 353 l 903 353 q 924 344 915 353 q 933 324 933 336 q 874 143 931 219 q 719 26 817 67 q 497 -14 621 -14 z "},"Ć":{"ha":981,"x_min":64,"x_max":933,"o":"m 497 -14 q 185 82 299 -14 q 65 363 72 178 q 64 485 64 400 q 65 610 64 571 q 187 888 72 790 q 497 986 301 986 q 719 946 621 986 q 874 829 817 906 q 933 649 931 753 q 924 628 933 636 q 903 619 915 619 l 706 619 q 677 627 686 619 q 661 656 668 635 q 602 751 642 724 q 497 778 563 778 q 335 603 340 778 q 333 488 333 565 q 335 369 333 410 q 497 194 340 194 q 602 222 561 194 q 661 317 643 250 q 676 345 667 338 q 706 353 686 353 l 903 353 q 924 344 915 353 q 933 324 933 336 q 874 143 931 219 q 719 26 817 67 q 497 -14 621 -14 m 399 1042 q 376 1064 376 1042 q 383 1082 376 1075 l 507 1233 q 531 1255 521 1250 q 558 1260 542 1260 l 761 1260 q 781 1252 774 1260 q 788 1232 788 1244 q 781 1215 788 1222 l 594 1063 q 569 1047 581 1051 q 542 1042 558 1042 l 399 1042 z "},"Č":{"ha":981,"x_min":64,"x_max":933,"o":"m 497 -14 q 185 82 299 -14 q 65 363 72 178 q 64 485 64 400 q 65 610 64 571 q 187 888 72 790 q 497 986 301 986 q 719 946 621 986 q 874 829 817 906 q 933 649 931 753 q 924 628 933 636 q 903 619 915 619 l 706 619 q 677 627 686 619 q 661 656 668 635 q 602 751 642 724 q 497 778 563 778 q 335 603 340 778 q 333 488 333 565 q 335 369 333 410 q 497 194 340 194 q 602 222 561 194 q 661 317 643 250 q 676 345 667 338 q 706 353 686 353 l 903 353 q 924 344 915 353 q 933 324 933 336 q 874 143 931 219 q 719 26 817 67 q 497 -14 621 -14 m 428 1042 q 403 1047 414 1042 q 379 1065 392 1051 l 235 1218 q 225 1239 225 1228 q 246 1260 225 1260 l 319 1260 q 368 1250 350 1260 l 490 1183 l 613 1250 q 661 1260 631 1260 l 735 1260 q 756 1239 756 1260 q 746 1218 756 1228 l 601 1065 q 578 1047 589 1051 q 553 1042 567 1042 l 428 1042 z "},"Ç":{"ha":981,"x_min":64,"x_max":933,"o":"m 490 -306 q 410 -287 446 -306 q 375 -249 375 -268 q 382 -235 375 -240 l 407 -212 q 422 -206 414 -206 q 447 -215 428 -206 q 490 -224 467 -224 q 524 -212 511 -224 q 536 -182 536 -200 q 524 -154 536 -165 q 490 -143 511 -143 q 460 -148 479 -143 q 433 -153 442 -153 q 413 -144 421 -153 l 386 -117 q 378 -99 378 -108 q 386 -72 378 -89 l 414 -8 q 161 105 251 11 q 65 363 71 199 q 64 485 64 400 q 65 610 64 571 q 187 888 72 790 q 497 986 301 986 q 719 946 621 986 q 874 829 817 906 q 933 649 931 753 q 924 628 933 636 q 903 619 915 619 l 706 619 q 677 627 686 619 q 661 656 668 635 q 602 751 642 724 q 497 778 563 778 q 335 603 340 778 q 333 488 333 565 q 335 369 333 410 q 497 194 340 194 q 602 222 561 194 q 661 317 643 250 q 676 345 667 338 q 706 353 686 353 l 903 353 q 924 344 915 353 q 933 324 933 336 q 874 143 931 219 q 719 26 817 67 q 497 -14 621 -14 l 471 -68 q 493 -62 481 -64 q 515 -60 506 -60 q 596 -94 565 -60 q 626 -182 626 -128 q 590 -271 626 -236 q 490 -306 553 -306 z "},"Ĉ":{"ha":981,"x_min":64,"x_max":933,"o":"m 497 -14 q 185 82 299 -14 q 65 363 72 178 q 64 485 64 400 q 65 610 64 571 q 187 888 72 790 q 497 986 301 986 q 719 946 621 986 q 874 829 817 906 q 933 649 931 753 q 924 628 933 636 q 903 619 915 619 l 706 619 q 677 627 686 619 q 661 656 668 635 q 602 751 642 724 q 497 778 563 778 q 335 603 340 778 q 333 488 333 565 q 335 369 333 410 q 497 194 340 194 q 602 222 561 194 q 661 317 643 250 q 676 345 667 338 q 706 353 686 353 l 903 353 q 924 344 915 353 q 933 324 933 336 q 874 143 931 219 q 719 26 817 67 q 497 -14 621 -14 m 246 1042 q 225 1061 225 1042 q 235 1083 225 1074 l 379 1235 q 403 1254 393 1249 q 428 1260 414 1260 l 553 1260 q 577 1254 567 1260 q 601 1235 588 1249 l 746 1083 q 756 1061 756 1074 q 735 1042 756 1042 l 661 1042 q 613 1051 631 1042 l 490 1118 l 368 1051 q 319 1042 350 1042 l 246 1042 z "},"Ċ":{"ha":981,"x_min":64,"x_max":933,"o":"m 497 -14 q 185 82 299 -14 q 65 363 72 178 q 64 485 64 400 q 65 610 64 571 q 187 888 72 790 q 497 986 301 986 q 719 946 621 986 q 874 829 817 906 q 933 649 931 753 q 924 628 933 636 q 903 619 915 619 l 706 619 q 677 627 686 619 q 661 656 668 635 q 602 751 642 724 q 497 778 563 778 q 335 603 340 778 q 333 488 333 565 q 335 369 333 410 q 497 194 340 194 q 602 222 561 194 q 661 317 643 250 q 676 345 667 338 q 706 353 686 353 l 903 353 q 924 344 915 353 q 933 324 933 336 q 874 143 931 219 q 719 26 817 67 q 497 -14 621 -14 m 415 1042 q 393 1051 401 1042 q 385 1074 385 1060 l 385 1221 q 393 1244 385 1235 q 415 1253 401 1253 l 564 1253 q 587 1244 578 1253 q 596 1221 596 1235 l 596 1074 q 587 1051 596 1060 q 564 1042 578 1042 l 415 1042 z "},"D":{"ha":999,"x_min":94,"x_max":935,"o":"m 129 0 q 105 10 115 0 q 94 35 94 21 l 94 936 q 104 962 94 951 q 129 972 114 972 l 494 972 q 814 874 700 972 q 933 593 928 776 q 935 486 935 553 q 933 381 935 419 q 501 0 919 0 l 129 0 m 494 208 q 624 250 582 208 q 668 383 665 292 q 671 488 671 424 q 668 590 671 551 q 620 722 665 679 q 488 764 575 764 l 356 764 l 356 208 l 494 208 z "},"Ð":{"ha":1025,"x_min":19,"x_max":960,"o":"m 154 0 q 130 10 140 0 q 119 35 119 21 l 119 403 l 56 403 q 30 413 40 403 q 19 438 19 422 l 19 539 q 30 564 19 554 q 56 574 40 574 l 119 574 l 119 936 q 129 962 119 951 q 154 972 139 972 l 519 972 q 841 874 725 972 q 958 593 957 776 q 960 488 960 556 q 958 381 960 418 q 844 94 957 189 q 524 0 732 0 l 154 0 m 519 208 q 647 250 607 208 q 689 383 688 292 l 689 590 q 646 722 688 679 q 518 764 604 764 l 381 764 l 381 574 l 501 574 q 526 564 517 574 q 536 539 536 554 l 536 438 q 526 413 536 424 q 501 403 517 403 l 381 403 l 381 208 l 519 208 z "},"Ď":{"ha":999,"x_min":94,"x_max":935,"o":"m 129 0 q 105 10 115 0 q 94 35 94 21 l 94 936 q 104 962 94 951 q 129 972 114 972 l 494 972 q 814 874 700 972 q 933 593 928 776 q 935 486 935 553 q 933 381 935 419 q 501 0 919 0 l 129 0 m 494 208 q 624 250 582 208 q 668 383 665 292 q 671 488 671 424 q 668 590 671 551 q 620 722 665 679 q 488 764 575 764 l 356 764 l 356 208 l 494 208 m 428 1042 q 403 1047 414 1042 q 379 1065 392 1051 l 235 1218 q 225 1239 225 1228 q 246 1260 225 1260 l 319 1260 q 368 1250 350 1260 l 490 1183 l 613 1250 q 661 1260 631 1260 l 735 1260 q 756 1239 756 1260 q 746 1218 756 1228 l 601 1065 q 578 1047 589 1051 q 553 1042 567 1042 l 428 1042 z "},"Đ":{"ha":1024,"x_min":19,"x_max":960,"o":"m 154 0 q 130 10 140 0 q 119 35 119 21 l 119 404 l 56 404 q 30 414 40 404 q 19 439 19 424 l 19 540 q 30 565 19 556 q 56 575 40 575 l 119 575 l 119 936 q 129 962 119 951 q 154 972 139 972 l 519 972 q 839 874 725 972 q 958 593 953 776 q 960 486 960 553 q 958 381 960 419 q 524 0 944 0 l 154 0 m 519 208 q 649 250 607 208 q 693 383 690 292 q 696 488 696 424 q 693 590 696 551 q 647 722 690 679 q 518 764 604 764 l 381 764 l 381 575 l 501 575 q 526 565 517 575 q 536 540 536 556 l 536 439 q 526 415 536 425 q 501 404 517 404 l 381 404 l 381 208 l 519 208 z "},"E":{"ha":892,"x_min":94,"x_max":832,"o":"m 129 0 q 105 10 115 0 q 94 35 94 21 l 94 936 q 104 962 94 951 q 129 972 114 972 l 785 972 q 810 962 800 972 q 821 936 821 951 l 821 799 q 810 774 821 783 q 785 764 800 764 l 346 764 l 346 588 l 754 588 q 780 577 769 588 q 790 551 790 567 l 790 425 q 780 399 790 410 q 754 389 769 389 l 346 389 l 346 208 l 796 208 q 822 198 811 208 q 832 172 832 188 l 832 35 q 822 10 832 19 q 796 0 811 0 l 129 0 z "},"É":{"ha":892,"x_min":94,"x_max":832,"o":"m 129 0 q 105 10 115 0 q 94 35 94 21 l 94 936 q 104 962 94 951 q 129 972 114 972 l 785 972 q 810 962 800 972 q 821 936 821 951 l 821 799 q 810 774 821 783 q 785 764 800 764 l 346 764 l 346 588 l 754 588 q 780 577 769 588 q 790 551 790 567 l 790 425 q 780 399 790 410 q 754 389 769 389 l 346 389 l 346 208 l 796 208 q 822 198 811 208 q 832 172 832 188 l 832 35 q 822 10 832 19 q 796 0 811 0 l 129 0 m 354 1042 q 332 1064 332 1042 q 339 1082 332 1075 l 463 1233 q 487 1255 476 1250 q 514 1260 497 1260 l 717 1260 q 736 1252 729 1260 q 743 1232 743 1244 q 736 1215 743 1222 l 550 1063 q 525 1047 536 1051 q 497 1042 514 1042 l 354 1042 z "},"Ĕ":{"ha":892,"x_min":94,"x_max":832,"o":"m 129 0 q 105 10 115 0 q 94 35 94 21 l 94 936 q 104 962 94 951 q 129 972 114 972 l 785 972 q 810 962 800 972 q 821 936 821 951 l 821 799 q 810 774 821 783 q 785 764 800 764 l 346 764 l 346 588 l 754 588 q 780 577 769 588 q 790 551 790 567 l 790 425 q 780 399 790 410 q 754 389 769 389 l 346 389 l 346 208 l 796 208 q 822 198 811 208 q 832 172 832 188 l 832 35 q 822 10 832 19 q 796 0 811 0 l 129 0 m 446 1032 q 283 1088 338 1032 q 229 1231 229 1143 q 236 1249 229 1242 q 256 1257 243 1257 l 354 1257 q 374 1249 367 1257 q 381 1231 381 1242 q 446 1149 381 1149 q 511 1231 511 1149 q 518 1249 511 1242 q 538 1257 525 1257 l 636 1257 q 656 1249 649 1257 q 663 1231 663 1242 q 608 1088 663 1143 q 446 1032 554 1032 z "},"Ě":{"ha":892,"x_min":94,"x_max":832,"o":"m 129 0 q 105 10 115 0 q 94 35 94 21 l 94 936 q 104 962 94 951 q 129 972 114 972 l 785 972 q 810 962 800 972 q 821 936 821 951 l 821 799 q 810 774 821 783 q 785 764 800 764 l 346 764 l 346 588 l 754 588 q 780 577 769 588 q 790 551 790 567 l 790 425 q 780 399 790 410 q 754 389 769 389 l 346 389 l 346 208 l 796 208 q 822 198 811 208 q 832 172 832 188 l 832 35 q 822 10 832 19 q 796 0 811 0 l 129 0 m 383 1042 q 358 1047 369 1042 q 335 1065 347 1051 l 190 1218 q 181 1239 181 1228 q 201 1260 181 1260 l 275 1260 q 324 1250 306 1260 l 446 1183 l 568 1250 q 617 1260 586 1260 l 690 1260 q 711 1239 711 1260 q 701 1218 711 1228 l 557 1065 q 533 1047 544 1051 q 508 1042 522 1042 l 383 1042 z "},"Ê":{"ha":892,"x_min":94,"x_max":832,"o":"m 129 0 q 105 10 115 0 q 94 35 94 21 l 94 936 q 104 962 94 951 q 129 972 114 972 l 785 972 q 810 962 800 972 q 821 936 821 951 l 821 799 q 810 774 821 783 q 785 764 800 764 l 346 764 l 346 588 l 754 588 q 780 577 769 588 q 790 551 790 567 l 790 425 q 780 399 790 410 q 754 389 769 389 l 346 389 l 346 208 l 796 208 q 822 198 811 208 q 832 172 832 188 l 832 35 q 822 10 832 19 q 796 0 811 0 l 129 0 m 201 1042 q 181 1061 181 1042 q 190 1083 181 1074 l 335 1235 q 359 1254 349 1249 q 383 1260 369 1260 l 508 1260 q 533 1254 522 1260 q 557 1235 543 1249 l 701 1083 q 711 1061 711 1074 q 690 1042 711 1042 l 617 1042 q 568 1051 586 1042 l 446 1118 l 324 1051 q 275 1042 306 1042 l 201 1042 z "},"Ë":{"ha":892,"x_min":94,"x_max":832,"o":"m 129 0 q 105 10 115 0 q 94 35 94 21 l 94 936 q 104 962 94 951 q 129 972 114 972 l 785 972 q 810 962 800 972 q 821 936 821 951 l 821 799 q 810 774 821 783 q 785 764 800 764 l 346 764 l 346 588 l 754 588 q 780 577 769 588 q 790 551 790 567 l 790 425 q 780 399 790 410 q 754 389 769 389 l 346 389 l 346 208 l 796 208 q 822 198 811 208 q 832 172 832 188 l 832 35 q 822 10 832 19 q 796 0 811 0 l 129 0 m 211 1042 q 189 1051 197 1042 q 181 1074 181 1060 l 181 1206 q 189 1228 181 1219 q 211 1238 197 1238 l 344 1238 q 367 1228 358 1238 q 376 1206 376 1219 l 376 1074 q 367 1051 376 1060 q 344 1042 358 1042 l 211 1042 m 546 1042 q 523 1051 532 1042 q 514 1074 514 1060 l 514 1206 q 523 1228 514 1219 q 546 1238 532 1238 l 678 1238 q 701 1228 692 1238 q 710 1206 710 1219 l 710 1074 q 701 1051 710 1060 q 678 1042 692 1042 l 546 1042 z "},"Ė":{"ha":892,"x_min":94,"x_max":832,"o":"m 129 0 q 105 10 115 0 q 94 35 94 21 l 94 936 q 104 962 94 951 q 129 972 114 972 l 785 972 q 810 962 800 972 q 821 936 821 951 l 821 799 q 810 774 821 783 q 785 764 800 764 l 346 764 l 346 588 l 754 588 q 780 577 769 588 q 790 551 790 567 l 790 425 q 780 399 790 410 q 754 389 769 389 l 346 389 l 346 208 l 796 208 q 822 198 811 208 q 832 172 832 188 l 832 35 q 822 10 832 19 q 796 0 811 0 l 129 0 m 371 1042 q 349 1051 357 1042 q 340 1074 340 1060 l 340 1221 q 349 1244 340 1235 q 371 1253 357 1253 l 519 1253 q 542 1244 533 1253 q 551 1221 551 1235 l 551 1074 q 542 1051 551 1060 q 519 1042 533 1042 l 371 1042 z "},"È":{"ha":892,"x_min":94,"x_max":832,"o":"m 129 0 q 105 10 115 0 q 94 35 94 21 l 94 936 q 104 962 94 951 q 129 972 114 972 l 785 972 q 810 962 800 972 q 821 936 821 951 l 821 799 q 810 774 821 783 q 785 764 800 764 l 346 764 l 346 588 l 754 588 q 780 577 769 588 q 790 551 790 567 l 790 425 q 780 399 790 410 q 754 389 769 389 l 346 389 l 346 208 l 796 208 q 822 198 811 208 q 832 172 832 188 l 832 35 q 822 10 832 19 q 796 0 811 0 l 129 0 m 397 1042 q 368 1047 379 1042 q 343 1063 357 1051 l 157 1215 q 150 1232 150 1222 q 157 1252 150 1244 q 176 1260 164 1260 l 379 1260 q 407 1255 397 1260 q 431 1233 417 1250 l 556 1082 q 563 1064 563 1075 q 540 1042 563 1042 l 397 1042 z "},"Ē":{"ha":892,"x_min":94,"x_max":832,"o":"m 129 0 q 105 10 115 0 q 94 35 94 21 l 94 936 q 104 962 94 951 q 129 972 114 972 l 785 972 q 810 962 800 972 q 821 936 821 951 l 821 799 q 810 774 821 783 q 785 764 800 764 l 346 764 l 346 588 l 754 588 q 780 577 769 588 q 790 551 790 567 l 790 425 q 780 399 790 410 q 754 389 769 389 l 346 389 l 346 208 l 796 208 q 822 198 811 208 q 832 172 832 188 l 832 35 q 822 10 832 19 q 796 0 811 0 l 129 0 m 224 1042 q 201 1051 210 1042 q 193 1074 193 1060 l 193 1179 q 201 1202 193 1193 q 224 1211 210 1211 l 665 1211 q 688 1202 679 1211 q 697 1179 697 1193 l 697 1074 q 688 1051 697 1060 q 665 1042 679 1042 l 224 1042 z "},"Ę":{"ha":892,"x_min":94,"x_max":832,"o":"m 775 -306 q 610 -244 667 -306 q 554 -83 554 -183 q 569 0 554 -39 l 129 0 q 105 10 115 0 q 94 35 94 21 l 94 936 q 104 962 94 951 q 129 972 114 972 l 785 972 q 810 962 800 972 q 821 936 821 951 l 821 799 q 810 774 821 783 q 785 764 800 764 l 346 764 l 346 588 l 754 588 q 780 577 769 588 q 790 551 790 567 l 790 425 q 780 399 790 410 q 754 389 769 389 l 346 389 l 346 208 l 796 208 q 822 198 811 208 q 832 172 832 188 l 832 35 q 822 10 832 19 q 796 0 811 0 l 778 0 q 719 -25 739 -1 q 699 -83 699 -49 q 719 -142 699 -118 q 781 -167 740 -167 l 797 -167 q 822 -177 813 -167 q 832 -201 832 -187 l 832 -271 q 822 -296 832 -286 q 797 -306 813 -306 l 775 -306 z "},"F":{"ha":863,"x_min":94,"x_max":811,"o":"m 129 0 q 105 10 115 0 q 94 35 94 21 l 94 936 q 104 962 94 951 q 129 972 114 972 l 775 972 q 801 962 790 972 q 811 936 811 951 l 811 789 q 801 764 811 774 q 775 754 790 754 l 350 754 l 350 561 l 747 561 q 773 551 763 561 q 783 525 783 540 l 783 378 q 773 353 783 363 q 747 343 763 343 l 350 343 l 350 35 q 340 10 350 21 q 315 0 331 0 l 129 0 z "},"G":{"ha":1004,"x_min":64,"x_max":944,"o":"m 501 -14 q 186 84 300 -14 q 65 364 72 182 q 64 490 64 403 q 65 618 64 578 q 187 890 71 793 q 501 986 303 986 q 734 943 635 986 q 885 833 833 900 q 940 694 938 765 q 931 673 940 682 q 910 664 922 664 l 694 664 q 673 669 681 664 q 658 683 665 674 q 605 750 642 722 q 501 778 568 778 q 335 611 340 778 q 333 492 333 572 q 335 371 333 411 q 504 194 340 194 q 632 235 585 194 q 679 357 679 275 l 679 382 l 556 382 q 530 392 540 382 q 519 418 519 403 l 519 526 q 530 552 519 542 q 556 563 540 563 l 908 563 q 934 552 924 563 q 944 526 944 542 l 944 365 q 890 162 944 247 q 735 31 835 76 q 501 -14 635 -14 z "},"Ğ":{"ha":1004,"x_min":64,"x_max":944,"o":"m 501 -14 q 186 84 300 -14 q 65 364 72 182 q 64 490 64 403 q 65 618 64 578 q 187 890 71 793 q 501 986 303 986 q 734 943 635 986 q 885 833 833 900 q 940 694 938 765 q 931 673 940 682 q 910 664 922 664 l 694 664 q 673 669 681 664 q 658 683 665 674 q 605 750 642 722 q 501 778 568 778 q 335 611 340 778 q 333 492 333 572 q 335 371 333 411 q 504 194 340 194 q 632 235 585 194 q 679 357 679 275 l 679 382 l 556 382 q 530 392 540 382 q 519 418 519 403 l 519 526 q 530 552 519 542 q 556 563 540 563 l 908 563 q 934 552 924 563 q 944 526 944 542 l 944 365 q 890 162 944 247 q 735 31 835 76 q 501 -14 635 -14 m 506 1032 q 343 1088 397 1032 q 289 1231 289 1143 q 296 1249 289 1242 q 315 1257 303 1257 l 414 1257 q 433 1249 426 1257 q 440 1231 440 1242 q 506 1149 440 1149 q 571 1231 571 1149 q 578 1249 571 1242 q 597 1257 585 1257 l 696 1257 q 715 1249 708 1257 q 722 1231 722 1242 q 668 1088 722 1143 q 506 1032 614 1032 z "},"Ĝ":{"ha":1004,"x_min":64,"x_max":944,"o":"m 501 -14 q 186 84 300 -14 q 65 364 72 182 q 64 490 64 403 q 65 618 64 578 q 187 890 71 793 q 501 986 303 986 q 734 943 635 986 q 885 833 833 900 q 940 694 938 765 q 931 673 940 682 q 910 664 922 664 l 694 664 q 673 669 681 664 q 658 683 665 674 q 605 750 642 722 q 501 778 568 778 q 335 611 340 778 q 333 492 333 572 q 335 371 333 411 q 504 194 340 194 q 632 235 585 194 q 679 357 679 275 l 679 382 l 556 382 q 530 392 540 382 q 519 418 519 403 l 519 526 q 530 552 519 542 q 556 563 540 563 l 908 563 q 934 552 924 563 q 944 526 944 542 l 944 365 q 890 162 944 247 q 735 31 835 76 q 501 -14 635 -14 m 261 1042 q 240 1061 240 1042 q 250 1083 240 1074 l 394 1235 q 419 1254 408 1249 q 443 1260 429 1260 l 568 1260 q 592 1254 582 1260 q 617 1235 603 1249 l 761 1083 q 771 1061 771 1074 q 750 1042 771 1042 l 676 1042 q 628 1051 646 1042 l 506 1118 l 383 1051 q 335 1042 365 1042 l 261 1042 z "},"Ģ":{"ha":1004,"x_min":64,"x_max":944,"o":"m 501 -14 q 186 84 300 -14 q 65 364 72 182 q 64 490 64 403 q 65 618 64 578 q 187 890 71 793 q 501 986 303 986 q 734 943 635 986 q 885 833 833 900 q 940 694 938 765 q 931 673 940 682 q 910 664 922 664 l 694 664 q 673 669 681 664 q 658 683 665 674 q 605 750 642 722 q 501 778 568 778 q 335 611 340 778 q 333 492 333 572 q 335 371 333 411 q 504 194 340 194 q 632 235 585 194 q 679 357 679 275 l 679 382 l 556 382 q 530 392 540 382 q 519 418 519 403 l 519 526 q 530 552 519 542 q 556 563 540 563 l 908 563 q 934 552 924 563 q 944 526 944 542 l 944 365 q 890 162 944 247 q 735 31 835 76 q 501 -14 635 -14 m 383 -329 q 364 -320 372 -329 q 357 -299 356 -311 l 385 -118 q 400 -84 388 -99 q 436 -69 413 -69 l 596 -69 q 615 -78 607 -69 q 624 -97 624 -86 q 621 -112 624 -106 l 551 -289 q 500 -329 536 -329 l 383 -329 z "},"Ġ":{"ha":1004,"x_min":64,"x_max":944,"o":"m 501 -14 q 186 84 300 -14 q 65 364 72 182 q 64 490 64 403 q 65 618 64 578 q 187 890 71 793 q 501 986 303 986 q 734 943 635 986 q 885 833 833 900 q 940 694 938 765 q 931 673 940 682 q 910 664 922 664 l 694 664 q 673 669 681 664 q 658 683 665 674 q 605 750 642 722 q 501 778 568 778 q 335 611 340 778 q 333 492 333 572 q 335 371 333 411 q 504 194 340 194 q 632 235 585 194 q 679 357 679 275 l 679 382 l 556 382 q 530 392 540 382 q 519 418 519 403 l 519 526 q 530 552 519 542 q 556 563 540 563 l 908 563 q 934 552 924 563 q 944 526 944 542 l 944 365 q 890 162 944 247 q 735 31 835 76 q 501 -14 635 -14 m 431 1042 q 408 1051 417 1042 q 400 1074 400 1060 l 400 1221 q 408 1244 400 1235 q 431 1253 417 1253 l 579 1253 q 602 1244 593 1253 q 611 1221 611 1235 l 611 1074 q 602 1051 611 1060 q 579 1042 593 1042 l 431 1042 z "},"H":{"ha":1039,"x_min":94,"x_max":944,"o":"m 129 0 q 104 10 114 0 q 94 35 94 19 l 94 936 q 104 962 94 951 q 129 972 114 972 l 319 972 q 345 962 335 972 q 356 936 356 951 l 356 607 l 683 607 l 683 936 q 694 962 683 951 q 719 972 704 972 l 908 972 q 934 962 924 972 q 944 936 944 951 l 944 35 q 934 10 944 19 q 908 0 924 0 l 719 0 q 694 10 704 0 q 683 35 683 19 l 683 375 l 356 375 l 356 35 q 345 10 356 19 q 319 0 335 0 l 129 0 z "},"Ħ":{"ha":1039,"x_min":67,"x_max":975,"o":"m 944 860 q 967 848 958 857 q 975 825 975 839 l 975 756 q 967 732 975 742 q 944 719 958 722 l 944 35 q 934 10 944 19 q 908 0 924 0 l 719 0 q 694 10 704 0 q 683 35 683 19 l 683 375 l 356 375 l 356 35 q 345 10 356 19 q 319 0 335 0 l 129 0 q 104 10 114 0 q 94 35 94 19 l 94 719 q 74 732 82 722 q 67 756 67 742 l 67 825 q 74 847 67 838 q 94 860 82 857 l 94 936 q 104 962 94 951 q 129 972 114 972 l 319 972 q 345 962 335 972 q 356 936 356 951 l 356 860 l 683 860 l 683 936 q 694 962 683 951 q 719 972 704 972 l 908 972 q 934 962 924 972 q 944 936 944 951 l 944 860 m 356 607 l 683 607 l 683 719 l 356 719 l 356 607 z "},"Ĥ":{"ha":1039,"x_min":94,"x_max":944,"o":"m 129 0 q 104 10 114 0 q 94 35 94 19 l 94 936 q 104 962 94 951 q 129 972 114 972 l 319 972 q 345 962 335 972 q 356 936 356 951 l 356 607 l 683 607 l 683 936 q 694 962 683 951 q 719 972 704 972 l 908 972 q 934 962 924 972 q 944 936 944 951 l 944 35 q 934 10 944 19 q 908 0 924 0 l 719 0 q 694 10 704 0 q 683 35 683 19 l 683 375 l 356 375 l 356 35 q 345 10 356 19 q 319 0 335 0 l 129 0 m 275 1042 q 254 1061 254 1042 q 264 1083 254 1074 l 408 1235 q 433 1254 422 1249 q 457 1260 443 1260 l 582 1260 q 606 1254 596 1260 q 631 1235 617 1249 l 775 1083 q 785 1061 785 1074 q 764 1042 785 1042 l 690 1042 q 642 1051 660 1042 l 519 1118 l 397 1051 q 349 1042 379 1042 l 275 1042 z "},"I":{"ha":457,"x_min":94,"x_max":363,"o":"m 129 0 q 105 10 115 0 q 94 35 94 21 l 94 938 q 105 963 94 953 q 129 972 115 972 l 328 972 q 353 963 343 972 q 363 938 363 953 l 363 35 q 353 10 363 21 q 328 0 343 0 l 129 0 z "},"Ĳ":{"ha":1019,"x_min":94,"x_max":933,"o":"m 129 0 q 105 10 115 0 q 94 35 94 21 l 94 938 q 105 963 94 953 q 129 972 115 972 l 328 972 q 353 963 343 972 q 363 938 363 953 l 363 35 q 353 10 363 21 q 328 0 343 0 l 129 0 m 508 -14 q 484 -3 494 -14 q 474 21 474 7 l 474 178 q 484 203 474 193 q 508 213 494 213 q 627 258 589 213 q 665 394 665 303 l 665 938 q 676 963 665 953 q 700 972 686 972 l 899 972 q 924 962 914 972 q 933 936 933 951 l 933 357 q 824 74 933 161 q 508 -14 715 -14 z "},"Í":{"ha":457,"x_min":94,"x_max":526,"o":"m 129 0 q 105 10 115 0 q 94 35 94 21 l 94 938 q 105 963 94 953 q 129 972 115 972 l 328 972 q 353 963 343 972 q 363 938 363 953 l 363 35 q 353 10 363 21 q 328 0 343 0 l 129 0 m 138 1042 q 115 1064 115 1042 q 122 1082 115 1075 l 246 1233 q 270 1255 260 1250 q 297 1260 281 1260 l 500 1260 q 519 1252 513 1260 q 526 1232 526 1244 q 519 1215 526 1222 l 333 1063 q 308 1047 319 1051 q 281 1042 297 1042 l 138 1042 z "},"Ĭ":{"ha":457,"x_min":13,"x_max":446,"o":"m 129 0 q 105 10 115 0 q 94 35 94 21 l 94 938 q 105 963 94 953 q 129 972 115 972 l 328 972 q 353 963 343 972 q 363 938 363 953 l 363 35 q 353 10 363 21 q 328 0 343 0 l 129 0 m 229 1032 q 67 1088 121 1032 q 13 1231 13 1143 q 19 1249 13 1242 q 39 1257 26 1257 l 138 1257 q 157 1249 150 1257 q 164 1231 164 1242 q 229 1149 164 1149 q 294 1231 294 1149 q 301 1249 294 1242 q 321 1257 308 1257 l 419 1257 q 439 1249 432 1257 q 446 1231 446 1242 q 392 1088 446 1143 q 229 1032 338 1032 z "},"Î":{"ha":457,"x_min":-36,"x_max":494,"o":"m 129 0 q 105 10 115 0 q 94 35 94 21 l 94 938 q 105 963 94 953 q 129 972 115 972 l 328 972 q 353 963 343 972 q 363 938 363 953 l 363 35 q 353 10 363 21 q 328 0 343 0 l 129 0 m -15 1042 q -36 1061 -36 1042 q -26 1083 -36 1074 l 118 1235 q 142 1254 132 1249 q 167 1260 153 1260 l 292 1260 q 316 1254 306 1260 q 340 1235 326 1249 l 485 1083 q 494 1061 494 1074 q 474 1042 494 1042 l 400 1042 q 351 1051 369 1042 l 229 1118 l 107 1051 q 58 1042 89 1042 l -15 1042 z "},"Ï":{"ha":457,"x_min":-36,"x_max":493,"o":"m 129 0 q 105 10 115 0 q 94 35 94 21 l 94 938 q 105 963 94 953 q 129 972 115 972 l 328 972 q 353 963 343 972 q 363 938 363 953 l 363 35 q 353 10 363 21 q 328 0 343 0 l 129 0 m -6 1042 q -28 1051 -19 1042 q -36 1074 -36 1060 l -36 1206 q -28 1228 -36 1219 q -6 1238 -19 1238 l 128 1238 q 151 1228 142 1238 q 160 1206 160 1219 l 160 1074 q 151 1051 160 1060 q 128 1042 142 1042 l -6 1042 m 329 1042 q 306 1051 315 1042 q 297 1074 297 1060 l 297 1206 q 306 1228 297 1219 q 329 1238 315 1238 l 461 1238 q 484 1228 475 1238 q 493 1206 493 1219 l 493 1074 q 484 1051 493 1060 q 461 1042 475 1042 l 329 1042 z "},"İ":{"ha":457,"x_min":94,"x_max":363,"o":"m 129 0 q 105 10 115 0 q 94 35 94 21 l 94 938 q 105 963 94 953 q 129 972 115 972 l 328 972 q 353 963 343 972 q 363 938 363 953 l 363 35 q 353 10 363 21 q 328 0 343 0 l 129 0 m 154 1042 q 132 1051 140 1042 q 124 1074 124 1060 l 124 1221 q 132 1244 124 1235 q 154 1253 140 1253 l 303 1253 q 326 1244 317 1253 q 335 1221 335 1235 l 335 1074 q 326 1051 335 1060 q 303 1042 317 1042 l 154 1042 z "},"Ì":{"ha":457,"x_min":-67,"x_max":363,"o":"m 129 0 q 105 10 115 0 q 94 35 94 21 l 94 938 q 105 963 94 953 q 129 972 115 972 l 328 972 q 353 963 343 972 q 363 938 363 953 l 363 35 q 353 10 363 21 q 328 0 343 0 l 129 0 m 181 1042 q 151 1047 163 1042 q 126 1063 140 1051 l -60 1215 q -67 1232 -67 1222 q -60 1252 -67 1244 q -40 1260 -53 1260 l 163 1260 q 190 1255 181 1260 q 214 1233 200 1250 l 339 1082 q 346 1064 346 1075 q 324 1042 346 1042 l 181 1042 z "},"Ī":{"ha":457,"x_min":-24,"x_max":481,"o":"m 129 0 q 105 10 115 0 q 94 35 94 21 l 94 938 q 105 963 94 953 q 129 972 115 972 l 328 972 q 353 963 343 972 q 363 938 363 953 l 363 35 q 353 10 363 21 q 328 0 343 0 l 129 0 m 7 1042 q -15 1051 -7 1042 q -24 1074 -24 1060 l -24 1179 q -15 1202 -24 1193 q 7 1211 -7 1211 l 449 1211 q 472 1202 463 1211 q 481 1179 481 1193 l 481 1074 q 472 1051 481 1060 q 449 1042 463 1042 l 7 1042 z "},"Į":{"ha":465,"x_min":93,"x_max":371,"o":"m 314 -307 q 149 -246 206 -307 q 93 -85 93 -185 q 108 -17 93 -46 q 149 25 124 11 l 128 29 q 110 40 118 31 q 103 60 103 49 l 103 938 q 113 963 103 953 q 138 972 124 972 l 336 972 q 361 963 351 972 q 371 938 371 953 l 371 35 q 361 10 371 21 q 336 0 351 0 l 319 0 q 258 -25 279 0 q 238 -85 238 -50 q 258 -144 238 -119 q 319 -168 279 -168 l 336 -168 q 361 -178 351 -168 q 371 -203 371 -189 l 371 -272 q 361 -297 371 -287 q 336 -307 351 -307 l 314 -307 z "},"Ĩ":{"ha":457,"x_min":-17,"x_max":475,"o":"m 129 0 q 105 10 115 0 q 94 35 94 21 l 94 938 q 105 963 94 953 q 129 972 115 972 l 328 972 q 353 963 343 972 q 363 938 363 953 l 363 35 q 353 10 363 21 q 328 0 343 0 l 129 0 m 314 1035 q 267 1042 286 1035 q 219 1063 247 1049 q 188 1078 201 1074 q 160 1083 175 1083 q 138 1078 146 1083 q 122 1061 131 1072 q 110 1047 115 1051 q 94 1042 104 1042 l 8 1042 q -9 1049 -1 1042 q -17 1065 -17 1056 q -1 1144 -17 1101 q 51 1217 15 1186 q 143 1247 88 1247 q 193 1240 172 1247 q 239 1218 214 1232 q 268 1205 253 1211 q 297 1199 283 1199 q 319 1204 311 1199 q 335 1221 326 1210 q 347 1235 342 1231 q 363 1240 353 1240 l 450 1240 q 468 1233 461 1240 q 475 1215 475 1226 q 458 1138 475 1181 q 406 1065 442 1096 q 314 1035 369 1035 z "},"J":{"ha":936,"x_min":31,"x_max":850,"o":"m 436 -14 q 236 23 328 -14 q 88 133 144 60 q 31 307 32 206 q 39 328 31 319 q 60 338 47 338 l 258 338 q 289 328 278 338 q 307 299 300 319 q 443 194 329 194 q 545 238 510 194 q 581 365 581 282 l 581 757 l 135 757 q 110 767 121 757 q 100 792 100 778 l 100 938 q 110 963 100 953 q 135 972 121 972 l 814 972 q 840 962 829 972 q 850 936 850 951 l 850 357 q 798 155 850 239 q 652 28 746 71 q 436 -14 558 -14 z "},"Ĵ":{"ha":936,"x_min":31,"x_max":850,"o":"m 436 -14 q 236 23 328 -14 q 88 133 144 60 q 31 307 32 206 q 39 328 31 319 q 60 338 47 338 l 258 338 q 289 328 278 338 q 307 299 300 319 q 443 194 329 194 q 545 238 510 194 q 581 365 581 282 l 581 757 l 135 757 q 110 767 121 757 q 100 792 100 778 l 100 938 q 110 963 100 953 q 135 972 121 972 l 814 972 q 840 962 829 972 q 850 936 850 951 l 850 357 q 798 155 850 239 q 652 28 746 71 q 436 -14 558 -14 m 239 1042 q 218 1061 218 1042 q 228 1083 218 1074 l 372 1235 q 397 1254 386 1249 q 421 1260 407 1260 l 546 1260 q 570 1254 560 1260 q 594 1235 581 1249 l 739 1083 q 749 1061 749 1074 q 728 1042 749 1042 l 654 1042 q 606 1051 624 1042 l 483 1118 l 361 1051 q 313 1042 343 1042 l 239 1042 z "},"K":{"ha":928,"x_min":94,"x_max":918,"o":"m 129 0 q 105 10 115 0 q 94 35 94 21 l 94 936 q 104 962 94 951 q 129 972 114 972 l 315 972 q 340 962 331 972 q 350 936 350 951 l 350 633 l 596 944 q 650 972 611 972 l 863 972 q 883 963 874 972 q 892 943 892 954 q 886 926 892 932 l 563 507 l 913 46 q 918 29 918 40 q 909 9 918 18 q 888 0 900 0 l 669 0 q 633 9 647 0 q 614 28 619 18 l 350 367 l 350 35 q 340 10 350 21 q 315 0 331 0 l 129 0 z "},"Ķ":{"ha":928,"x_min":94,"x_max":918,"o":"m 129 0 q 105 10 115 0 q 94 35 94 21 l 94 936 q 104 962 94 951 q 129 972 114 972 l 315 972 q 340 962 331 972 q 350 936 350 951 l 350 633 l 596 944 q 650 972 611 972 l 863 972 q 883 963 874 972 q 892 943 892 954 q 886 926 892 932 l 563 507 l 913 46 q 918 29 918 40 q 909 9 918 18 q 888 0 900 0 l 669 0 q 633 9 647 0 q 614 28 619 18 l 350 367 l 350 35 q 340 10 350 21 q 315 0 331 0 l 129 0 m 350 -329 q 331 -320 339 -329 q 324 -299 322 -311 l 351 -118 q 367 -84 354 -99 q 403 -69 379 -69 l 563 -69 q 582 -78 574 -69 q 590 -97 590 -86 q 588 -112 590 -106 l 518 -289 q 467 -329 503 -329 l 350 -329 z "},"L":{"ha":833,"x_min":94,"x_max":811,"o":"m 129 0 q 105 10 115 0 q 94 35 94 21 l 94 938 q 105 963 94 953 q 129 972 115 972 l 324 972 q 349 963 339 972 q 358 938 358 953 l 358 218 l 775 218 q 801 208 790 218 q 811 182 811 197 l 811 35 q 801 10 811 19 q 775 0 790 0 l 129 0 z "},"Ĺ":{"ha":833,"x_min":94,"x_max":811,"o":"m 129 0 q 105 10 115 0 q 94 35 94 21 l 94 938 q 105 963 94 953 q 129 972 115 972 l 324 972 q 349 963 339 972 q 358 938 358 953 l 358 218 l 775 218 q 801 208 790 218 q 811 182 811 197 l 811 35 q 801 10 811 19 q 775 0 790 0 l 129 0 m 126 1042 q 104 1064 104 1042 q 111 1082 104 1075 l 235 1233 q 259 1255 249 1250 q 286 1260 269 1260 l 489 1260 q 508 1252 501 1260 q 515 1232 515 1244 q 508 1215 515 1222 l 322 1063 q 297 1047 308 1051 q 269 1042 286 1042 l 126 1042 z "},"Ľ":{"ha":833,"x_min":94,"x_max":811,"o":"m 129 0 q 105 10 115 0 q 94 35 94 21 l 94 938 q 105 963 94 953 q 129 972 115 972 l 324 972 q 349 963 339 972 q 358 938 358 953 l 358 218 l 775 218 q 801 208 790 218 q 811 182 811 197 l 811 35 q 801 10 811 19 q 775 0 790 0 l 129 0 m 490 726 q 471 735 479 726 q 464 757 463 744 l 492 938 q 507 972 494 957 q 543 986 519 986 l 703 986 q 722 978 714 986 q 731 958 731 969 q 728 943 731 950 l 658 767 q 607 726 643 726 l 490 726 z "},"Ļ":{"ha":833,"x_min":94,"x_max":811,"o":"m 129 0 q 105 10 115 0 q 94 35 94 21 l 94 938 q 105 963 94 953 q 129 972 115 972 l 324 972 q 349 963 339 972 q 358 938 358 953 l 358 218 l 775 218 q 801 208 790 218 q 811 182 811 197 l 811 35 q 801 10 811 19 q 775 0 790 0 l 129 0 m 306 -329 q 286 -320 294 -329 q 279 -299 278 -311 l 307 -118 q 322 -84 310 -99 q 358 -69 335 -69 l 518 -69 q 538 -78 529 -69 q 546 -97 546 -86 q 543 -112 546 -106 l 474 -289 q 422 -329 458 -329 l 306 -329 z "},"Ŀ":{"ha":833,"x_min":94,"x_max":811,"o":"m 129 0 q 105 10 115 0 q 94 35 94 21 l 94 938 q 105 963 94 953 q 129 972 115 972 l 324 972 q 349 963 339 972 q 358 938 358 953 l 358 218 l 775 218 q 801 208 790 218 q 811 182 811 197 l 811 35 q 801 10 811 19 q 775 0 790 0 l 129 0 m 500 432 q 478 441 486 432 q 469 464 469 450 l 469 607 q 478 630 469 621 q 500 639 486 639 l 644 639 q 667 630 658 639 q 676 607 676 621 l 676 464 q 667 441 676 450 q 644 432 658 432 l 500 432 z "},"Ł":{"ha":844,"x_min":18,"x_max":822,"o":"m 140 0 q 116 10 126 0 q 106 35 106 21 l 106 343 l 63 326 q 46 322 53 322 q 26 330 33 322 q 18 350 18 338 l 18 460 q 25 486 18 478 q 49 501 32 494 l 106 524 l 106 938 q 116 963 106 953 q 140 972 126 972 l 335 972 q 360 963 350 972 q 369 938 369 953 l 369 628 l 571 707 q 588 711 581 711 q 608 703 600 711 q 615 683 615 696 l 615 574 q 608 547 615 556 q 585 532 601 539 l 369 447 l 369 218 l 786 218 q 812 208 801 218 q 822 182 822 197 l 822 35 q 812 10 822 19 q 786 0 801 0 l 140 0 z "},"M":{"ha":1154,"x_min":94,"x_max":1060,"o":"m 131 0 q 105 10 115 0 q 94 35 94 19 l 94 936 q 105 962 94 951 q 131 972 115 972 l 288 972 q 338 942 322 972 l 576 514 l 817 942 q 867 972 832 972 l 1024 972 q 1049 962 1039 972 q 1060 936 1060 951 l 1060 35 q 1049 10 1060 19 q 1024 0 1039 0 l 847 0 q 823 10 833 0 q 813 35 813 21 l 813 540 l 663 265 q 614 233 644 233 l 539 233 q 490 265 511 233 l 342 540 l 342 35 q 331 10 342 19 q 306 0 321 0 l 131 0 z "},"N":{"ha":1001,"x_min":94,"x_max":907,"o":"m 129 0 q 105 10 115 0 q 94 35 94 21 l 94 936 q 104 962 94 951 q 129 972 114 972 l 286 972 q 333 946 318 972 l 661 428 l 661 936 q 671 962 661 951 q 696 972 681 972 l 872 972 q 897 962 888 972 q 907 936 907 951 l 907 36 q 897 10 907 21 q 872 0 888 0 l 715 0 q 668 26 683 0 l 342 524 l 342 35 q 331 10 342 19 q 306 0 321 0 l 129 0 z "},"Ń":{"ha":1001,"x_min":94,"x_max":907,"o":"m 129 0 q 105 10 115 0 q 94 35 94 21 l 94 936 q 104 962 94 951 q 129 972 114 972 l 286 972 q 333 946 318 972 l 661 428 l 661 936 q 671 962 661 951 q 696 972 681 972 l 872 972 q 897 962 888 972 q 907 936 907 951 l 907 36 q 897 10 907 21 q 872 0 888 0 l 715 0 q 668 26 683 0 l 342 524 l 342 35 q 331 10 342 19 q 306 0 321 0 l 129 0 m 410 1042 q 388 1064 388 1042 q 394 1082 388 1075 l 518 1233 q 542 1255 532 1250 q 569 1260 553 1260 l 772 1260 q 792 1252 785 1260 q 799 1232 799 1244 q 792 1215 799 1222 l 606 1063 q 581 1047 592 1051 q 553 1042 569 1042 l 410 1042 z "},"Ň":{"ha":1001,"x_min":94,"x_max":907,"o":"m 129 0 q 105 10 115 0 q 94 35 94 21 l 94 936 q 104 962 94 951 q 129 972 114 972 l 286 972 q 333 946 318 972 l 661 428 l 661 936 q 671 962 661 951 q 696 972 681 972 l 872 972 q 897 962 888 972 q 907 936 907 951 l 907 36 q 897 10 907 21 q 872 0 888 0 l 715 0 q 668 26 683 0 l 342 524 l 342 35 q 331 10 342 19 q 306 0 321 0 l 129 0 m 439 1042 q 414 1047 425 1042 q 390 1065 403 1051 l 246 1218 q 236 1239 236 1228 q 257 1260 236 1260 l 331 1260 q 379 1250 361 1260 l 501 1183 l 624 1250 q 672 1260 642 1260 l 746 1260 q 767 1239 767 1260 q 757 1218 767 1228 l 613 1065 q 589 1047 600 1051 q 564 1042 578 1042 l 439 1042 z "},"Ņ":{"ha":1001,"x_min":94,"x_max":907,"o":"m 129 0 q 105 10 115 0 q 94 35 94 21 l 94 936 q 104 962 94 951 q 129 972 114 972 l 286 972 q 333 946 318 972 l 661 428 l 661 936 q 671 962 661 951 q 696 972 681 972 l 872 972 q 897 962 888 972 q 907 936 907 951 l 907 36 q 897 10 907 21 q 872 0 888 0 l 715 0 q 668 26 683 0 l 342 524 l 342 35 q 331 10 342 19 q 306 0 321 0 l 129 0 m 379 -329 q 360 -320 368 -329 q 353 -299 351 -311 l 381 -118 q 396 -84 383 -99 q 432 -69 408 -69 l 592 -69 q 611 -78 603 -69 q 619 -97 619 -86 q 617 -112 619 -106 l 547 -289 q 496 -329 532 -329 l 379 -329 z "},"Ŋ":{"ha":1001,"x_min":94,"x_max":907,"o":"m 519 -312 q 494 -303 504 -312 q 483 -278 483 -293 l 483 -132 q 494 -107 483 -117 q 519 -97 504 -97 l 558 -97 q 636 -69 611 -97 q 661 7 661 -42 l 661 39 l 342 524 l 342 35 q 331 10 342 19 q 306 0 321 0 l 129 0 q 105 10 115 0 q 94 35 94 21 l 94 936 q 104 962 94 951 q 129 972 114 972 l 286 972 q 333 946 318 972 l 661 428 l 661 936 q 671 962 661 951 q 696 972 681 972 l 872 972 q 897 962 888 972 q 907 936 907 951 l 907 -3 q 808 -232 907 -151 q 536 -312 708 -312 l 519 -312 z "},"Ñ":{"ha":1001,"x_min":94,"x_max":907,"o":"m 129 0 q 105 10 115 0 q 94 35 94 21 l 94 936 q 104 962 94 951 q 129 972 114 972 l 286 972 q 333 946 318 972 l 661 428 l 661 936 q 671 962 661 951 q 696 972 681 972 l 872 972 q 897 962 888 972 q 907 936 907 951 l 907 36 q 897 10 907 21 q 872 0 888 0 l 715 0 q 668 26 683 0 l 342 524 l 342 35 q 331 10 342 19 q 306 0 321 0 l 129 0 m 586 1035 q 539 1042 558 1035 q 492 1063 519 1049 q 460 1078 474 1074 q 432 1083 447 1083 q 410 1078 418 1083 q 394 1061 403 1072 q 382 1047 388 1051 q 367 1042 376 1042 l 281 1042 q 263 1049 271 1042 q 256 1065 256 1056 q 272 1144 256 1101 q 324 1217 288 1186 q 415 1247 360 1247 q 465 1240 444 1247 q 511 1218 486 1232 q 540 1205 525 1211 q 569 1199 556 1199 q 591 1204 583 1199 q 607 1221 599 1210 q 619 1235 614 1231 q 635 1240 625 1240 l 722 1240 q 740 1233 733 1240 q 747 1215 747 1226 q 731 1138 747 1181 q 678 1065 714 1096 q 586 1035 642 1035 z "},"O":{"ha":993,"x_min":64,"x_max":931,"o":"m 497 -14 q 186 82 300 -14 q 65 364 72 178 q 64 483 64 403 q 65 604 64 564 q 187 887 71 788 q 497 986 303 986 q 806 887 690 986 q 928 604 922 788 q 931 483 931 524 q 928 364 931 442 q 808 82 921 178 q 497 -14 694 -14 m 497 194 q 613 238 569 194 q 658 372 656 282 q 661 488 661 453 q 658 600 661 522 q 613 734 656 690 q 497 778 569 778 q 381 734 424 778 q 335 600 338 690 q 333 488 333 561 q 335 372 333 413 q 381 238 338 282 q 497 194 424 194 z "},"Ó":{"ha":993,"x_min":64,"x_max":931,"o":"m 497 -14 q 186 82 300 -14 q 65 364 72 178 q 64 483 64 403 q 65 604 64 564 q 187 887 71 788 q 497 986 303 986 q 806 887 690 986 q 928 604 922 788 q 931 483 931 524 q 928 364 931 442 q 808 82 921 178 q 497 -14 694 -14 m 497 194 q 613 238 569 194 q 658 372 656 282 q 661 488 661 453 q 658 600 661 522 q 613 734 656 690 q 497 778 569 778 q 381 734 424 778 q 335 600 338 690 q 333 488 333 561 q 335 372 333 413 q 381 238 338 282 q 497 194 424 194 m 406 1042 q 383 1064 383 1042 q 390 1082 383 1075 l 514 1233 q 538 1255 528 1250 q 565 1260 549 1260 l 768 1260 q 788 1252 781 1260 q 794 1232 794 1244 q 788 1215 794 1222 l 601 1063 q 576 1047 588 1051 q 549 1042 565 1042 l 406 1042 z "},"Ŏ":{"ha":993,"x_min":64,"x_max":931,"o":"m 497 -14 q 186 82 300 -14 q 65 364 72 178 q 64 483 64 403 q 65 604 64 564 q 187 887 71 788 q 497 986 303 986 q 806 887 690 986 q 928 604 922 788 q 931 483 931 524 q 928 364 931 442 q 808 82 921 178 q 497 -14 694 -14 m 497 194 q 613 238 569 194 q 658 372 656 282 q 661 488 661 453 q 658 600 661 522 q 613 734 656 690 q 497 778 569 778 q 381 734 424 778 q 335 600 338 690 q 333 488 333 561 q 335 372 333 413 q 381 238 338 282 q 497 194 424 194 m 497 1032 q 335 1088 389 1032 q 281 1231 281 1143 q 288 1249 281 1242 q 307 1257 294 1257 l 406 1257 q 425 1249 418 1257 q 432 1231 432 1242 q 497 1149 432 1149 q 563 1231 563 1149 q 569 1249 563 1242 q 589 1257 576 1257 l 688 1257 q 707 1249 700 1257 q 714 1231 714 1242 q 660 1088 714 1143 q 497 1032 606 1032 z "},"Ô":{"ha":993,"x_min":64,"x_max":931,"o":"m 497 -14 q 186 82 300 -14 q 65 364 72 178 q 64 483 64 403 q 65 604 64 564 q 187 887 71 788 q 497 986 303 986 q 806 887 690 986 q 928 604 922 788 q 931 483 931 524 q 928 364 931 442 q 808 82 921 178 q 497 -14 694 -14 m 497 194 q 613 238 569 194 q 658 372 656 282 q 661 488 661 453 q 658 600 661 522 q 613 734 656 690 q 497 778 569 778 q 381 734 424 778 q 335 600 338 690 q 333 488 333 561 q 335 372 333 413 q 381 238 338 282 q 497 194 424 194 m 253 1042 q 232 1061 232 1042 q 242 1083 232 1074 l 386 1235 q 410 1254 400 1249 q 435 1260 421 1260 l 560 1260 q 584 1254 574 1260 q 608 1235 594 1249 l 753 1083 q 763 1061 763 1074 q 742 1042 763 1042 l 668 1042 q 619 1051 638 1042 l 497 1118 l 375 1051 q 326 1042 357 1042 l 253 1042 z "},"Ö":{"ha":993,"x_min":64,"x_max":931,"o":"m 497 -14 q 186 82 300 -14 q 65 364 72 178 q 64 483 64 403 q 65 604 64 564 q 187 887 71 788 q 497 986 303 986 q 806 887 690 986 q 928 604 922 788 q 931 483 931 524 q 928 364 931 442 q 808 82 921 178 q 497 -14 694 -14 m 497 194 q 613 238 569 194 q 658 372 656 282 q 661 488 661 453 q 658 600 661 522 q 613 734 656 690 q 497 778 569 778 q 381 734 424 778 q 335 600 338 690 q 333 488 333 561 q 335 372 333 413 q 381 238 338 282 q 497 194 424 194 m 263 1042 q 240 1051 249 1042 q 232 1074 232 1060 l 232 1206 q 240 1228 232 1219 q 263 1238 249 1238 l 396 1238 q 419 1228 410 1238 q 428 1206 428 1219 l 428 1074 q 419 1051 428 1060 q 396 1042 410 1042 l 263 1042 m 597 1042 q 574 1051 583 1042 q 565 1074 565 1060 l 565 1206 q 574 1228 565 1219 q 597 1238 583 1238 l 729 1238 q 752 1228 743 1238 q 761 1206 761 1219 l 761 1074 q 752 1051 761 1060 q 729 1042 743 1042 l 597 1042 z "},"Ò":{"ha":993,"x_min":64,"x_max":931,"o":"m 497 -14 q 186 82 300 -14 q 65 364 72 178 q 64 483 64 403 q 65 604 64 564 q 187 887 71 788 q 497 986 303 986 q 806 887 690 986 q 928 604 922 788 q 931 483 931 524 q 928 364 931 442 q 808 82 921 178 q 497 -14 694 -14 m 497 194 q 613 238 569 194 q 658 372 656 282 q 661 488 661 453 q 658 600 661 522 q 613 734 656 690 q 497 778 569 778 q 381 734 424 778 q 335 600 338 690 q 333 488 333 561 q 335 372 333 413 q 381 238 338 282 q 497 194 424 194 m 449 1042 q 419 1047 431 1042 q 394 1063 408 1051 l 208 1215 q 201 1232 201 1222 q 208 1252 201 1244 q 228 1260 215 1260 l 431 1260 q 458 1255 449 1260 q 482 1233 468 1250 l 607 1082 q 614 1064 614 1075 q 592 1042 614 1042 l 449 1042 z "},"Ő":{"ha":993,"x_min":64,"x_max":931,"o":"m 497 -14 q 186 82 300 -14 q 65 364 72 178 q 64 483 64 403 q 65 604 64 564 q 187 887 71 788 q 497 986 303 986 q 806 887 690 986 q 928 604 922 788 q 931 483 931 524 q 928 364 931 442 q 808 82 921 178 q 497 -14 694 -14 m 497 194 q 613 238 569 194 q 658 372 656 282 q 661 488 661 453 q 658 600 661 522 q 613 734 656 690 q 497 778 569 778 q 381 734 424 778 q 335 600 338 690 q 333 488 333 561 q 335 372 333 413 q 381 238 338 282 q 497 194 424 194 m 297 1042 q 275 1064 275 1042 q 282 1085 275 1071 l 349 1233 q 367 1253 356 1247 q 400 1260 379 1260 l 564 1260 q 584 1253 576 1260 q 592 1233 592 1246 q 583 1215 592 1224 l 444 1061 q 399 1042 428 1042 l 297 1042 m 592 1042 q 569 1064 569 1042 q 576 1085 569 1071 l 643 1233 q 662 1253 650 1247 q 694 1260 674 1260 l 858 1260 q 878 1253 871 1260 q 886 1233 886 1246 q 878 1215 886 1222 l 740 1061 q 694 1042 724 1042 l 592 1042 z "},"Ō":{"ha":993,"x_min":64,"x_max":931,"o":"m 497 -14 q 186 82 300 -14 q 65 364 72 178 q 64 483 64 403 q 65 604 64 564 q 187 887 71 788 q 497 986 303 986 q 806 887 690 986 q 928 604 922 788 q 931 483 931 524 q 928 364 931 442 q 808 82 921 178 q 497 -14 694 -14 m 497 194 q 613 238 569 194 q 658 372 656 282 q 661 488 661 453 q 658 600 661 522 q 613 734 656 690 q 497 778 569 778 q 381 734 424 778 q 335 600 338 690 q 333 488 333 561 q 335 372 333 413 q 381 238 338 282 q 497 194 424 194 m 275 1042 q 253 1051 261 1042 q 244 1074 244 1060 l 244 1179 q 253 1202 244 1193 q 275 1211 261 1211 l 717 1211 q 740 1202 731 1211 q 749 1179 749 1193 l 749 1074 q 740 1051 749 1060 q 717 1042 731 1042 l 275 1042 z "},"Ø":{"ha":1038,"x_min":17,"x_max":1024,"o":"m 522 -14 q 255 51 360 -14 q 113 246 150 117 l 61 226 q 44 222 50 222 q 24 230 32 222 q 17 250 17 238 l 17 360 q 24 386 17 378 q 47 401 31 394 l 89 418 l 88 496 q 90 604 88 532 q 213 887 97 788 q 522 986 328 986 q 776 924 672 986 q 922 743 881 861 l 979 765 q 994 769 990 769 q 1015 762 1007 769 q 1024 742 1024 754 l 1024 633 q 1017 607 1024 615 q 993 592 1010 599 l 954 576 q 956 485 956 546 q 954 364 956 403 q 833 82 947 178 q 522 -14 719 -14 m 676 647 q 624 746 664 714 q 522 778 583 778 q 407 734 450 778 q 361 600 364 690 q 358 524 358 572 l 676 647 m 522 194 q 638 238 594 194 q 683 372 681 282 q 685 471 686 440 l 363 344 q 413 231 372 268 q 522 194 454 194 z "},"Ǿ":{"ha":1038,"x_min":17,"x_max":1024,"o":"m 522 -14 q 255 51 360 -14 q 113 246 150 117 l 61 226 q 44 222 50 222 q 24 230 32 222 q 17 250 17 238 l 17 360 q 24 386 17 378 q 47 401 31 394 l 89 418 l 88 496 q 90 604 88 532 q 213 887 97 788 q 522 986 328 986 q 776 924 672 986 q 922 743 881 861 l 979 765 q 994 769 990 769 q 1015 762 1007 769 q 1024 742 1024 754 l 1024 633 q 1017 607 1024 615 q 993 592 1010 599 l 954 576 q 956 485 956 546 q 954 364 956 403 q 833 82 947 178 q 522 -14 719 -14 m 676 647 q 624 746 664 714 q 522 778 583 778 q 407 734 450 778 q 361 600 364 690 q 358 524 358 572 l 676 647 m 522 194 q 638 238 594 194 q 683 372 681 282 q 685 471 686 440 l 363 344 q 413 231 372 268 q 522 194 454 194 m 428 1042 q 406 1064 406 1042 q 413 1082 406 1075 l 536 1233 q 560 1255 550 1250 q 588 1260 571 1260 l 790 1260 q 810 1252 803 1260 q 817 1232 817 1244 q 810 1215 817 1222 l 624 1063 q 599 1047 610 1051 q 571 1042 588 1042 l 428 1042 z "},"Õ":{"ha":993,"x_min":64,"x_max":931,"o":"m 497 -14 q 186 82 300 -14 q 65 364 72 178 q 64 483 64 403 q 65 604 64 564 q 187 887 71 788 q 497 986 303 986 q 806 887 690 986 q 928 604 922 788 q 931 483 931 524 q 928 364 931 442 q 808 82 921 178 q 497 -14 694 -14 m 497 194 q 613 238 569 194 q 658 372 656 282 q 661 488 661 453 q 658 600 661 522 q 613 734 656 690 q 497 778 569 778 q 381 734 424 778 q 335 600 338 690 q 333 488 333 561 q 335 372 333 413 q 381 238 338 282 q 497 194 424 194 m 582 1035 q 535 1042 554 1035 q 488 1063 515 1049 q 456 1078 469 1074 q 428 1083 443 1083 q 406 1078 414 1083 q 390 1061 399 1072 q 378 1047 383 1051 q 363 1042 372 1042 l 276 1042 q 259 1049 267 1042 q 251 1065 251 1056 q 267 1144 251 1101 q 319 1217 283 1186 q 411 1247 356 1247 q 461 1240 440 1247 q 507 1218 482 1232 q 536 1205 521 1211 q 565 1199 551 1199 q 587 1204 579 1199 q 603 1221 594 1210 q 615 1235 610 1231 q 631 1240 621 1240 l 718 1240 q 736 1233 729 1240 q 743 1215 743 1226 q 726 1138 743 1181 q 674 1065 710 1096 q 582 1035 638 1035 z "},"Œ":{"ha":1344,"x_min":64,"x_max":1285,"o":"m 496 0 q 65 381 78 0 q 64 486 64 419 q 65 593 64 553 q 185 874 71 776 q 503 972 299 972 l 1238 972 q 1263 962 1253 972 q 1274 936 1274 951 l 1274 799 q 1263 774 1274 783 q 1238 764 1253 764 l 835 764 l 835 588 l 1207 588 q 1233 577 1222 588 q 1243 551 1243 567 l 1243 425 q 1233 399 1243 410 q 1207 389 1222 389 l 835 389 l 835 208 l 1249 208 q 1274 198 1264 208 q 1285 172 1285 188 l 1285 35 q 1274 10 1285 19 q 1249 0 1264 0 l 496 0 m 585 208 l 585 764 l 510 764 q 377 722 422 764 q 329 590 332 679 q 328 488 328 551 q 329 383 328 424 q 374 250 332 292 q 503 208 417 208 l 585 208 z "},"P":{"ha":943,"x_min":94,"x_max":908,"o":"m 129 0 q 105 10 115 0 q 94 35 94 21 l 94 936 q 104 962 94 951 q 129 972 114 972 l 522 972 q 806 890 703 972 q 908 650 908 808 q 806 413 908 492 q 522 335 703 335 l 364 335 l 364 35 q 354 10 364 21 q 329 0 344 0 l 129 0 m 515 533 q 605 563 572 533 q 638 651 638 593 q 608 739 638 706 q 515 772 578 772 l 360 772 l 360 533 l 515 533 z "},"Þ":{"ha":946,"x_min":94,"x_max":908,"o":"m 129 0 q 105 10 115 0 q 94 35 94 21 l 94 938 q 105 963 94 953 q 129 972 115 972 l 329 972 q 354 963 344 972 q 364 938 364 953 l 364 814 l 518 814 q 805 732 701 814 q 908 492 908 650 q 805 255 908 333 q 518 176 701 176 l 364 176 l 364 35 q 354 10 364 21 q 329 0 344 0 l 129 0 m 515 375 q 605 405 572 375 q 638 493 638 435 q 608 581 638 547 q 515 614 578 614 l 360 614 l 360 375 l 515 375 z "},"Q":{"ha":993,"x_min":63,"x_max":933,"o":"m 714 -90 q 683 -81 694 -90 q 661 -58 671 -72 l 614 3 q 496 -14 563 -14 q 185 82 299 -14 q 64 364 71 178 q 63 483 63 403 q 64 604 63 564 q 186 887 71 788 q 496 986 301 986 q 806 887 690 986 q 928 604 921 788 q 931 483 931 524 q 928 364 931 442 q 826 99 919 194 l 929 -47 q 933 -61 933 -56 l 933 -65 q 925 -83 933 -75 q 906 -90 917 -90 l 714 -90 m 496 194 q 611 238 568 194 q 657 372 654 282 q 660 488 660 453 q 657 600 660 522 q 611 734 654 690 q 496 778 568 778 q 381 734 424 778 q 335 600 338 690 q 333 488 333 561 q 335 372 333 413 q 381 238 338 282 q 496 194 424 194 z "},"R":{"ha":965,"x_min":94,"x_max":924,"o":"m 129 0 q 105 10 115 0 q 94 35 94 21 l 94 936 q 104 962 94 951 q 129 972 114 972 l 511 972 q 798 889 694 972 q 901 654 901 806 q 856 489 901 557 q 732 383 811 421 l 919 44 q 924 29 924 36 q 915 9 924 18 q 894 0 907 0 l 699 0 q 642 38 658 0 l 489 339 l 356 339 l 356 35 q 345 10 356 19 q 319 0 335 0 l 129 0 m 510 543 q 601 573 569 543 q 632 656 632 603 q 601 740 632 708 q 510 772 569 772 l 356 772 l 356 543 l 510 543 z "},"Ŕ":{"ha":965,"x_min":94,"x_max":924,"o":"m 129 0 q 105 10 115 0 q 94 35 94 21 l 94 936 q 104 962 94 951 q 129 972 114 972 l 511 972 q 798 889 694 972 q 901 654 901 806 q 856 489 901 557 q 732 383 811 421 l 919 44 q 924 29 924 36 q 915 9 924 18 q 894 0 907 0 l 699 0 q 642 38 658 0 l 489 339 l 356 339 l 356 35 q 345 10 356 19 q 319 0 335 0 l 129 0 m 510 543 q 601 573 569 543 q 632 656 632 603 q 601 740 632 708 q 510 772 569 772 l 356 772 l 356 543 l 510 543 m 363 1042 q 340 1064 340 1042 q 347 1082 340 1075 l 471 1233 q 495 1255 485 1250 q 522 1260 506 1260 l 725 1260 q 744 1252 738 1260 q 751 1232 751 1244 q 744 1215 751 1222 l 558 1063 q 533 1047 544 1051 q 506 1042 522 1042 l 363 1042 z "},"Ř":{"ha":965,"x_min":94,"x_max":924,"o":"m 129 0 q 105 10 115 0 q 94 35 94 21 l 94 936 q 104 962 94 951 q 129 972 114 972 l 511 972 q 798 889 694 972 q 901 654 901 806 q 856 489 901 557 q 732 383 811 421 l 919 44 q 924 29 924 36 q 915 9 924 18 q 894 0 907 0 l 699 0 q 642 38 658 0 l 489 339 l 356 339 l 356 35 q 345 10 356 19 q 319 0 335 0 l 129 0 m 510 543 q 601 573 569 543 q 632 656 632 603 q 601 740 632 708 q 510 772 569 772 l 356 772 l 356 543 l 510 543 m 392 1042 q 367 1047 378 1042 q 343 1065 356 1051 l 199 1218 q 189 1239 189 1228 q 210 1260 189 1260 l 283 1260 q 332 1250 314 1260 l 454 1183 l 576 1250 q 625 1260 594 1260 l 699 1260 q 719 1239 719 1260 q 710 1218 719 1228 l 565 1065 q 542 1047 553 1051 q 517 1042 531 1042 l 392 1042 z "},"Ŗ":{"ha":965,"x_min":94,"x_max":924,"o":"m 129 0 q 105 10 115 0 q 94 35 94 21 l 94 936 q 104 962 94 951 q 129 972 114 972 l 511 972 q 798 889 694 972 q 901 654 901 806 q 856 489 901 557 q 732 383 811 421 l 919 44 q 924 29 924 36 q 915 9 924 18 q 894 0 907 0 l 699 0 q 642 38 658 0 l 489 339 l 356 339 l 356 35 q 345 10 356 19 q 319 0 335 0 l 129 0 m 510 543 q 601 573 569 543 q 632 656 632 603 q 601 740 632 708 q 510 772 569 772 l 356 772 l 356 543 l 510 543 m 365 -329 q 346 -320 354 -329 q 339 -299 338 -311 l 367 -118 q 382 -84 369 -99 q 418 -69 394 -69 l 578 -69 q 597 -78 589 -69 q 606 -97 606 -86 q 603 -112 606 -106 l 533 -289 q 482 -329 518 -329 l 365 -329 z "},"S":{"ha":925,"x_min":39,"x_max":886,"o":"m 463 -14 q 233 25 328 -14 q 90 128 139 64 q 39 267 42 192 q 48 288 39 279 q 69 296 57 296 l 254 296 q 281 290 271 296 q 304 271 292 285 q 360 216 322 238 q 463 194 399 194 q 578 217 538 194 q 618 281 618 240 q 597 328 618 310 q 531 362 576 347 q 399 394 485 376 q 147 496 231 428 q 64 690 64 564 q 112 844 64 776 q 248 949 160 911 q 453 986 336 986 q 665 944 575 986 q 802 838 754 901 q 853 714 850 775 q 844 692 853 701 q 824 683 836 683 l 629 683 q 582 708 599 683 q 539 758 574 738 q 453 778 504 778 q 363 757 394 778 q 331 696 331 736 q 372 633 331 656 q 528 586 414 610 q 735 527 658 563 q 849 435 813 492 q 886 293 886 379 q 832 129 886 199 q 682 23 778 60 q 463 -14 586 -14 z "},"Ś":{"ha":925,"x_min":39,"x_max":886,"o":"m 463 -14 q 233 25 328 -14 q 90 128 139 64 q 39 267 42 192 q 48 288 39 279 q 69 296 57 296 l 254 296 q 281 290 271 296 q 304 271 292 285 q 360 216 322 238 q 463 194 399 194 q 578 217 538 194 q 618 281 618 240 q 597 328 618 310 q 531 362 576 347 q 399 394 485 376 q 147 496 231 428 q 64 690 64 564 q 112 844 64 776 q 248 949 160 911 q 453 986 336 986 q 665 944 575 986 q 802 838 754 901 q 853 714 850 775 q 844 692 853 701 q 824 683 836 683 l 629 683 q 582 708 599 683 q 539 758 574 738 q 453 778 504 778 q 363 757 394 778 q 331 696 331 736 q 372 633 331 656 q 528 586 414 610 q 735 527 658 563 q 849 435 813 492 q 886 293 886 379 q 832 129 886 199 q 682 23 778 60 q 463 -14 586 -14 m 372 1042 q 350 1064 350 1042 q 357 1082 350 1075 l 481 1233 q 505 1255 494 1250 q 532 1260 515 1260 l 735 1260 q 754 1252 747 1260 q 761 1232 761 1244 q 754 1215 761 1222 l 568 1063 q 543 1047 554 1051 q 515 1042 532 1042 l 372 1042 z "},"Š":{"ha":925,"x_min":39,"x_max":886,"o":"m 463 -14 q 233 25 328 -14 q 90 128 139 64 q 39 267 42 192 q 48 288 39 279 q 69 296 57 296 l 254 296 q 281 290 271 296 q 304 271 292 285 q 360 216 322 238 q 463 194 399 194 q 578 217 538 194 q 618 281 618 240 q 597 328 618 310 q 531 362 576 347 q 399 394 485 376 q 147 496 231 428 q 64 690 64 564 q 112 844 64 776 q 248 949 160 911 q 453 986 336 986 q 665 944 575 986 q 802 838 754 901 q 853 714 850 775 q 844 692 853 701 q 824 683 836 683 l 629 683 q 582 708 599 683 q 539 758 574 738 q 453 778 504 778 q 363 757 394 778 q 331 696 331 736 q 372 633 331 656 q 528 586 414 610 q 735 527 658 563 q 849 435 813 492 q 886 293 886 379 q 832 129 886 199 q 682 23 778 60 q 463 -14 586 -14 m 401 1042 q 376 1047 388 1042 q 353 1065 365 1051 l 208 1218 q 199 1239 199 1228 q 219 1260 199 1260 l 293 1260 q 342 1250 324 1260 l 464 1183 l 586 1250 q 635 1260 604 1260 l 708 1260 q 729 1239 729 1260 q 719 1218 729 1228 l 575 1065 q 551 1047 563 1051 q 526 1042 540 1042 l 401 1042 z "},"Ş":{"ha":925,"x_min":39,"x_max":886,"o":"m 458 -306 q 378 -287 414 -306 q 343 -249 343 -268 q 350 -235 343 -240 l 375 -212 q 390 -206 382 -206 q 415 -215 396 -206 q 458 -224 435 -224 q 492 -212 479 -224 q 504 -182 504 -200 q 492 -154 504 -165 q 458 -143 479 -143 q 428 -148 447 -143 q 401 -153 410 -153 q 381 -144 389 -153 l 354 -117 q 346 -99 346 -108 q 354 -72 346 -89 l 382 -10 q 196 42 272 1 q 80 141 119 82 q 39 267 40 200 q 48 288 39 279 q 69 296 57 296 l 254 296 q 281 290 271 296 q 304 271 292 285 q 360 216 322 238 q 463 194 399 194 q 578 217 538 194 q 618 281 618 240 q 597 328 618 310 q 531 362 576 347 q 399 394 485 376 q 147 496 231 428 q 64 690 64 564 q 112 844 64 776 q 248 949 160 911 q 453 986 336 986 q 665 944 575 986 q 802 838 754 901 q 853 714 850 775 q 844 692 853 701 q 824 683 836 683 l 629 683 q 582 708 599 683 q 539 758 574 738 q 453 778 504 778 q 363 757 394 778 q 331 696 331 736 q 372 633 331 656 q 528 586 414 610 q 735 527 658 563 q 849 435 813 492 q 886 293 886 379 q 833 131 886 200 q 684 24 779 61 q 465 -14 589 -12 l 439 -68 q 461 -62 449 -64 q 483 -60 474 -60 q 564 -94 533 -60 q 594 -182 594 -128 q 558 -271 594 -236 q 458 -306 521 -306 z "},"Ŝ":{"ha":925,"x_min":39,"x_max":886,"o":"m 463 -14 q 233 25 328 -14 q 90 128 139 64 q 39 267 42 192 q 48 288 39 279 q 69 296 57 296 l 254 296 q 281 290 271 296 q 304 271 292 285 q 360 216 322 238 q 463 194 399 194 q 578 217 538 194 q 618 281 618 240 q 597 328 618 310 q 531 362 576 347 q 399 394 485 376 q 147 496 231 428 q 64 690 64 564 q 112 844 64 776 q 248 949 160 911 q 453 986 336 986 q 665 944 575 986 q 802 838 754 901 q 853 714 850 775 q 844 692 853 701 q 824 683 836 683 l 629 683 q 582 708 599 683 q 539 758 574 738 q 453 778 504 778 q 363 757 394 778 q 331 696 331 736 q 372 633 331 656 q 528 586 414 610 q 735 527 658 563 q 849 435 813 492 q 886 293 886 379 q 832 129 886 199 q 682 23 778 60 q 463 -14 586 -14 m 219 1042 q 199 1061 199 1042 q 208 1083 199 1074 l 353 1235 q 377 1254 367 1249 q 401 1260 388 1260 l 526 1260 q 551 1254 540 1260 q 575 1235 561 1249 l 719 1083 q 729 1061 729 1074 q 708 1042 729 1042 l 635 1042 q 586 1051 604 1042 l 464 1118 l 342 1051 q 293 1042 324 1042 l 219 1042 z "},"Ș":{"ha":925,"x_min":39,"x_max":886,"o":"m 463 -14 q 233 25 328 -14 q 90 128 139 64 q 39 267 42 192 q 48 288 39 279 q 69 296 57 296 l 254 296 q 281 290 271 296 q 304 271 292 285 q 360 216 322 238 q 463 194 399 194 q 578 217 538 194 q 618 281 618 240 q 597 328 618 310 q 531 362 576 347 q 399 394 485 376 q 147 496 231 428 q 64 690 64 564 q 112 844 64 776 q 248 949 160 911 q 453 986 336 986 q 665 944 575 986 q 802 838 754 901 q 853 714 850 775 q 844 692 853 701 q 824 683 836 683 l 629 683 q 582 708 599 683 q 539 758 574 738 q 453 778 504 778 q 363 757 394 778 q 331 696 331 736 q 372 633 331 656 q 528 586 414 610 q 735 527 658 563 q 849 435 813 492 q 886 293 886 379 q 832 129 886 199 q 682 23 778 60 q 463 -14 586 -14 m 336 -329 q 317 -320 325 -329 q 310 -299 308 -311 l 338 -118 q 353 -84 340 -99 q 389 -69 365 -69 l 549 -69 q 568 -78 560 -69 q 576 -97 576 -86 q 574 -112 576 -106 l 504 -289 q 453 -329 489 -329 l 336 -329 z "},"T":{"ha":882,"x_min":28,"x_max":854,"o":"m 344 0 q 319 10 329 0 q 308 35 308 19 l 308 746 l 64 746 q 38 756 49 746 q 28 781 28 765 l 28 936 q 38 962 28 951 q 64 972 49 972 l 818 972 q 844 962 833 972 q 854 936 854 951 l 854 781 q 844 756 854 765 q 818 746 833 746 l 574 746 l 574 35 q 563 10 574 19 q 538 0 553 0 l 344 0 z "},"Ŧ":{"ha":894,"x_min":35,"x_max":860,"o":"m 350 0 q 326 10 336 0 q 315 35 315 21 l 315 401 l 176 401 q 152 412 163 401 q 142 436 142 422 l 142 508 q 151 534 142 524 q 176 544 161 544 l 315 544 l 315 746 l 69 746 q 45 756 56 746 q 35 781 35 767 l 35 936 q 44 962 35 951 q 69 972 54 972 l 824 972 q 849 962 839 972 q 860 936 860 951 l 860 781 q 849 756 860 765 q 824 746 839 746 l 579 746 l 579 544 l 717 544 q 742 534 732 544 q 753 508 753 524 l 753 436 q 742 411 753 421 q 717 401 732 401 l 579 401 l 579 35 q 569 10 579 19 q 543 0 558 0 l 350 0 z "},"Ť":{"ha":882,"x_min":28,"x_max":854,"o":"m 344 0 q 319 10 329 0 q 308 35 308 19 l 308 746 l 64 746 q 38 756 49 746 q 28 781 28 765 l 28 936 q 38 962 28 951 q 64 972 49 972 l 818 972 q 844 962 833 972 q 854 936 854 951 l 854 781 q 844 756 854 765 q 818 746 833 746 l 574 746 l 574 35 q 563 10 574 19 q 538 0 553 0 l 344 0 m 379 1042 q 354 1047 365 1042 q 331 1065 343 1051 l 186 1218 q 176 1239 176 1228 q 197 1260 176 1260 l 271 1260 q 319 1250 301 1260 l 442 1183 l 564 1250 q 613 1260 582 1260 l 686 1260 q 707 1239 707 1260 q 697 1218 707 1228 l 553 1065 q 529 1047 540 1051 q 504 1042 518 1042 l 379 1042 z "},"Ț":{"ha":882,"x_min":28,"x_max":854,"o":"m 344 0 q 319 10 329 0 q 308 35 308 19 l 308 746 l 64 746 q 38 756 49 746 q 28 781 28 765 l 28 936 q 38 962 28 951 q 64 972 49 972 l 818 972 q 844 962 833 972 q 854 936 854 951 l 854 781 q 844 756 854 765 q 818 746 833 746 l 574 746 l 574 35 q 563 10 574 19 q 538 0 553 0 l 344 0 m 314 -329 q 294 -320 303 -329 q 288 -299 286 -311 l 315 -118 q 331 -84 318 -99 q 367 -69 343 -69 l 526 -69 q 546 -78 538 -69 q 554 -97 554 -86 q 551 -112 554 -106 l 482 -289 q 431 -329 467 -329 l 314 -329 z "},"U":{"ha":1011,"x_min":86,"x_max":925,"o":"m 507 -14 q 198 82 310 -14 q 86 369 86 178 l 86 936 q 96 962 86 951 q 121 972 106 972 l 311 972 q 337 962 326 972 q 347 936 347 951 l 347 372 q 388 243 347 286 q 506 200 429 200 q 623 244 582 200 q 664 372 664 288 l 664 936 q 674 962 664 951 q 700 972 685 972 l 889 972 q 915 962 904 972 q 925 936 925 951 l 925 369 q 814 82 925 178 q 507 -14 703 -14 z "},"Ú":{"ha":1011,"x_min":86,"x_max":925,"o":"m 507 -14 q 198 82 310 -14 q 86 369 86 178 l 86 936 q 96 962 86 951 q 121 972 106 972 l 311 972 q 337 962 326 972 q 347 936 347 951 l 347 372 q 388 243 347 286 q 506 200 429 200 q 623 244 582 200 q 664 372 664 288 l 664 936 q 674 962 664 951 q 700 972 685 972 l 889 972 q 915 962 904 972 q 925 936 925 951 l 925 369 q 814 82 925 178 q 507 -14 703 -14 m 414 1042 q 392 1064 392 1042 q 399 1082 392 1075 l 522 1233 q 547 1255 536 1250 q 574 1260 557 1260 l 776 1260 q 796 1252 789 1260 q 803 1232 803 1244 q 796 1215 803 1222 l 610 1063 q 585 1047 596 1051 q 557 1042 574 1042 l 414 1042 z "},"Ŭ":{"ha":1011,"x_min":86,"x_max":925,"o":"m 507 -14 q 198 82 310 -14 q 86 369 86 178 l 86 936 q 96 962 86 951 q 121 972 106 972 l 311 972 q 337 962 326 972 q 347 936 347 951 l 347 372 q 388 243 347 286 q 506 200 429 200 q 623 244 582 200 q 664 372 664 288 l 664 936 q 674 962 664 951 q 700 972 685 972 l 889 972 q 915 962 904 972 q 925 936 925 951 l 925 369 q 814 82 925 178 q 507 -14 703 -14 m 506 1032 q 343 1088 397 1032 q 289 1231 289 1143 q 296 1249 289 1242 q 315 1257 303 1257 l 414 1257 q 433 1249 426 1257 q 440 1231 440 1242 q 506 1149 440 1149 q 571 1231 571 1149 q 578 1249 571 1242 q 597 1257 585 1257 l 696 1257 q 715 1249 708 1257 q 722 1231 722 1242 q 668 1088 722 1143 q 506 1032 614 1032 z "},"Û":{"ha":1011,"x_min":86,"x_max":925,"o":"m 507 -14 q 198 82 310 -14 q 86 369 86 178 l 86 936 q 96 962 86 951 q 121 972 106 972 l 311 972 q 337 962 326 972 q 347 936 347 951 l 347 372 q 388 243 347 286 q 506 200 429 200 q 623 244 582 200 q 664 372 664 288 l 664 936 q 674 962 664 951 q 700 972 685 972 l 889 972 q 915 962 904 972 q 925 936 925 951 l 925 369 q 814 82 925 178 q 507 -14 703 -14 m 261 1042 q 240 1061 240 1042 q 250 1083 240 1074 l 394 1235 q 419 1254 408 1249 q 443 1260 429 1260 l 568 1260 q 592 1254 582 1260 q 617 1235 603 1249 l 761 1083 q 771 1061 771 1074 q 750 1042 771 1042 l 676 1042 q 628 1051 646 1042 l 506 1118 l 383 1051 q 335 1042 365 1042 l 261 1042 z "},"Ü":{"ha":1011,"x_min":86,"x_max":925,"o":"m 507 -14 q 198 82 310 -14 q 86 369 86 178 l 86 936 q 96 962 86 951 q 121 972 106 972 l 311 972 q 337 962 326 972 q 347 936 347 951 l 347 372 q 388 243 347 286 q 506 200 429 200 q 623 244 582 200 q 664 372 664 288 l 664 936 q 674 962 664 951 q 700 972 685 972 l 889 972 q 915 962 904 972 q 925 936 925 951 l 925 369 q 814 82 925 178 q 507 -14 703 -14 m 271 1042 q 249 1051 257 1042 q 240 1074 240 1060 l 240 1206 q 249 1228 240 1219 q 271 1238 257 1238 l 404 1238 q 427 1228 418 1238 q 436 1206 436 1219 l 436 1074 q 427 1051 436 1060 q 404 1042 418 1042 l 271 1042 m 606 1042 q 583 1051 592 1042 q 574 1074 574 1060 l 574 1206 q 583 1228 574 1219 q 606 1238 592 1238 l 738 1238 q 760 1228 751 1238 q 769 1206 769 1219 l 769 1074 q 760 1051 769 1060 q 738 1042 751 1042 l 606 1042 z "},"Ù":{"ha":1011,"x_min":86,"x_max":925,"o":"m 507 -14 q 198 82 310 -14 q 86 369 86 178 l 86 936 q 96 962 86 951 q 121 972 106 972 l 311 972 q 337 962 326 972 q 347 936 347 951 l 347 372 q 388 243 347 286 q 506 200 429 200 q 623 244 582 200 q 664 372 664 288 l 664 936 q 674 962 664 951 q 700 972 685 972 l 889 972 q 915 962 904 972 q 925 936 925 951 l 925 369 q 814 82 925 178 q 507 -14 703 -14 m 457 1042 q 428 1047 439 1042 q 403 1063 417 1051 l 217 1215 q 210 1232 210 1222 q 217 1252 210 1244 q 236 1260 224 1260 l 439 1260 q 467 1255 457 1260 q 490 1233 476 1250 l 615 1082 q 622 1064 622 1075 q 600 1042 622 1042 l 457 1042 z "},"Ű":{"ha":1011,"x_min":86,"x_max":925,"o":"m 507 -14 q 198 82 310 -14 q 86 369 86 178 l 86 936 q 96 962 86 951 q 121 972 106 972 l 311 972 q 337 962 326 972 q 347 936 347 951 l 347 372 q 388 243 347 286 q 506 200 429 200 q 623 244 582 200 q 664 372 664 288 l 664 936 q 674 962 664 951 q 700 972 685 972 l 889 972 q 915 962 904 972 q 925 936 925 951 l 925 369 q 814 82 925 178 q 507 -14 703 -14 m 306 1042 q 283 1064 283 1042 q 290 1085 283 1071 l 357 1233 q 376 1253 364 1247 q 408 1260 388 1260 l 572 1260 q 592 1253 585 1260 q 600 1233 600 1246 q 592 1215 600 1224 l 453 1061 q 407 1042 436 1042 l 306 1042 m 600 1042 q 578 1064 578 1042 q 585 1085 578 1071 l 651 1233 q 670 1253 658 1247 q 703 1260 682 1260 l 867 1260 q 887 1253 879 1260 q 894 1233 894 1246 q 886 1215 894 1222 l 749 1061 q 703 1042 732 1042 l 600 1042 z "},"Ū":{"ha":1011,"x_min":86,"x_max":925,"o":"m 507 -14 q 198 82 310 -14 q 86 369 86 178 l 86 936 q 96 962 86 951 q 121 972 106 972 l 311 972 q 337 962 326 972 q 347 936 347 951 l 347 372 q 388 243 347 286 q 506 200 429 200 q 623 244 582 200 q 664 372 664 288 l 664 936 q 674 962 664 951 q 700 972 685 972 l 889 972 q 915 962 904 972 q 925 936 925 951 l 925 369 q 814 82 925 178 q 507 -14 703 -14 m 283 1042 q 261 1051 269 1042 q 253 1074 253 1060 l 253 1179 q 261 1202 253 1193 q 283 1211 269 1211 l 725 1211 q 748 1202 739 1211 q 757 1179 757 1193 l 757 1074 q 748 1051 757 1060 q 725 1042 739 1042 l 283 1042 z "},"Ų":{"ha":1011,"x_min":86,"x_max":925,"o":"m 613 -306 q 448 -244 504 -306 q 392 -83 392 -183 q 403 -6 392 -42 q 169 109 253 15 q 86 369 86 203 l 86 936 q 96 962 86 951 q 121 972 106 972 l 311 972 q 337 962 326 972 q 347 936 347 951 l 347 372 q 388 243 347 286 q 506 200 429 200 q 623 244 582 200 q 664 372 664 288 l 664 936 q 674 962 664 951 q 700 972 685 972 l 889 972 q 915 962 904 972 q 925 936 925 951 l 925 369 q 841 112 925 204 q 606 -7 757 19 q 553 -33 569 -14 q 536 -83 536 -51 q 557 -142 536 -118 q 618 -167 578 -167 l 635 -167 q 660 -177 650 -167 q 669 -201 669 -187 l 669 -271 q 660 -296 669 -286 q 635 -306 650 -306 l 613 -306 z "},"Ů":{"ha":1011,"x_min":86,"x_max":925,"o":"m 507 -14 q 198 82 310 -14 q 86 369 86 178 l 86 936 q 96 962 86 951 q 121 972 106 972 l 311 972 q 337 962 326 972 q 347 936 347 951 l 347 372 q 388 243 347 286 q 506 200 429 200 q 623 244 582 200 q 664 372 664 288 l 664 936 q 674 962 664 951 q 700 972 685 972 l 889 972 q 915 962 904 972 q 925 936 925 951 l 925 369 q 814 82 925 178 q 507 -14 703 -14 m 506 1028 q 414 1063 451 1028 q 376 1150 376 1097 q 414 1238 376 1203 q 506 1274 451 1274 q 597 1238 560 1274 q 635 1150 635 1203 q 597 1063 635 1097 q 506 1028 560 1028 m 506 1108 q 535 1120 524 1108 q 547 1150 547 1132 q 535 1180 547 1168 q 506 1192 524 1192 q 476 1180 488 1192 q 464 1150 464 1168 q 476 1120 464 1132 q 506 1108 488 1108 z "},"Ũ":{"ha":1011,"x_min":86,"x_max":925,"o":"m 507 -14 q 198 82 310 -14 q 86 369 86 178 l 86 936 q 96 962 86 951 q 121 972 106 972 l 311 972 q 337 962 326 972 q 347 936 347 951 l 347 372 q 388 243 347 286 q 506 200 429 200 q 623 244 582 200 q 664 372 664 288 l 664 936 q 674 962 664 951 q 700 972 685 972 l 889 972 q 915 962 904 972 q 925 936 925 951 l 925 369 q 814 82 925 178 q 507 -14 703 -14 m 590 1035 q 543 1042 563 1035 q 496 1063 524 1049 q 465 1078 478 1074 q 436 1083 451 1083 q 415 1078 422 1083 q 399 1061 407 1072 q 386 1047 392 1051 q 371 1042 381 1042 l 285 1042 q 267 1049 275 1042 q 260 1065 260 1056 q 276 1144 260 1101 q 328 1217 292 1186 q 419 1247 364 1247 q 469 1240 449 1247 q 515 1218 490 1232 q 544 1205 529 1211 q 574 1199 560 1199 q 595 1204 588 1199 q 611 1221 603 1210 q 624 1235 618 1231 q 639 1240 629 1240 l 726 1240 q 744 1233 738 1240 q 751 1215 751 1226 q 735 1138 751 1181 q 682 1065 718 1096 q 590 1035 646 1035 z "},"V":{"ha":968,"x_min":31,"x_max":936,"o":"m 372 0 q 334 12 349 0 q 314 42 319 24 l 33 931 l 31 943 q 40 963 31 954 q 61 972 49 972 l 243 972 q 277 960 264 972 q 294 935 290 949 l 483 307 l 674 935 q 691 961 678 950 q 725 972 704 972 l 907 972 q 928 963 919 972 q 936 943 936 954 q 935 931 936 936 l 653 42 q 634 12 649 24 q 596 0 619 0 l 372 0 z "},"W":{"ha":1157,"x_min":44,"x_max":1113,"o":"m 250 0 q 212 13 226 0 q 194 46 197 26 l 46 935 q 44 943 44 938 q 53 963 44 954 q 74 972 63 972 l 256 972 q 300 940 296 972 l 385 415 l 481 719 q 526 757 492 757 l 631 757 q 676 719 665 757 l 772 417 l 858 940 q 871 965 861 957 q 901 972 881 972 l 1083 972 q 1104 963 1096 972 q 1113 943 1113 954 l 1113 935 l 964 46 q 946 13 961 26 q 908 0 931 0 l 768 0 q 733 11 746 0 q 717 36 721 22 l 579 421 l 442 36 q 424 11 436 22 q 389 0 411 0 l 250 0 z "},"Ẃ":{"ha":1157,"x_min":44,"x_max":1113,"o":"m 250 0 q 212 13 226 0 q 194 46 197 26 l 46 935 q 44 943 44 938 q 53 963 44 954 q 74 972 63 972 l 256 972 q 300 940 296 972 l 385 415 l 481 719 q 526 757 492 757 l 631 757 q 676 719 665 757 l 772 417 l 858 940 q 871 965 861 957 q 901 972 881 972 l 1083 972 q 1104 963 1096 972 q 1113 943 1113 954 l 1113 935 l 964 46 q 946 13 961 26 q 908 0 931 0 l 768 0 q 733 11 746 0 q 717 36 721 22 l 579 421 l 442 36 q 424 11 436 22 q 389 0 411 0 l 250 0 m 488 1042 q 465 1064 465 1042 q 472 1082 465 1075 l 596 1233 q 620 1255 610 1250 q 647 1260 631 1260 l 850 1260 q 869 1252 863 1260 q 876 1232 876 1244 q 869 1215 876 1222 l 683 1063 q 658 1047 669 1051 q 631 1042 647 1042 l 488 1042 z "},"Ŵ":{"ha":1157,"x_min":44,"x_max":1113,"o":"m 250 0 q 212 13 226 0 q 194 46 197 26 l 46 935 q 44 943 44 938 q 53 963 44 954 q 74 972 63 972 l 256 972 q 300 940 296 972 l 385 415 l 481 719 q 526 757 492 757 l 631 757 q 676 719 665 757 l 772 417 l 858 940 q 871 965 861 957 q 901 972 881 972 l 1083 972 q 1104 963 1096 972 q 1113 943 1113 954 l 1113 935 l 964 46 q 946 13 961 26 q 908 0 931 0 l 768 0 q 733 11 746 0 q 717 36 721 22 l 579 421 l 442 36 q 424 11 436 22 q 389 0 411 0 l 250 0 m 335 1042 q 314 1061 314 1042 q 324 1083 314 1074 l 468 1235 q 492 1254 482 1249 q 517 1260 503 1260 l 642 1260 q 666 1254 656 1260 q 690 1235 676 1249 l 835 1083 q 844 1061 844 1074 q 824 1042 844 1042 l 750 1042 q 701 1051 719 1042 l 579 1118 l 457 1051 q 408 1042 439 1042 l 335 1042 z "},"Ẅ":{"ha":1157,"x_min":44,"x_max":1113,"o":"m 250 0 q 212 13 226 0 q 194 46 197 26 l 46 935 q 44 943 44 938 q 53 963 44 954 q 74 972 63 972 l 256 972 q 300 940 296 972 l 385 415 l 481 719 q 526 757 492 757 l 631 757 q 676 719 665 757 l 772 417 l 858 940 q 871 965 861 957 q 901 972 881 972 l 1083 972 q 1104 963 1096 972 q 1113 943 1113 954 l 1113 935 l 964 46 q 946 13 961 26 q 908 0 931 0 l 768 0 q 733 11 746 0 q 717 36 721 22 l 579 421 l 442 36 q 424 11 436 22 q 389 0 411 0 l 250 0 m 344 1042 q 322 1051 331 1042 q 314 1074 314 1060 l 314 1206 q 322 1228 314 1219 q 344 1238 331 1238 l 478 1238 q 501 1228 492 1238 q 510 1206 510 1219 l 510 1074 q 501 1051 510 1060 q 478 1042 492 1042 l 344 1042 m 679 1042 q 656 1051 665 1042 q 647 1074 647 1060 l 647 1206 q 656 1228 647 1219 q 679 1238 665 1238 l 811 1238 q 834 1228 825 1238 q 843 1206 843 1219 l 843 1074 q 834 1051 843 1060 q 811 1042 825 1042 l 679 1042 z "},"Ẁ":{"ha":1157,"x_min":44,"x_max":1113,"o":"m 250 0 q 212 13 226 0 q 194 46 197 26 l 46 935 q 44 943 44 938 q 53 963 44 954 q 74 972 63 972 l 256 972 q 300 940 296 972 l 385 415 l 481 719 q 526 757 492 757 l 631 757 q 676 719 665 757 l 772 417 l 858 940 q 871 965 861 957 q 901 972 881 972 l 1083 972 q 1104 963 1096 972 q 1113 943 1113 954 l 1113 935 l 964 46 q 946 13 961 26 q 908 0 931 0 l 768 0 q 733 11 746 0 q 717 36 721 22 l 579 421 l 442 36 q 424 11 436 22 q 389 0 411 0 l 250 0 m 531 1042 q 501 1047 513 1042 q 476 1063 490 1051 l 290 1215 q 283 1232 283 1222 q 290 1252 283 1244 q 310 1260 297 1260 l 513 1260 q 540 1255 531 1260 q 564 1233 550 1250 l 689 1082 q 696 1064 696 1075 q 674 1042 696 1042 l 531 1042 z "},"X":{"ha":967,"x_min":14,"x_max":953,"o":"m 43 0 q 23 9 32 0 q 14 29 14 18 q 18 46 14 38 l 321 496 l 42 926 q 38 943 38 935 q 47 963 38 954 q 67 972 56 972 l 279 972 q 329 942 310 972 l 486 700 l 649 942 q 697 972 668 972 l 900 972 q 920 963 911 972 q 929 943 929 954 q 925 926 929 935 l 643 499 l 949 46 q 953 29 953 38 q 944 9 953 18 q 924 0 935 0 l 704 0 q 656 28 674 0 l 478 286 l 304 28 q 256 0 286 0 l 43 0 z "},"Y":{"ha":950,"x_min":19,"x_max":931,"o":"m 379 0 q 355 10 365 0 q 344 35 344 21 l 344 331 l 24 928 q 19 943 19 935 q 28 963 19 954 q 49 972 38 972 l 232 972 q 264 963 251 972 q 282 942 276 953 l 475 593 l 668 942 q 686 963 674 953 q 718 972 699 972 l 901 972 q 922 963 913 972 q 931 943 931 954 q 926 928 931 935 l 606 331 l 606 35 q 595 10 606 19 q 569 0 585 0 l 379 0 z "},"Ý":{"ha":950,"x_min":19,"x_max":931,"o":"m 379 0 q 355 10 365 0 q 344 35 344 21 l 344 331 l 24 928 q 19 943 19 935 q 28 963 19 954 q 49 972 38 972 l 232 972 q 264 963 251 972 q 282 942 276 953 l 475 593 l 668 942 q 686 963 674 953 q 718 972 699 972 l 901 972 q 922 963 913 972 q 931 943 931 954 q 926 928 931 935 l 606 331 l 606 35 q 595 10 606 19 q 569 0 585 0 l 379 0 m 383 1042 q 361 1064 361 1042 q 368 1082 361 1075 l 492 1233 q 516 1255 506 1250 q 543 1260 526 1260 l 746 1260 q 765 1252 758 1260 q 772 1232 772 1244 q 765 1215 772 1222 l 579 1063 q 554 1047 565 1051 q 526 1042 543 1042 l 383 1042 z "},"Ŷ":{"ha":950,"x_min":19,"x_max":931,"o":"m 379 0 q 355 10 365 0 q 344 35 344 21 l 344 331 l 24 928 q 19 943 19 935 q 28 963 19 954 q 49 972 38 972 l 232 972 q 264 963 251 972 q 282 942 276 953 l 475 593 l 668 942 q 686 963 674 953 q 718 972 699 972 l 901 972 q 922 963 913 972 q 931 943 931 954 q 926 928 931 935 l 606 331 l 606 35 q 595 10 606 19 q 569 0 585 0 l 379 0 m 231 1042 q 210 1061 210 1042 q 219 1083 210 1074 l 364 1235 q 388 1254 378 1249 q 413 1260 399 1260 l 538 1260 q 562 1254 551 1260 q 586 1235 572 1249 l 731 1083 q 740 1061 740 1074 q 719 1042 740 1042 l 646 1042 q 597 1051 615 1042 l 475 1118 l 353 1051 q 304 1042 335 1042 l 231 1042 z "},"Ÿ":{"ha":950,"x_min":19,"x_max":931,"o":"m 379 0 q 355 10 365 0 q 344 35 344 21 l 344 331 l 24 928 q 19 943 19 935 q 28 963 19 954 q 49 972 38 972 l 232 972 q 264 963 251 972 q 282 942 276 953 l 475 593 l 668 942 q 686 963 674 953 q 718 972 699 972 l 901 972 q 922 963 913 972 q 931 943 931 954 q 926 928 931 935 l 606 331 l 606 35 q 595 10 606 19 q 569 0 585 0 l 379 0 m 240 1042 q 218 1051 226 1042 q 210 1074 210 1060 l 210 1206 q 218 1228 210 1219 q 240 1238 226 1238 l 374 1238 q 397 1228 388 1238 q 406 1206 406 1219 l 406 1074 q 397 1051 406 1060 q 374 1042 388 1042 l 240 1042 m 575 1042 q 552 1051 561 1042 q 543 1074 543 1060 l 543 1206 q 552 1228 543 1219 q 575 1238 561 1238 l 707 1238 q 730 1228 721 1238 q 739 1206 739 1219 l 739 1074 q 730 1051 739 1060 q 707 1042 721 1042 l 575 1042 z "},"Ỳ":{"ha":950,"x_min":19,"x_max":931,"o":"m 379 0 q 355 10 365 0 q 344 35 344 21 l 344 331 l 24 928 q 19 943 19 935 q 28 963 19 954 q 49 972 38 972 l 232 972 q 264 963 251 972 q 282 942 276 953 l 475 593 l 668 942 q 686 963 674 953 q 718 972 699 972 l 901 972 q 922 963 913 972 q 931 943 931 954 q 926 928 931 935 l 606 331 l 606 35 q 595 10 606 19 q 569 0 585 0 l 379 0 m 426 1042 q 397 1047 408 1042 q 372 1063 386 1051 l 186 1215 q 179 1232 179 1222 q 186 1252 179 1244 q 206 1260 193 1260 l 408 1260 q 436 1255 426 1260 q 460 1233 446 1250 l 585 1082 q 592 1064 592 1075 q 569 1042 592 1042 l 426 1042 z "},"Z":{"ha":910,"x_min":51,"x_max":860,"o":"m 88 0 q 62 10 72 0 q 51 36 51 21 l 51 178 q 57 206 51 196 q 72 228 63 215 l 514 757 l 100 757 q 76 767 86 757 q 65 792 65 778 l 65 936 q 75 962 65 951 q 100 972 85 972 l 807 972 q 833 962 822 972 q 843 936 843 951 l 843 796 q 825 749 843 769 l 399 218 l 824 218 q 849 208 839 218 q 860 182 860 197 l 860 35 q 849 10 860 19 q 824 0 839 0 l 88 0 z "},"Ź":{"ha":910,"x_min":51,"x_max":860,"o":"m 88 0 q 62 10 72 0 q 51 36 51 21 l 51 178 q 57 206 51 196 q 72 228 63 215 l 514 757 l 100 757 q 76 767 86 757 q 65 792 65 778 l 65 936 q 75 962 65 951 q 100 972 85 972 l 807 972 q 833 962 822 972 q 843 936 843 951 l 843 796 q 825 749 843 769 l 399 218 l 824 218 q 849 208 839 218 q 860 182 860 197 l 860 35 q 849 10 860 19 q 824 0 839 0 l 88 0 m 350 1042 q 328 1064 328 1042 q 335 1082 328 1075 l 458 1233 q 483 1255 472 1250 q 510 1260 493 1260 l 713 1260 q 732 1252 725 1260 q 739 1232 739 1244 q 732 1215 739 1222 l 546 1063 q 521 1047 532 1051 q 493 1042 510 1042 l 350 1042 z "},"Ž":{"ha":910,"x_min":51,"x_max":860,"o":"m 88 0 q 62 10 72 0 q 51 36 51 21 l 51 178 q 57 206 51 196 q 72 228 63 215 l 514 757 l 100 757 q 76 767 86 757 q 65 792 65 778 l 65 936 q 75 962 65 951 q 100 972 85 972 l 807 972 q 833 962 822 972 q 843 936 843 951 l 843 796 q 825 749 843 769 l 399 218 l 824 218 q 849 208 839 218 q 860 182 860 197 l 860 35 q 849 10 860 19 q 824 0 839 0 l 88 0 m 379 1042 q 354 1047 365 1042 q 331 1065 343 1051 l 186 1218 q 176 1239 176 1228 q 197 1260 176 1260 l 271 1260 q 319 1250 301 1260 l 442 1183 l 564 1250 q 613 1260 582 1260 l 686 1260 q 707 1239 707 1260 q 697 1218 707 1228 l 553 1065 q 529 1047 540 1051 q 504 1042 518 1042 l 379 1042 z "},"Ż":{"ha":910,"x_min":51,"x_max":860,"o":"m 88 0 q 62 10 72 0 q 51 36 51 21 l 51 178 q 57 206 51 196 q 72 228 63 215 l 514 757 l 100 757 q 76 767 86 757 q 65 792 65 778 l 65 936 q 75 962 65 951 q 100 972 85 972 l 807 972 q 833 962 822 972 q 843 936 843 951 l 843 796 q 825 749 843 769 l 399 218 l 824 218 q 849 208 839 218 q 860 182 860 197 l 860 35 q 849 10 860 19 q 824 0 839 0 l 88 0 m 367 1042 q 344 1051 353 1042 q 336 1074 336 1060 l 336 1221 q 344 1244 336 1235 q 367 1253 353 1253 l 515 1253 q 538 1244 529 1253 q 547 1221 547 1235 l 547 1074 q 538 1051 547 1060 q 515 1042 529 1042 l 367 1042 z "},"a":{"ha":824,"x_min":35,"x_max":751,"o":"m 297 -14 q 163 15 224 -14 q 69 93 103 43 q 35 203 35 143 q 113 356 35 297 q 329 438 192 415 l 501 464 l 501 481 q 481 556 501 532 q 410 579 460 579 q 363 569 382 579 q 321 540 344 560 q 289 518 303 525 q 275 508 283 508 l 114 508 q 91 517 100 508 q 83 539 82 526 q 121 623 85 576 q 231 703 157 669 q 413 736 304 736 q 668 660 585 736 q 751 456 751 585 l 751 35 q 742 10 751 21 q 717 0 732 0 l 546 0 q 522 10 532 0 q 511 35 511 21 l 511 83 q 426 13 481 40 q 297 -14 372 -14 m 367 150 q 466 190 428 150 q 504 307 504 231 l 504 324 l 389 304 q 272 221 272 282 q 299 169 272 189 q 367 150 326 150 z "},"á":{"ha":824,"x_min":35,"x_max":751,"o":"m 297 -14 q 163 15 224 -14 q 69 93 103 43 q 35 203 35 143 q 113 356 35 297 q 329 438 192 415 l 501 464 l 501 481 q 481 556 501 532 q 410 579 460 579 q 363 569 382 579 q 321 540 344 560 q 289 518 303 525 q 275 508 283 508 l 114 508 q 91 517 100 508 q 83 539 82 526 q 121 623 85 576 q 231 703 157 669 q 413 736 304 736 q 668 660 585 736 q 751 456 751 585 l 751 35 q 742 10 751 21 q 717 0 732 0 l 546 0 q 522 10 532 0 q 511 35 511 21 l 511 83 q 426 13 481 40 q 297 -14 372 -14 m 367 150 q 466 190 428 150 q 504 307 504 231 l 504 324 l 389 304 q 272 221 272 282 q 299 169 272 189 q 367 150 326 150 m 319 826 q 297 849 297 826 q 304 867 297 860 l 428 1018 q 452 1040 442 1035 q 479 1044 463 1044 l 671 1044 q 690 1037 683 1044 q 697 1017 697 1029 q 690 1000 697 1007 l 504 847 q 479 831 490 836 q 450 826 468 826 l 319 826 z "},"ă":{"ha":824,"x_min":35,"x_max":751,"o":"m 297 -14 q 163 15 224 -14 q 69 93 103 43 q 35 203 35 143 q 113 356 35 297 q 329 438 192 415 l 501 464 l 501 481 q 481 556 501 532 q 410 579 460 579 q 363 569 382 579 q 321 540 344 560 q 289 518 303 525 q 275 508 283 508 l 114 508 q 91 517 100 508 q 83 539 82 526 q 121 623 85 576 q 231 703 157 669 q 413 736 304 736 q 668 660 585 736 q 751 456 751 585 l 751 35 q 742 10 751 21 q 717 0 732 0 l 546 0 q 522 10 532 0 q 511 35 511 21 l 511 83 q 426 13 481 40 q 297 -14 372 -14 m 367 150 q 466 190 428 150 q 504 307 504 231 l 504 324 l 389 304 q 272 221 272 282 q 299 169 272 189 q 367 150 326 150 m 407 819 q 250 875 304 819 q 196 1018 196 931 q 203 1037 196 1029 q 222 1044 210 1044 l 317 1044 q 336 1037 329 1044 q 343 1018 343 1029 q 407 936 343 936 q 469 1018 469 936 q 476 1037 469 1029 q 496 1044 483 1044 l 590 1044 q 610 1037 603 1044 q 617 1018 617 1029 q 563 875 617 931 q 407 819 508 819 z "},"â":{"ha":824,"x_min":35,"x_max":751,"o":"m 297 -14 q 163 15 224 -14 q 69 93 103 43 q 35 203 35 143 q 113 356 35 297 q 329 438 192 415 l 501 464 l 501 481 q 481 556 501 532 q 410 579 460 579 q 363 569 382 579 q 321 540 344 560 q 289 518 303 525 q 275 508 283 508 l 114 508 q 91 517 100 508 q 83 539 82 526 q 121 623 85 576 q 231 703 157 669 q 413 736 304 736 q 668 660 585 736 q 751 456 751 585 l 751 35 q 742 10 751 21 q 717 0 732 0 l 546 0 q 522 10 532 0 q 511 35 511 21 l 511 83 q 426 13 481 40 q 297 -14 372 -14 m 367 150 q 466 190 428 150 q 504 307 504 231 l 504 324 l 389 304 q 272 221 272 282 q 299 169 272 189 q 367 150 326 150 m 167 826 q 146 846 146 826 q 156 868 146 858 l 300 1019 q 324 1039 314 1033 q 349 1044 335 1044 l 464 1044 q 490 1040 479 1044 q 514 1019 500 1035 l 657 868 q 668 846 668 857 q 646 826 668 826 l 578 826 q 529 836 547 826 l 407 903 l 285 836 q 236 826 267 826 l 167 826 z "},"ä":{"ha":824,"x_min":35,"x_max":751,"o":"m 297 -14 q 163 15 224 -14 q 69 93 103 43 q 35 203 35 143 q 113 356 35 297 q 329 438 192 415 l 501 464 l 501 481 q 481 556 501 532 q 410 579 460 579 q 363 569 382 579 q 321 540 344 560 q 289 518 303 525 q 275 508 283 508 l 114 508 q 91 517 100 508 q 83 539 82 526 q 121 623 85 576 q 231 703 157 669 q 413 736 304 736 q 668 660 585 736 q 751 456 751 585 l 751 35 q 742 10 751 21 q 717 0 732 0 l 546 0 q 522 10 532 0 q 511 35 511 21 l 511 83 q 426 13 481 40 q 297 -14 372 -14 m 367 150 q 466 190 428 150 q 504 307 504 231 l 504 324 l 389 304 q 272 221 272 282 q 299 169 272 189 q 367 150 326 150 m 196 842 q 174 850 182 842 q 165 872 165 858 l 165 1006 q 174 1028 165 1019 q 196 1038 182 1038 l 329 1038 q 352 1028 343 1038 q 361 1006 361 1019 l 361 872 q 352 850 361 858 q 329 842 343 842 l 196 842 m 489 842 q 466 850 475 842 q 457 872 457 858 l 457 1006 q 466 1028 457 1019 q 489 1038 475 1038 l 621 1038 q 644 1028 635 1038 q 653 1006 653 1019 l 653 872 q 644 850 653 858 q 621 842 635 842 l 489 842 z "},"à":{"ha":824,"x_min":35,"x_max":751,"o":"m 297 -14 q 163 15 224 -14 q 69 93 103 43 q 35 203 35 143 q 113 356 35 297 q 329 438 192 415 l 501 464 l 501 481 q 481 556 501 532 q 410 579 460 579 q 363 569 382 579 q 321 540 344 560 q 289 518 303 525 q 275 508 283 508 l 114 508 q 91 517 100 508 q 83 539 82 526 q 121 623 85 576 q 231 703 157 669 q 413 736 304 736 q 668 660 585 736 q 751 456 751 585 l 751 35 q 742 10 751 21 q 717 0 732 0 l 546 0 q 522 10 532 0 q 511 35 511 21 l 511 83 q 426 13 481 40 q 297 -14 372 -14 m 367 150 q 466 190 428 150 q 504 307 504 231 l 504 324 l 389 304 q 272 221 272 282 q 299 169 272 189 q 367 150 326 150 m 363 826 q 335 831 346 826 q 310 847 324 836 l 124 1000 q 117 1017 117 1007 q 124 1037 117 1029 q 143 1044 131 1044 l 333 1044 q 361 1040 351 1044 q 385 1018 371 1035 l 510 867 q 517 849 517 860 q 494 826 517 826 l 363 826 z "},"ā":{"ha":824,"x_min":35,"x_max":751,"o":"m 297 -14 q 163 15 224 -14 q 69 93 103 43 q 35 203 35 143 q 113 356 35 297 q 329 438 192 415 l 501 464 l 501 481 q 481 556 501 532 q 410 579 460 579 q 363 569 382 579 q 321 540 344 560 q 289 518 303 525 q 275 508 283 508 l 114 508 q 91 517 100 508 q 83 539 82 526 q 121 623 85 576 q 231 703 157 669 q 413 736 304 736 q 668 660 585 736 q 751 456 751 585 l 751 35 q 742 10 751 21 q 717 0 732 0 l 546 0 q 522 10 532 0 q 511 35 511 21 l 511 83 q 426 13 481 40 q 297 -14 372 -14 m 367 150 q 466 190 428 150 q 504 307 504 231 l 504 324 l 389 304 q 272 221 272 282 q 299 169 272 189 q 367 150 326 150 m 210 839 q 188 848 196 839 q 179 871 179 857 l 179 974 q 188 996 179 988 q 210 1004 196 1004 l 606 1004 q 628 996 619 1004 q 636 974 636 988 l 636 871 q 628 848 636 857 q 606 839 619 839 l 210 839 z "},"ą":{"ha":824,"x_min":35,"x_max":751,"o":"m 699 -306 q 542 -246 597 -306 q 488 -87 488 -186 q 500 -29 488 -57 q 529 17 513 -1 q 516 26 521 18 q 511 43 511 33 l 511 83 q 426 13 481 40 q 297 -14 372 -14 q 163 15 224 -14 q 69 93 103 43 q 35 203 35 143 q 113 356 35 297 q 329 438 192 415 l 501 464 l 501 481 q 481 556 501 532 q 410 579 460 579 q 363 569 382 579 q 321 540 344 560 q 289 518 303 525 q 275 508 283 508 l 114 508 q 91 517 100 508 q 83 539 82 526 q 121 623 85 576 q 231 703 157 669 q 413 736 304 736 q 668 660 585 736 q 751 456 751 585 l 751 35 q 742 12 751 22 q 719 0 733 1 l 704 0 q 649 -31 667 -8 q 632 -87 632 -54 q 650 -144 632 -122 q 704 -167 668 -167 l 717 -167 q 742 -177 732 -167 q 751 -201 751 -187 l 751 -271 q 742 -296 751 -286 q 717 -306 732 -306 l 699 -306 m 367 150 q 466 190 428 150 q 504 307 504 231 l 504 324 l 389 304 q 272 221 272 282 q 299 169 272 189 q 367 150 326 150 z "},"å":{"ha":824,"x_min":35,"x_max":751,"o":"m 297 -14 q 163 15 224 -14 q 69 93 103 43 q 35 203 35 143 q 113 356 35 297 q 329 438 192 415 l 501 464 l 501 481 q 481 556 501 532 q 410 579 460 579 q 363 569 382 579 q 321 540 344 560 q 289 518 303 525 q 275 508 283 508 l 114 508 q 91 517 100 508 q 83 539 82 526 q 121 623 85 576 q 231 703 157 669 q 413 736 304 736 q 668 660 585 736 q 751 456 751 585 l 751 35 q 742 10 751 21 q 717 0 732 0 l 546 0 q 522 10 532 0 q 511 35 511 21 l 511 83 q 426 13 481 40 q 297 -14 372 -14 m 367 150 q 466 190 428 150 q 504 307 504 231 l 504 324 l 389 304 q 272 221 272 282 q 299 169 272 189 q 367 150 326 150 m 407 819 q 315 854 353 819 q 278 942 278 889 q 315 1030 278 994 q 407 1065 353 1065 q 499 1030 461 1065 q 536 942 536 994 q 499 854 536 889 q 407 819 461 819 m 407 900 q 437 912 425 900 q 449 942 449 924 q 437 972 449 960 q 407 983 425 983 q 377 972 389 983 q 365 942 365 960 q 377 912 365 924 q 407 900 389 900 z "},"ã":{"ha":824,"x_min":35,"x_max":751,"o":"m 297 -14 q 163 15 224 -14 q 69 93 103 43 q 35 203 35 143 q 113 356 35 297 q 329 438 192 415 l 501 464 l 501 481 q 481 556 501 532 q 410 579 460 579 q 363 569 382 579 q 321 540 344 560 q 289 518 303 525 q 275 508 283 508 l 114 508 q 91 517 100 508 q 83 539 82 526 q 121 623 85 576 q 231 703 157 669 q 413 736 304 736 q 668 660 585 736 q 751 456 751 585 l 751 35 q 742 10 751 21 q 717 0 732 0 l 546 0 q 522 10 532 0 q 511 35 511 21 l 511 83 q 426 13 481 40 q 297 -14 372 -14 m 367 150 q 466 190 428 150 q 504 307 504 231 l 504 324 l 389 304 q 272 221 272 282 q 299 169 272 189 q 367 150 326 150 m 492 819 q 446 826 464 819 q 399 847 428 833 q 340 868 365 868 q 319 863 326 868 q 303 846 311 857 q 290 831 296 836 q 275 826 285 826 l 189 826 q 172 833 179 826 q 164 850 164 840 q 180 928 164 886 q 231 999 196 969 q 322 1029 267 1029 q 369 1022 350 1029 q 415 1001 389 1015 q 447 985 435 990 q 474 981 458 981 q 495 986 488 981 q 511 1004 503 992 q 524 1019 518 1014 q 539 1024 529 1024 l 626 1024 q 644 1016 638 1024 q 651 999 651 1008 q 635 921 651 963 q 583 849 618 879 q 492 819 547 819 z "},"æ":{"ha":1274,"x_min":36,"x_max":1226,"o":"m 317 -14 q 168 15 232 -14 q 70 92 104 43 q 36 203 36 142 q 114 357 36 297 q 331 439 192 417 l 501 465 l 501 482 q 481 556 501 532 q 411 579 461 579 q 363 569 382 579 q 321 540 344 560 q 289 518 303 525 q 275 508 283 508 l 114 508 q 92 517 100 508 q 83 539 83 526 q 119 623 83 576 q 230 703 156 669 q 413 736 304 736 q 640 661 569 736 q 863 736 731 736 q 1071 683 989 736 q 1190 547 1153 631 q 1226 365 1226 463 l 1226 331 q 1216 305 1226 315 q 1190 294 1206 294 l 754 294 l 754 286 q 785 182 756 217 q 861 147 814 147 q 953 194 915 147 q 972 212 964 208 q 997 215 981 215 l 1178 215 q 1199 207 1190 215 q 1207 186 1207 199 q 1167 103 1207 151 q 1049 21 1126 56 q 863 -14 971 -14 q 707 14 775 -14 q 594 93 639 42 q 317 -14 497 -14 m 971 436 l 971 442 q 943 543 971 507 q 863 579 915 579 q 785 544 815 579 q 754 442 756 510 l 754 436 l 971 436 m 367 150 q 467 190 429 150 q 504 307 504 229 l 504 324 l 390 304 q 272 221 272 282 q 299 169 272 189 q 367 150 326 150 z "},"ǽ":{"ha":1274,"x_min":36,"x_max":1226,"o":"m 558 826 q 536 849 536 826 q 543 867 536 860 l 667 1018 q 691 1040 681 1035 q 718 1044 701 1044 l 910 1044 q 929 1037 922 1044 q 936 1017 936 1029 q 929 1000 936 1007 l 743 847 q 718 831 729 836 q 689 826 707 826 l 558 826 m 317 -14 q 168 15 232 -14 q 70 92 104 43 q 36 203 36 142 q 114 357 36 297 q 331 439 192 417 l 501 465 l 501 482 q 481 556 501 532 q 411 579 461 579 q 363 569 382 579 q 321 540 344 560 q 289 518 303 525 q 275 508 283 508 l 114 508 q 92 517 100 508 q 83 539 83 526 q 119 623 83 576 q 230 703 156 669 q 413 736 304 736 q 640 661 569 736 q 863 736 731 736 q 1071 683 989 736 q 1190 547 1153 631 q 1226 365 1226 463 l 1226 331 q 1216 305 1226 315 q 1190 294 1206 294 l 754 294 l 754 286 q 785 182 756 217 q 861 147 814 147 q 953 194 915 147 q 972 212 964 208 q 997 215 981 215 l 1178 215 q 1199 207 1190 215 q 1207 186 1207 199 q 1167 103 1207 151 q 1049 21 1126 56 q 863 -14 971 -14 q 707 14 775 -14 q 594 93 639 42 q 317 -14 497 -14 m 971 436 l 971 442 q 943 543 971 507 q 863 579 915 579 q 785 544 815 579 q 754 442 756 510 l 754 436 l 971 436 m 367 150 q 467 190 429 150 q 504 307 504 229 l 504 324 l 390 304 q 272 221 272 282 q 299 169 272 189 q 367 150 326 150 z "},"b":{"ha":881,"x_min":79,"x_max":826,"o":"m 531 -14 q 315 78 390 -14 l 315 35 q 306 10 315 21 q 281 0 296 0 l 115 0 q 90 10 100 0 q 79 35 79 19 l 79 951 q 90 976 79 967 q 115 986 100 986 l 294 986 q 319 976 310 986 q 329 951 329 967 l 329 656 q 531 736 406 736 q 742 649 664 736 q 825 411 819 563 q 826 361 826 393 q 825 313 826 331 q 742 71 819 156 q 531 -14 665 -14 m 450 179 q 540 216 513 179 q 571 318 567 253 q 572 361 572 332 q 571 404 572 390 q 540 506 567 469 q 450 543 513 543 q 362 508 392 543 q 329 418 332 472 q 328 367 328 400 q 329 314 328 333 q 361 217 332 256 q 450 179 390 179 z "},"c":{"ha":824,"x_min":53,"x_max":785,"o":"m 415 -14 q 159 70 257 -14 q 54 304 61 154 l 53 360 l 54 417 q 158 651 60 567 q 415 736 257 736 q 618 693 536 736 q 740 591 700 650 q 783 483 781 532 q 774 458 785 468 q 747 447 763 447 l 561 447 q 538 454 546 447 q 522 476 529 461 q 483 533 507 515 q 421 551 458 551 q 310 410 314 551 l 308 357 l 310 311 q 339 205 311 239 q 421 171 367 171 q 484 188 461 171 q 522 246 507 206 q 538 268 529 261 q 561 275 546 275 l 747 275 q 772 265 761 275 q 783 242 783 256 q 745 138 783 199 q 624 32 707 78 q 415 -14 540 -14 z "},"ć":{"ha":824,"x_min":53,"x_max":783,"o":"m 415 -14 q 159 70 257 -14 q 54 304 61 154 l 53 360 l 54 417 q 158 651 60 567 q 415 736 257 736 q 618 693 536 736 q 740 591 700 650 q 783 483 781 532 q 774 458 785 468 q 747 447 763 447 l 561 447 q 538 454 546 447 q 522 476 529 461 q 483 533 507 515 q 421 551 458 551 q 310 410 314 551 l 308 357 l 310 311 q 339 205 311 239 q 421 171 367 171 q 484 188 461 171 q 522 246 507 206 q 538 268 529 261 q 561 275 546 275 l 747 275 q 772 265 761 275 q 783 242 783 256 q 745 138 783 199 q 624 32 707 78 q 415 -14 540 -14 m 332 826 q 310 849 310 826 q 317 867 310 860 l 440 1018 q 465 1040 454 1035 q 492 1044 475 1044 l 683 1044 q 703 1037 696 1044 q 710 1017 710 1029 q 703 1000 710 1007 l 517 847 q 492 831 503 836 q 463 826 481 826 l 332 826 z "},"č":{"ha":824,"x_min":53,"x_max":783,"o":"m 415 -14 q 159 70 257 -14 q 54 304 61 154 l 53 360 l 54 417 q 158 651 60 567 q 415 736 257 736 q 618 693 536 736 q 740 591 700 650 q 783 483 781 532 q 774 458 785 468 q 747 447 763 447 l 561 447 q 538 454 546 447 q 522 476 529 461 q 483 533 507 515 q 421 551 458 551 q 310 410 314 551 l 308 357 l 310 311 q 339 205 311 239 q 421 171 367 171 q 484 188 461 171 q 522 246 507 206 q 538 268 529 261 q 561 275 546 275 l 747 275 q 772 265 761 275 q 783 242 783 256 q 745 138 783 199 q 624 32 707 78 q 415 -14 540 -14 m 360 826 q 335 831 346 826 q 311 850 324 836 l 167 1003 q 157 1024 157 1013 q 178 1044 157 1044 l 247 1044 q 296 1035 278 1044 l 418 968 l 540 1035 q 589 1044 558 1044 l 657 1044 q 679 1024 679 1044 q 668 1003 679 1014 l 525 850 q 501 831 511 836 q 475 826 490 826 l 360 826 z "},"ç":{"ha":824,"x_min":53,"x_max":785,"o":"m 415 -306 q 335 -287 371 -306 q 299 -249 299 -268 q 306 -235 299 -242 l 332 -212 q 347 -206 339 -206 q 372 -215 353 -206 q 415 -224 392 -224 q 449 -212 436 -224 q 461 -182 461 -200 q 449 -154 461 -165 q 415 -143 436 -143 q 384 -148 403 -143 q 358 -153 365 -153 q 338 -144 346 -153 l 311 -117 q 303 -100 303 -108 q 311 -72 303 -89 l 339 -8 q 136 92 213 11 q 54 304 60 174 l 53 360 l 54 417 q 158 651 60 567 q 415 736 257 736 q 618 693 536 736 q 740 591 700 650 q 783 483 781 532 q 774 458 785 468 q 747 447 763 447 l 561 447 q 538 454 546 447 q 522 476 529 461 q 483 533 507 515 q 421 551 458 551 q 310 410 314 551 l 308 357 l 310 311 q 339 205 311 239 q 421 171 367 171 q 484 188 461 171 q 522 246 507 206 q 538 268 529 261 q 561 275 546 275 l 747 275 q 772 265 761 275 q 783 242 783 256 q 745 139 783 199 q 626 33 707 79 q 422 -14 544 -12 l 394 -68 q 417 -62 404 -64 q 440 -60 431 -60 q 520 -94 490 -60 q 550 -182 550 -128 q 514 -271 550 -236 q 415 -306 478 -306 z "},"ĉ":{"ha":824,"x_min":53,"x_max":783,"o":"m 415 -14 q 159 70 257 -14 q 54 304 61 154 l 53 360 l 54 417 q 158 651 60 567 q 415 736 257 736 q 618 693 536 736 q 740 591 700 650 q 783 483 781 532 q 774 458 785 468 q 747 447 763 447 l 561 447 q 538 454 546 447 q 522 476 529 461 q 483 533 507 515 q 421 551 458 551 q 310 410 314 551 l 308 357 l 310 311 q 339 205 311 239 q 421 171 367 171 q 484 188 461 171 q 522 246 507 206 q 538 268 529 261 q 561 275 546 275 l 747 275 q 772 265 761 275 q 783 242 783 256 q 745 138 783 199 q 624 32 707 78 q 415 -14 540 -14 m 178 831 q 157 850 157 831 q 167 872 157 863 l 311 1024 q 335 1043 325 1038 q 360 1049 346 1049 l 475 1049 q 501 1044 490 1049 q 525 1024 511 1039 l 668 872 q 679 850 679 861 q 657 831 679 831 l 589 831 q 540 840 558 831 l 418 907 l 296 840 q 247 831 278 831 l 178 831 z "},"ċ":{"ha":824,"x_min":53,"x_max":783,"o":"m 415 -14 q 159 70 257 -14 q 54 304 61 154 l 53 360 l 54 417 q 158 651 60 567 q 415 736 257 736 q 618 693 536 736 q 740 591 700 650 q 783 483 781 532 q 774 458 785 468 q 747 447 763 447 l 561 447 q 538 454 546 447 q 522 476 529 461 q 483 533 507 515 q 421 551 458 551 q 310 410 314 551 l 308 357 l 310 311 q 339 205 311 239 q 421 171 367 171 q 484 188 461 171 q 522 246 507 206 q 538 268 529 261 q 561 275 546 275 l 747 275 q 772 265 761 275 q 783 242 783 256 q 745 138 783 199 q 624 32 707 78 q 415 -14 540 -14 m 346 836 q 324 845 332 836 q 315 868 315 854 l 315 1011 q 324 1034 315 1025 q 346 1043 332 1043 l 490 1043 q 513 1034 504 1043 q 522 1011 522 1025 l 522 868 q 513 845 522 854 q 490 836 504 836 l 346 836 z "},"d":{"ha":881,"x_min":54,"x_max":801,"o":"m 350 -14 q 138 71 215 -14 q 56 313 61 156 l 54 361 l 56 411 q 139 649 61 563 q 350 736 217 736 q 551 656 475 736 l 551 951 q 562 976 551 967 q 586 986 572 986 l 765 986 q 791 976 781 986 q 801 951 801 967 l 801 35 q 791 10 801 19 q 765 0 781 0 l 600 0 q 576 10 586 0 q 565 35 565 21 l 565 78 q 350 -14 490 -14 m 431 179 q 519 217 490 179 q 551 314 549 256 q 554 367 554 353 q 551 418 554 382 q 519 508 549 472 q 431 543 489 543 q 341 506 368 543 q 310 404 314 469 l 308 361 l 310 318 q 341 216 314 253 q 431 179 368 179 z "},"ð":{"ha":846,"x_min":49,"x_max":790,"o":"m 419 -14 q 148 74 247 -14 q 49 319 49 161 q 95 499 49 424 q 226 614 142 575 q 419 653 310 653 q 493 635 460 653 q 435 742 469 696 l 282 682 q 265 678 271 678 q 245 685 253 678 q 238 706 238 693 l 238 740 q 244 767 238 758 q 268 782 251 775 l 365 819 q 250 915 322 863 q 231 943 231 929 q 239 964 231 956 q 260 972 247 972 l 443 972 q 510 954 483 972 l 531 936 q 550 920 539 929 q 572 900 561 911 l 699 949 q 714 953 710 953 q 735 945 726 953 q 743 925 743 938 l 743 890 q 736 864 743 872 q 713 849 729 856 l 646 822 q 747 631 711 739 q 789 374 783 522 q 790 344 790 365 q 789 314 790 324 q 686 72 783 158 q 419 -14 589 -14 m 419 161 q 504 197 476 161 q 533 293 532 233 q 535 319 535 303 q 533 344 535 335 q 505 442 532 406 q 419 478 478 478 q 333 442 360 478 q 304 344 306 406 l 303 319 l 304 293 q 333 197 306 232 q 419 161 361 161 z "},"ď":{"ha":881,"x_min":54,"x_max":1129,"o":"m 350 -14 q 138 71 215 -14 q 56 313 61 156 l 54 361 l 56 411 q 139 649 61 563 q 350 736 217 736 q 551 656 475 736 l 551 951 q 562 976 551 967 q 586 986 572 986 l 765 986 q 791 976 781 986 q 801 951 801 967 l 801 35 q 791 10 801 19 q 765 0 781 0 l 600 0 q 576 10 586 0 q 565 35 565 21 l 565 78 q 350 -14 490 -14 m 431 179 q 519 217 490 179 q 551 314 549 256 q 554 367 554 353 q 551 418 554 382 q 519 508 549 472 q 431 543 489 543 q 341 506 368 543 q 310 404 314 469 l 308 361 l 310 318 q 341 216 314 253 q 431 179 368 179 m 899 726 q 879 735 888 726 q 872 757 871 744 l 900 938 q 915 972 903 957 q 951 986 928 986 l 1101 986 q 1121 978 1113 986 q 1129 958 1129 969 q 1126 943 1129 957 l 1057 767 q 1037 738 1049 749 q 1004 726 1025 726 l 899 726 z "},"đ":{"ha":882,"x_min":54,"x_max":892,"o":"m 351 -14 q 138 73 213 -14 q 56 313 63 160 l 54 361 l 56 411 q 138 647 61 558 q 351 736 214 736 q 551 656 475 736 l 551 772 l 497 772 q 473 783 483 772 q 463 807 463 793 l 463 861 q 473 886 463 876 q 497 896 483 896 l 551 896 l 551 951 q 562 976 551 967 q 588 986 572 986 l 767 986 q 792 976 782 986 q 801 951 801 967 l 801 896 l 856 896 q 881 886 871 896 q 892 861 892 876 l 892 807 q 881 782 892 792 q 856 772 871 772 l 801 772 l 801 35 q 792 10 801 21 q 767 0 782 0 l 601 0 q 576 10 586 0 q 565 35 565 19 l 565 85 q 477 13 531 39 q 351 -14 424 -14 m 431 179 q 520 217 492 179 q 551 314 549 254 q 554 367 554 353 q 551 418 554 382 q 519 508 549 472 q 431 543 489 543 q 342 506 368 543 q 311 404 315 469 q 310 361 310 390 q 311 318 310 332 q 342 216 315 253 q 431 179 368 179 z "},"e":{"ha":829,"x_min":51,"x_max":783,"o":"m 418 -14 q 151 77 249 -14 q 51 342 54 168 l 51 385 q 154 643 57 550 q 417 736 251 736 q 619 688 536 736 q 742 556 701 640 q 783 365 783 472 l 783 331 q 773 305 783 315 q 747 294 763 294 l 307 294 l 307 286 q 336 185 308 224 q 415 147 364 147 q 469 160 449 147 q 507 194 489 174 q 527 212 519 208 q 551 215 535 215 l 733 215 q 755 208 746 215 q 764 189 764 200 q 723 104 764 153 q 603 21 682 56 q 418 -14 525 -14 m 528 436 l 528 439 q 499 542 528 506 q 417 579 469 579 q 335 542 364 579 q 307 439 307 506 l 307 436 l 528 436 z "},"é":{"ha":829,"x_min":51,"x_max":783,"o":"m 418 -14 q 151 77 249 -14 q 51 342 54 168 l 51 385 q 154 643 57 550 q 417 736 251 736 q 619 688 536 736 q 742 556 701 640 q 783 365 783 472 l 783 331 q 773 305 783 315 q 747 294 763 294 l 307 294 l 307 286 q 336 185 308 224 q 415 147 364 147 q 469 160 449 147 q 507 194 489 174 q 527 212 519 208 q 551 215 535 215 l 733 215 q 755 208 746 215 q 764 189 764 200 q 723 104 764 153 q 603 21 682 56 q 418 -14 525 -14 m 528 436 l 528 439 q 499 542 528 506 q 417 579 469 579 q 335 542 364 579 q 307 439 307 506 l 307 436 l 528 436 m 335 826 q 313 849 313 826 q 319 867 313 860 l 443 1018 q 467 1040 457 1035 q 494 1044 478 1044 l 686 1044 q 706 1037 699 1044 q 713 1017 713 1029 q 706 1000 713 1007 l 519 847 q 494 831 506 836 q 465 826 483 826 l 335 826 z "},"ĕ":{"ha":829,"x_min":51,"x_max":783,"o":"m 418 -14 q 151 77 249 -14 q 51 342 54 168 l 51 385 q 154 643 57 550 q 417 736 251 736 q 619 688 536 736 q 742 556 701 640 q 783 365 783 472 l 783 331 q 773 305 783 315 q 747 294 763 294 l 307 294 l 307 286 q 336 185 308 224 q 415 147 364 147 q 469 160 449 147 q 507 194 489 174 q 527 212 519 208 q 551 215 535 215 l 733 215 q 755 208 746 215 q 764 189 764 200 q 723 104 764 153 q 603 21 682 56 q 418 -14 525 -14 m 528 436 l 528 439 q 499 542 528 506 q 417 579 469 579 q 335 542 364 579 q 307 439 307 506 l 307 436 l 528 436 m 417 819 q 260 875 314 819 q 206 1018 206 931 q 213 1037 206 1029 q 232 1044 219 1044 l 326 1044 q 346 1037 339 1044 q 353 1018 353 1029 q 417 936 353 936 q 479 1018 479 936 q 486 1037 479 1029 q 506 1044 493 1044 l 600 1044 q 619 1037 613 1044 q 626 1018 626 1029 q 572 875 626 931 q 417 819 518 819 z "},"ě":{"ha":829,"x_min":51,"x_max":783,"o":"m 418 -14 q 151 77 249 -14 q 51 342 54 168 l 51 385 q 154 643 57 550 q 417 736 251 736 q 619 688 536 736 q 742 556 701 640 q 783 365 783 472 l 783 331 q 773 305 783 315 q 747 294 763 294 l 307 294 l 307 286 q 336 185 308 224 q 415 147 364 147 q 469 160 449 147 q 507 194 489 174 q 527 212 519 208 q 551 215 535 215 l 733 215 q 755 208 746 215 q 764 189 764 200 q 723 104 764 153 q 603 21 682 56 q 418 -14 525 -14 m 528 436 l 528 439 q 499 542 528 506 q 417 579 469 579 q 335 542 364 579 q 307 439 307 506 l 307 436 l 528 436 m 358 826 q 333 831 344 826 q 310 850 322 836 l 165 1003 q 156 1024 156 1013 q 176 1044 156 1044 l 246 1044 q 294 1035 276 1044 l 417 968 l 539 1035 q 588 1044 557 1044 l 656 1044 q 678 1024 678 1044 q 667 1003 678 1014 l 524 850 q 499 831 510 836 q 474 826 489 826 l 358 826 z "},"ê":{"ha":829,"x_min":51,"x_max":783,"o":"m 418 -14 q 151 77 249 -14 q 51 342 54 168 l 51 385 q 154 643 57 550 q 417 736 251 736 q 619 688 536 736 q 742 556 701 640 q 783 365 783 472 l 783 331 q 773 305 783 315 q 747 294 763 294 l 307 294 l 307 286 q 336 185 308 224 q 415 147 364 147 q 469 160 449 147 q 507 194 489 174 q 527 212 519 208 q 551 215 535 215 l 733 215 q 755 208 746 215 q 764 189 764 200 q 723 104 764 153 q 603 21 682 56 q 418 -14 525 -14 m 528 436 l 528 439 q 499 542 528 506 q 417 579 469 579 q 335 542 364 579 q 307 439 307 506 l 307 436 l 528 436 m 176 826 q 156 846 156 826 q 165 868 156 858 l 310 1019 q 334 1039 324 1033 q 358 1044 344 1044 l 474 1044 q 499 1040 489 1044 q 524 1019 510 1035 l 667 868 q 678 846 678 857 q 656 826 678 826 l 588 826 q 539 836 557 826 l 417 903 l 294 836 q 246 826 276 826 l 176 826 z "},"ë":{"ha":829,"x_min":51,"x_max":783,"o":"m 418 -14 q 151 77 249 -14 q 51 342 54 168 l 51 385 q 154 643 57 550 q 417 736 251 736 q 619 688 536 736 q 742 556 701 640 q 783 365 783 472 l 783 331 q 773 305 783 315 q 747 294 763 294 l 307 294 l 307 286 q 336 185 308 224 q 415 147 364 147 q 469 160 449 147 q 507 194 489 174 q 527 212 519 208 q 551 215 535 215 l 733 215 q 755 208 746 215 q 764 189 764 200 q 723 104 764 153 q 603 21 682 56 q 418 -14 525 -14 m 528 436 l 528 439 q 499 542 528 506 q 417 579 469 579 q 335 542 364 579 q 307 439 307 506 l 307 436 l 528 436 m 204 842 q 182 850 190 842 q 174 872 174 858 l 174 1006 q 182 1028 174 1019 q 204 1038 190 1038 l 338 1038 q 360 1028 351 1038 q 369 1006 369 1019 l 369 872 q 360 850 369 858 q 338 842 351 842 l 204 842 m 497 842 q 474 850 483 842 q 465 872 465 858 l 465 1006 q 474 1028 465 1019 q 497 1038 483 1038 l 629 1038 q 652 1028 643 1038 q 661 1006 661 1019 l 661 872 q 652 850 661 858 q 629 842 643 842 l 497 842 z "},"ė":{"ha":829,"x_min":51,"x_max":783,"o":"m 418 -14 q 151 77 249 -14 q 51 342 54 168 l 51 385 q 154 643 57 550 q 417 736 251 736 q 619 688 536 736 q 742 556 701 640 q 783 365 783 472 l 783 331 q 773 305 783 315 q 747 294 763 294 l 307 294 l 307 286 q 336 185 308 224 q 415 147 364 147 q 469 160 449 147 q 507 194 489 174 q 527 212 519 208 q 551 215 535 215 l 733 215 q 755 208 746 215 q 764 189 764 200 q 723 104 764 153 q 603 21 682 56 q 418 -14 525 -14 m 528 436 l 528 439 q 499 542 528 506 q 417 579 469 579 q 335 542 364 579 q 307 439 307 506 l 307 436 l 528 436 m 344 836 q 322 845 331 836 q 314 868 314 854 l 314 1011 q 322 1034 314 1025 q 344 1043 331 1043 l 489 1043 q 512 1034 503 1043 q 521 1011 521 1025 l 521 868 q 512 845 521 854 q 489 836 503 836 l 344 836 z "},"è":{"ha":829,"x_min":51,"x_max":783,"o":"m 418 -14 q 151 77 249 -14 q 51 342 54 168 l 51 385 q 154 643 57 550 q 417 736 251 736 q 619 688 536 736 q 742 556 701 640 q 783 365 783 472 l 783 331 q 773 305 783 315 q 747 294 763 294 l 307 294 l 307 286 q 336 185 308 224 q 415 147 364 147 q 469 160 449 147 q 507 194 489 174 q 527 212 519 208 q 551 215 535 215 l 733 215 q 755 208 746 215 q 764 189 764 200 q 723 104 764 153 q 603 21 682 56 q 418 -14 525 -14 m 528 436 l 528 439 q 499 542 528 506 q 417 579 469 579 q 335 542 364 579 q 307 439 307 506 l 307 436 l 528 436 m 372 826 q 344 831 356 826 q 319 847 333 836 l 133 1000 q 126 1017 126 1007 q 133 1037 126 1029 q 153 1044 140 1044 l 343 1044 q 371 1040 361 1044 q 394 1018 381 1035 l 519 867 q 526 849 526 860 q 504 826 526 826 l 372 826 z "},"ē":{"ha":829,"x_min":51,"x_max":783,"o":"m 418 -14 q 151 77 249 -14 q 51 342 54 168 l 51 385 q 154 643 57 550 q 417 736 251 736 q 619 688 536 736 q 742 556 701 640 q 783 365 783 472 l 783 331 q 773 305 783 315 q 747 294 763 294 l 307 294 l 307 286 q 336 185 308 224 q 415 147 364 147 q 469 160 449 147 q 507 194 489 174 q 527 212 519 208 q 551 215 535 215 l 733 215 q 755 208 746 215 q 764 189 764 200 q 723 104 764 153 q 603 21 682 56 q 418 -14 525 -14 m 528 436 l 528 439 q 499 542 528 506 q 417 579 469 579 q 335 542 364 579 q 307 439 307 506 l 307 436 l 528 436 m 219 839 q 197 848 206 839 q 189 871 189 857 l 189 974 q 197 996 189 988 q 219 1004 206 1004 l 615 1004 q 638 996 629 1004 q 646 974 646 988 l 646 871 q 638 848 646 857 q 615 839 629 839 l 219 839 z "},"ę":{"ha":831,"x_min":51,"x_max":783,"o":"m 492 -306 q 327 -244 383 -306 q 271 -83 271 -183 q 286 1 271 -36 q 115 119 176 32 q 51 342 54 206 l 51 383 q 154 643 57 550 q 417 736 251 736 q 619 688 536 736 q 742 556 701 640 q 783 365 783 472 l 783 331 q 773 305 783 315 q 747 294 763 294 l 307 294 l 307 286 q 336 185 308 224 q 417 147 364 147 q 469 160 450 147 q 507 194 489 174 q 528 212 519 208 q 551 215 536 215 l 735 215 q 756 207 747 215 q 764 186 765 199 q 731 114 763 154 q 640 40 700 74 q 500 -7 581 6 q 436 -34 457 -15 q 415 -83 415 -53 q 436 -142 415 -118 q 497 -167 457 -167 l 514 -167 q 539 -177 529 -167 q 549 -201 549 -187 l 549 -271 q 539 -296 549 -286 q 514 -306 529 -306 l 492 -306 m 528 436 l 528 439 q 499 542 528 506 q 417 579 469 579 q 335 542 364 579 q 307 439 307 506 l 307 436 l 528 436 z "},"f":{"ha":622,"x_min":22,"x_max":619,"o":"m 199 0 q 173 10 183 0 q 163 35 163 19 l 163 533 l 58 533 q 33 543 43 533 q 22 568 22 553 l 22 688 q 33 713 22 703 q 58 722 43 722 l 163 722 l 163 764 q 243 965 163 903 q 474 1028 324 1028 l 583 1028 q 609 1018 599 1028 q 619 993 619 1008 l 619 874 q 609 849 619 858 q 583 839 599 839 l 485 839 q 422 819 440 839 q 403 757 403 799 l 403 722 l 569 722 q 595 713 585 722 q 606 688 606 703 l 606 568 q 595 543 606 553 q 569 533 585 533 l 403 533 l 403 35 q 393 10 403 21 q 368 0 383 0 l 199 0 z "},"g":{"ha":886,"x_min":53,"x_max":806,"o":"m 440 -306 q 224 -262 307 -306 q 104 -163 140 -219 q 68 -69 68 -107 q 79 -46 68 -56 q 104 -36 90 -36 l 290 -36 q 313 -42 304 -36 q 328 -64 321 -49 q 364 -112 342 -94 q 433 -129 386 -129 q 522 -99 493 -129 q 551 0 551 -69 l 551 93 q 350 17 478 17 q 135 98 210 17 q 54 338 61 179 l 53 375 q 128 640 53 544 q 350 736 204 736 q 475 709 421 736 q 565 636 529 682 l 565 686 q 575 712 565 701 q 600 722 585 722 l 769 722 q 795 712 785 722 q 806 686 806 701 l 806 21 q 710 -222 806 -139 q 440 -306 614 -306 m 429 204 q 518 240 489 204 q 551 332 547 276 q 553 374 553 342 q 551 415 553 407 q 518 508 547 472 q 429 543 489 543 q 340 506 368 543 q 310 404 313 469 l 308 374 q 335 249 308 294 q 429 204 361 204 z "},"ğ":{"ha":886,"x_min":53,"x_max":806,"o":"m 440 -306 q 224 -262 307 -306 q 104 -163 140 -219 q 68 -69 68 -107 q 79 -46 68 -56 q 104 -36 90 -36 l 290 -36 q 313 -42 304 -36 q 328 -64 321 -49 q 364 -112 342 -94 q 433 -129 386 -129 q 522 -99 493 -129 q 551 0 551 -69 l 551 93 q 350 17 478 17 q 135 98 210 17 q 54 338 61 179 l 53 375 q 128 640 53 544 q 350 736 204 736 q 475 709 421 736 q 565 636 529 682 l 565 686 q 575 712 565 701 q 600 722 585 722 l 769 722 q 795 712 785 722 q 806 686 806 701 l 806 21 q 710 -222 806 -139 q 440 -306 614 -306 m 429 204 q 518 240 489 204 q 551 332 547 276 q 553 374 553 342 q 551 415 553 407 q 518 508 547 472 q 429 543 489 543 q 340 506 368 543 q 310 404 313 469 l 308 374 q 335 249 308 294 q 429 204 361 204 m 429 819 q 272 875 326 819 q 218 1018 218 931 q 225 1037 218 1029 q 244 1044 232 1044 l 339 1044 q 358 1037 351 1044 q 365 1018 365 1029 q 429 936 365 936 q 492 1018 492 936 q 499 1037 492 1029 q 518 1044 506 1044 l 613 1044 q 632 1037 625 1044 q 639 1018 639 1029 q 585 875 639 931 q 429 819 531 819 z "},"ĝ":{"ha":886,"x_min":53,"x_max":806,"o":"m 440 -306 q 224 -262 307 -306 q 104 -163 140 -219 q 68 -69 68 -107 q 79 -46 68 -56 q 104 -36 90 -36 l 290 -36 q 313 -42 304 -36 q 328 -64 321 -49 q 364 -112 342 -94 q 433 -129 386 -129 q 522 -99 493 -129 q 551 0 551 -69 l 551 93 q 350 17 478 17 q 135 98 210 17 q 54 338 61 179 l 53 375 q 128 640 53 544 q 350 736 204 736 q 475 709 421 736 q 565 636 529 682 l 565 686 q 575 712 565 701 q 600 722 585 722 l 769 722 q 795 712 785 722 q 806 686 806 701 l 806 21 q 710 -222 806 -139 q 440 -306 614 -306 m 429 204 q 518 240 489 204 q 551 332 547 276 q 553 374 553 342 q 551 415 553 407 q 518 508 547 472 q 429 543 489 543 q 340 506 368 543 q 310 404 313 469 l 308 374 q 335 249 308 294 q 429 204 361 204 m 189 826 q 168 846 168 826 q 178 868 168 858 l 322 1019 q 347 1039 336 1033 q 371 1044 357 1044 l 486 1044 q 512 1040 501 1044 q 536 1019 522 1035 l 679 868 q 690 846 690 857 q 668 826 690 826 l 600 826 q 551 836 569 826 l 429 903 l 307 836 q 258 826 289 826 l 189 826 z "},"ģ":{"ha":886,"x_min":53,"x_max":806,"o":"m 567 1086 q 586 1077 578 1086 q 593 1056 594 1068 l 565 875 q 550 841 563 856 q 514 826 538 826 l 364 826 q 344 835 353 826 q 336 854 336 843 q 339 869 336 856 l 408 1046 q 428 1075 417 1064 q 461 1086 440 1086 l 567 1086 m 440 -306 q 224 -262 307 -306 q 104 -163 140 -219 q 68 -69 68 -107 q 79 -46 68 -56 q 104 -36 90 -36 l 290 -36 q 313 -42 304 -36 q 328 -64 321 -49 q 364 -112 342 -94 q 433 -129 386 -129 q 522 -99 493 -129 q 551 0 551 -69 l 551 93 q 350 17 478 17 q 135 98 210 17 q 54 338 61 179 l 53 375 q 128 640 53 544 q 350 736 204 736 q 475 709 421 736 q 565 636 529 682 l 565 686 q 575 712 565 701 q 600 722 585 722 l 769 722 q 795 712 785 722 q 806 686 806 701 l 806 21 q 710 -222 806 -139 q 440 -306 614 -306 m 429 204 q 518 240 489 204 q 551 332 547 276 q 553 374 553 342 q 551 415 553 407 q 518 508 547 472 q 429 543 489 543 q 340 506 368 543 q 310 404 313 469 l 308 374 q 335 249 308 294 q 429 204 361 204 z "},"ġ":{"ha":886,"x_min":53,"x_max":806,"o":"m 440 -306 q 224 -262 307 -306 q 104 -163 140 -219 q 68 -69 68 -107 q 79 -46 68 -56 q 104 -36 90 -36 l 290 -36 q 313 -42 304 -36 q 328 -64 321 -49 q 364 -112 342 -94 q 433 -129 386 -129 q 522 -99 493 -129 q 551 0 551 -69 l 551 93 q 350 17 478 17 q 135 98 210 17 q 54 338 61 179 l 53 375 q 128 640 53 544 q 350 736 204 736 q 475 709 421 736 q 565 636 529 682 l 565 686 q 575 712 565 701 q 600 722 585 722 l 769 722 q 795 712 785 722 q 806 686 806 701 l 806 21 q 710 -222 806 -139 q 440 -306 614 -306 m 429 204 q 518 240 489 204 q 551 332 547 276 q 553 374 553 342 q 551 415 553 407 q 518 508 547 472 q 429 543 489 543 q 340 506 368 543 q 310 404 313 469 l 308 374 q 335 249 308 294 q 429 204 361 204 m 357 836 q 335 845 343 836 q 326 868 326 854 l 326 1011 q 335 1034 326 1025 q 357 1043 343 1043 l 501 1043 q 524 1034 515 1043 q 533 1011 533 1025 l 533 868 q 524 845 533 854 q 501 836 515 836 l 357 836 z "},"h":{"ha":908,"x_min":79,"x_max":836,"o":"m 115 0 q 90 10 100 0 q 79 35 79 19 l 79 951 q 90 976 79 967 q 115 986 100 986 l 303 986 q 328 976 318 986 q 339 951 339 967 l 339 642 q 557 736 419 736 q 700 700 636 736 q 800 593 764 664 q 836 422 836 522 l 836 35 q 826 10 836 19 q 800 0 815 0 l 611 0 q 587 10 597 0 q 576 35 576 21 l 576 414 q 546 509 576 475 q 458 543 515 543 q 371 509 403 543 q 339 414 339 475 l 339 35 q 328 10 339 19 q 303 0 318 0 l 115 0 z "},"ħ":{"ha":908,"x_min":-6,"x_max":836,"o":"m 115 0 q 91 10 101 0 q 81 35 81 21 l 81 763 l 29 763 q 5 773 15 763 q -6 797 -6 783 l -6 851 q 5 876 -6 867 q 29 886 15 886 l 81 886 l 81 951 q 91 976 81 967 q 115 986 101 986 l 304 986 q 329 976 319 986 q 339 951 339 967 l 339 886 l 388 886 q 413 876 403 886 q 424 851 424 867 l 424 797 q 413 772 424 782 q 388 763 403 763 l 339 763 l 339 642 q 557 736 419 736 q 700 700 636 736 q 800 593 764 664 q 836 422 836 522 l 836 36 q 826 12 836 22 q 801 1 817 1 l 611 1 q 587 12 597 1 q 576 36 576 22 l 576 414 q 546 509 576 475 q 460 543 515 543 q 372 509 404 543 q 339 414 339 475 l 339 35 q 329 10 339 21 q 304 0 319 0 l 115 0 z "},"ĥ":{"ha":908,"x_min":79,"x_max":836,"o":"m 115 0 q 90 10 100 0 q 79 35 79 19 l 79 951 q 90 976 79 967 q 115 986 100 986 l 303 986 q 328 976 318 986 q 339 951 339 967 l 339 642 q 557 736 419 736 q 700 700 636 736 q 800 593 764 664 q 836 422 836 522 l 836 35 q 826 10 836 19 q 800 0 815 0 l 611 0 q 587 10 597 0 q 576 35 576 21 l 576 414 q 546 509 576 475 q 458 543 515 543 q 371 509 403 543 q 339 414 339 475 l 339 35 q 328 10 339 19 q 303 0 318 0 l 115 0 m 218 1042 q 197 1061 197 1042 q 207 1083 197 1074 l 351 1235 q 376 1254 365 1249 q 400 1260 386 1260 l 515 1260 q 541 1255 531 1260 q 565 1235 551 1250 l 708 1083 q 719 1061 719 1072 q 697 1042 719 1042 l 629 1042 q 581 1051 599 1042 l 458 1118 l 336 1051 q 288 1042 318 1042 l 218 1042 z "},"i":{"ha":403,"x_min":79,"x_max":324,"o":"m 114 822 q 89 833 99 822 q 79 858 79 843 l 79 988 q 90 1013 79 1003 q 114 1024 100 1024 l 288 1024 q 313 1013 303 1024 q 324 988 324 1003 l 324 858 q 313 833 324 843 q 288 822 303 822 l 114 822 m 114 0 q 90 10 100 0 q 79 35 79 21 l 79 688 q 90 713 79 703 q 114 722 100 722 l 288 722 q 313 713 303 722 q 324 688 324 703 l 324 35 q 313 10 324 19 q 288 0 303 0 l 114 0 z "},"ı":{"ha":403,"x_min":79,"x_max":324,"o":"m 114 0 q 90 10 100 0 q 79 35 79 21 l 79 688 q 90 713 79 703 q 114 722 100 722 l 288 722 q 313 713 303 722 q 324 688 324 703 l 324 35 q 313 10 324 19 q 288 0 303 0 l 114 0 z "},"í":{"ha":403,"x_min":79,"x_max":496,"o":"m 114 0 q 90 10 100 0 q 79 35 79 21 l 79 688 q 90 713 79 703 q 114 722 100 722 l 288 722 q 313 713 303 722 q 324 688 324 703 l 324 35 q 313 10 324 19 q 288 0 303 0 l 114 0 m 118 826 q 96 849 96 826 q 103 867 96 860 l 226 1018 q 251 1040 240 1035 q 278 1044 261 1044 l 469 1044 q 489 1037 482 1044 q 496 1017 496 1029 q 489 1000 496 1007 l 303 847 q 278 831 289 836 q 249 826 267 826 l 118 826 z "},"ĭ":{"ha":403,"x_min":-10,"x_max":411,"o":"m 114 0 q 90 10 100 0 q 79 35 79 21 l 79 688 q 90 713 79 703 q 114 722 100 722 l 288 722 q 313 713 303 722 q 324 688 324 703 l 324 35 q 313 10 324 19 q 288 0 303 0 l 114 0 m 201 819 q 44 875 99 819 q -10 1018 -10 931 q -3 1037 -10 1029 q 17 1044 4 1044 l 111 1044 q 131 1037 124 1044 q 138 1018 138 1029 q 201 936 138 936 q 264 1018 264 936 q 271 1037 264 1029 q 290 1044 278 1044 l 385 1044 q 404 1037 397 1044 q 411 1018 411 1029 q 357 875 411 931 q 201 819 303 819 z "},"î":{"ha":403,"x_min":-60,"x_max":463,"o":"m 114 0 q 90 10 100 0 q 79 35 79 21 l 79 688 q 90 713 79 703 q 114 722 100 722 l 288 722 q 313 713 303 722 q 324 688 324 703 l 324 35 q 313 10 324 19 q 288 0 303 0 l 114 0 m -39 826 q -60 846 -60 826 q -50 868 -60 858 l 94 1019 q 119 1039 108 1033 q 143 1044 129 1044 l 258 1044 q 284 1040 274 1044 q 308 1019 294 1035 l 451 868 q 463 846 463 857 q 440 826 463 826 l 372 826 q 324 836 342 826 l 201 903 l 79 836 q 31 826 61 826 l -39 826 z "},"ï":{"ha":403,"x_min":-43,"x_max":444,"o":"m 114 0 q 90 10 100 0 q 79 35 79 21 l 79 688 q 90 713 79 703 q 114 722 100 722 l 288 722 q 313 713 303 722 q 324 688 324 703 l 324 35 q 313 10 324 19 q 288 0 303 0 l 114 0 m -12 842 q -35 850 -26 842 q -43 872 -43 858 l -43 1006 q -35 1028 -43 1019 q -12 1038 -26 1038 l 121 1038 q 144 1028 135 1038 q 153 1006 153 1019 l 153 872 q 144 850 153 858 q 121 842 135 842 l -12 842 m 281 842 q 258 850 267 842 q 249 872 249 858 l 249 1006 q 258 1028 249 1019 q 281 1038 267 1038 l 413 1038 q 435 1028 426 1038 q 444 1006 444 1019 l 444 872 q 435 850 444 858 q 413 842 426 842 l 281 842 z "},"ì":{"ha":403,"x_min":-93,"x_max":324,"o":"m 114 0 q 90 10 100 0 q 79 35 79 21 l 79 688 q 90 713 79 703 q 114 722 100 722 l 288 722 q 313 713 303 722 q 324 688 324 703 l 324 35 q 313 10 324 19 q 288 0 303 0 l 114 0 m 153 826 q 125 831 136 826 q 100 847 114 836 l -86 1000 q -93 1017 -93 1007 q -86 1037 -93 1029 q -67 1044 -79 1044 l 124 1044 q 151 1040 142 1044 q 175 1018 161 1035 l 300 867 q 307 849 307 860 q 285 826 307 826 l 153 826 z "},"ĳ":{"ha":831,"x_min":79,"x_max":751,"o":"m 114 822 q 89 833 99 822 q 79 858 79 843 l 79 988 q 90 1013 79 1003 q 114 1024 100 1024 l 288 1024 q 313 1013 303 1024 q 324 988 324 1003 l 324 858 q 313 833 324 843 q 288 822 303 822 l 114 822 m 114 0 q 90 10 100 0 q 79 35 79 21 l 79 688 q 90 713 79 703 q 114 722 100 722 l 288 722 q 313 713 303 722 q 324 688 324 703 l 324 35 q 313 10 324 19 q 288 0 303 0 l 114 0 m 533 822 q 508 833 518 822 q 497 858 497 843 l 497 988 q 508 1013 497 1003 q 533 1024 518 1024 l 715 1024 q 741 1013 731 1024 q 751 988 751 1003 l 751 858 q 741 833 751 843 q 715 822 731 822 l 533 822 m 361 -264 q 336 -254 346 -264 q 326 -229 326 -244 l 326 -110 q 336 -85 326 -96 q 361 -75 346 -75 l 417 -75 q 481 -50 463 -75 q 499 22 499 -25 l 499 688 q 509 713 499 703 q 533 722 519 722 l 715 722 q 740 713 731 722 q 750 688 750 703 l 750 17 q 669 -191 750 -118 q 444 -264 589 -264 l 361 -264 z "},"ī":{"ha":403,"x_min":-28,"x_max":429,"o":"m 114 0 q 90 10 100 0 q 79 35 79 21 l 79 688 q 90 713 79 703 q 114 722 100 722 l 288 722 q 313 713 303 722 q 324 688 324 703 l 324 35 q 313 10 324 19 q 288 0 303 0 l 114 0 m 3 839 q -19 848 -11 839 q -28 871 -28 857 l -28 974 q -19 996 -28 988 q 3 1004 -11 1004 l 399 1004 q 421 996 413 1004 q 429 974 429 988 l 429 871 q 421 848 429 857 q 399 839 413 839 l 3 839 z "},"į":{"ha":413,"x_min":69,"x_max":338,"o":"m 124 822 q 99 833 108 822 q 89 858 89 843 l 89 988 q 99 1013 89 1003 q 124 1024 110 1024 l 297 1024 q 323 1013 313 1024 q 333 988 333 1003 l 333 858 q 323 833 333 843 q 297 822 313 822 l 124 822 m 281 -279 q 124 -223 179 -279 q 69 -75 69 -167 q 83 -14 69 -40 q 121 25 97 13 l 114 26 q 97 35 104 28 q 89 54 89 43 l 89 688 q 99 713 89 703 q 124 722 110 722 l 297 722 q 323 713 313 722 q 333 688 333 703 l 333 35 q 323 10 333 19 q 297 0 313 0 l 286 0 q 225 -21 246 0 q 204 -75 204 -42 q 225 -130 204 -110 q 286 -150 246 -150 l 303 -150 q 328 -160 318 -150 q 338 -185 338 -171 l 338 -244 q 328 -269 338 -260 q 303 -279 318 -279 l 281 -279 z "},"ĩ":{"ha":403,"x_min":-42,"x_max":446,"o":"m 114 0 q 90 10 100 0 q 79 35 79 21 l 79 688 q 90 713 79 703 q 114 722 100 722 l 288 722 q 313 713 303 722 q 324 688 324 703 l 324 35 q 313 10 324 19 q 288 0 303 0 l 114 0 m 286 819 q 240 826 258 819 q 193 847 222 833 q 135 868 160 868 q 113 863 121 868 q 97 846 106 857 q 85 831 90 836 q 69 826 79 826 l -17 826 q -34 833 -26 826 q -42 850 -42 840 q -26 928 -42 886 q 26 999 -10 969 q 117 1029 61 1029 q 164 1022 144 1029 q 210 1001 183 1015 q 241 985 229 990 q 268 981 253 981 q 290 986 282 981 q 306 1004 297 992 q 318 1019 313 1014 q 333 1024 324 1024 l 421 1024 q 439 1016 432 1024 q 446 999 446 1008 q 429 921 446 963 q 377 849 413 879 q 286 819 342 819 z "},"j":{"ha":428,"x_min":-76,"x_max":349,"o":"m 131 822 q 105 833 115 822 q 94 858 94 843 l 94 988 q 105 1013 94 1003 q 131 1024 115 1024 l 313 1024 q 338 1013 328 1024 q 349 988 349 1003 l 349 858 q 338 833 349 843 q 313 822 328 822 l 131 822 m -42 -264 q -67 -254 -57 -264 q -76 -229 -76 -244 l -76 -110 q -67 -85 -76 -96 q -42 -75 -57 -75 l 14 -75 q 78 -50 60 -75 q 96 22 96 -25 l 96 688 q 106 713 96 703 q 131 722 117 722 l 313 722 q 338 713 328 722 q 347 688 347 703 l 347 17 q 267 -191 347 -118 q 42 -264 186 -264 l -42 -264 z "},"ȷ":{"ha":571,"x_min":25,"x_max":492,"o":"m 60 -264 q 35 -254 46 -264 q 25 -229 25 -244 l 25 -78 q 35 -53 25 -64 q 60 -43 46 -43 l 156 -43 q 219 -18 201 -43 q 238 54 238 7 l 238 526 l 68 526 q 42 536 53 526 q 32 561 32 546 l 32 688 q 42 713 32 703 q 68 722 53 722 l 456 722 q 481 713 471 722 q 492 688 492 703 l 492 54 q 410 -178 492 -93 q 185 -264 328 -264 l 60 -264 z "},"ĵ":{"ha":571,"x_min":14,"x_max":536,"o":"m 60 -264 q 35 -254 46 -264 q 25 -229 25 -244 l 25 -78 q 35 -53 25 -64 q 60 -43 46 -43 l 156 -43 q 219 -18 201 -43 q 238 54 238 7 l 238 526 l 68 526 q 42 536 53 526 q 32 561 32 546 l 32 688 q 42 713 32 703 q 68 722 53 722 l 456 722 q 481 713 471 722 q 492 688 492 703 l 492 54 q 410 -178 492 -93 q 185 -264 328 -264 l 60 -264 m 35 826 q 14 846 14 826 q 24 868 14 858 l 168 1019 q 192 1039 182 1033 q 217 1044 203 1044 l 332 1044 q 358 1040 347 1044 q 382 1019 368 1035 l 525 868 q 536 846 536 857 q 514 826 536 826 l 446 826 q 397 836 415 826 l 275 903 l 153 836 q 104 826 135 826 l 35 826 z "},"k":{"ha":821,"x_min":79,"x_max":813,"o":"m 115 0 q 90 10 100 0 q 79 35 79 19 l 79 951 q 90 976 79 967 q 115 986 100 986 l 285 986 q 310 976 300 986 q 319 951 319 967 l 319 488 l 504 699 q 515 708 507 701 q 531 719 522 715 q 551 722 539 722 l 747 722 q 769 713 760 722 q 778 690 778 704 q 768 668 778 678 l 524 399 l 803 53 q 813 32 813 40 q 803 9 813 18 q 781 0 794 0 l 579 0 q 552 6 561 0 q 531 24 543 11 l 319 285 l 319 35 q 310 10 319 21 q 285 0 300 0 l 115 0 z "},"ķ":{"ha":821,"x_min":79,"x_max":813,"o":"m 115 0 q 90 10 100 0 q 79 35 79 19 l 79 951 q 90 976 79 967 q 115 986 100 986 l 285 986 q 310 976 300 986 q 319 951 319 967 l 319 488 l 504 699 q 515 708 507 701 q 531 719 522 715 q 551 722 539 722 l 747 722 q 769 713 760 722 q 778 690 778 704 q 768 668 778 678 l 524 399 l 803 53 q 813 32 813 40 q 803 9 813 18 q 781 0 794 0 l 579 0 q 552 6 561 0 q 531 24 543 11 l 319 285 l 319 35 q 310 10 319 21 q 285 0 300 0 l 115 0 m 281 -329 q 261 -320 269 -329 q 254 -299 253 -311 l 282 -118 q 297 -84 285 -99 q 333 -69 310 -69 l 483 -69 q 503 -78 494 -69 q 511 -97 511 -86 q 508 -112 511 -99 l 439 -289 q 419 -318 431 -307 q 386 -329 407 -329 l 281 -329 z "},"ĸ":{"ha":821,"x_min":79,"x_max":811,"o":"m 114 0 q 90 10 100 0 q 79 35 79 21 l 79 688 q 90 713 79 703 q 114 722 100 722 l 285 722 q 310 713 300 722 q 319 688 319 703 l 319 447 l 517 699 q 527 708 519 701 q 543 719 535 715 q 564 722 551 722 l 749 722 q 772 713 763 722 q 781 690 781 704 q 769 668 781 676 l 532 367 l 801 53 q 811 32 811 44 q 802 9 811 18 q 781 0 793 0 l 578 0 q 553 5 563 0 q 538 16 543 10 q 529 24 532 22 l 319 271 l 319 35 q 310 10 319 21 q 285 0 300 0 l 114 0 z "},"l":{"ha":403,"x_min":79,"x_max":324,"o":"m 115 0 q 90 10 100 0 q 79 35 79 19 l 79 951 q 90 976 79 967 q 115 986 100 986 l 289 986 q 314 976 304 986 q 324 951 324 967 l 324 35 q 314 10 324 21 q 289 0 304 0 l 115 0 z "},"ĺ":{"ha":403,"x_min":79,"x_max":513,"o":"m 115 0 q 90 10 100 0 q 79 35 79 19 l 79 951 q 90 976 79 967 q 115 986 100 986 l 289 986 q 314 976 304 986 q 324 951 324 967 l 324 35 q 314 10 324 21 q 289 0 304 0 l 115 0 m 135 1042 q 113 1064 113 1042 q 119 1082 113 1075 l 243 1233 q 267 1255 257 1250 q 294 1260 278 1260 l 486 1260 q 506 1252 499 1260 q 513 1232 513 1244 q 506 1215 513 1222 l 319 1063 q 294 1047 306 1051 q 265 1042 283 1042 l 135 1042 z "},"ľ":{"ha":554,"x_min":79,"x_max":651,"o":"m 115 0 q 90 10 100 0 q 79 35 79 19 l 79 951 q 90 976 79 967 q 115 986 100 986 l 289 986 q 314 976 304 986 q 324 951 324 967 l 324 35 q 314 10 324 21 q 289 0 304 0 l 115 0 m 421 726 q 401 735 410 726 q 394 757 393 744 l 422 938 q 438 972 425 957 q 474 986 450 986 l 624 986 q 643 978 635 986 q 651 958 651 969 q 649 943 651 957 l 579 767 q 559 738 571 749 q 526 726 547 726 l 421 726 z "},"ļ":{"ha":403,"x_min":53,"x_max":324,"o":"m 115 0 q 90 10 100 0 q 79 35 79 19 l 79 951 q 90 976 79 967 q 115 986 100 986 l 289 986 q 314 976 304 986 q 324 951 324 967 l 324 35 q 314 10 324 21 q 289 0 304 0 l 115 0 m 79 -329 q 60 -320 68 -329 q 53 -299 51 -311 l 81 -118 q 96 -84 83 -99 q 132 -69 108 -69 l 282 -69 q 301 -78 293 -69 q 310 -97 310 -86 q 307 -112 310 -99 l 238 -289 q 217 -318 229 -307 q 185 -329 206 -329 l 79 -329 z "},"ŀ":{"ha":588,"x_min":79,"x_max":601,"o":"m 115 0 q 90 10 100 0 q 79 35 79 19 l 79 951 q 90 976 79 967 q 115 986 100 986 l 289 986 q 314 976 304 986 q 324 951 324 967 l 324 35 q 314 10 324 21 q 289 0 304 0 l 115 0 m 425 396 q 403 405 411 396 q 394 428 394 414 l 394 571 q 403 594 394 585 q 425 603 411 603 l 569 603 q 592 594 583 603 q 601 571 601 585 l 601 428 q 592 405 601 414 q 569 396 583 396 l 425 396 z "},"ł":{"ha":485,"x_min":33,"x_max":453,"o":"m 157 0 q 131 10 142 0 q 121 35 121 19 l 121 360 l 78 343 q 61 339 68 339 q 42 347 50 339 q 33 367 33 354 l 33 475 q 40 501 33 493 q 64 517 47 510 l 121 539 l 121 951 q 131 976 121 967 q 157 986 142 986 l 331 986 q 356 976 346 986 q 365 951 365 967 l 365 633 l 408 650 q 425 654 419 654 q 445 647 438 654 q 453 626 453 639 l 453 518 q 446 492 453 500 q 422 476 439 483 l 365 453 l 365 35 q 356 10 365 21 q 331 0 346 0 l 157 0 z "},"m":{"ha":1275,"x_min":79,"x_max":1203,"o":"m 114 0 q 90 10 100 0 q 79 35 79 21 l 79 688 q 90 713 79 703 q 114 722 100 722 l 275 722 q 300 713 290 722 q 310 688 310 703 l 310 640 q 396 708 343 681 q 515 736 449 736 q 725 617 668 736 q 818 703 758 669 q 946 736 878 736 q 1131 659 1060 736 q 1203 429 1203 582 l 1203 35 q 1193 10 1203 21 q 1168 0 1183 0 l 997 0 q 972 10 982 0 q 961 35 961 19 l 961 419 q 934 513 961 483 q 861 543 907 543 q 791 513 818 543 q 764 419 764 483 l 764 35 q 754 10 764 21 q 729 0 744 0 l 558 0 q 533 10 543 0 q 522 35 522 19 l 522 419 q 494 513 522 483 q 422 543 467 543 q 351 513 379 543 q 324 421 324 483 l 324 35 q 314 10 324 21 q 289 0 304 0 l 114 0 z "},"n":{"ha":897,"x_min":79,"x_max":825,"o":"m 114 0 q 90 10 100 0 q 79 35 79 21 l 79 688 q 90 713 79 703 q 114 722 100 722 l 285 722 q 310 713 300 722 q 319 688 319 703 l 319 635 q 416 708 357 681 q 551 736 475 736 q 692 700 631 736 q 790 593 754 664 q 825 422 825 522 l 825 35 q 815 10 825 21 q 790 0 806 0 l 606 0 q 580 10 590 0 q 569 35 569 19 l 569 414 q 540 510 569 476 q 453 543 510 543 q 365 509 397 543 q 333 414 333 475 l 333 35 q 324 10 333 21 q 299 0 314 0 l 114 0 z "},"ń":{"ha":897,"x_min":79,"x_max":825,"o":"m 114 0 q 90 10 100 0 q 79 35 79 21 l 79 688 q 90 713 79 703 q 114 722 100 722 l 285 722 q 310 713 300 722 q 319 688 319 703 l 319 635 q 416 708 357 681 q 551 736 475 736 q 692 700 631 736 q 790 593 754 664 q 825 422 825 522 l 825 35 q 815 10 825 21 q 790 0 806 0 l 606 0 q 580 10 590 0 q 569 35 569 19 l 569 414 q 540 510 569 476 q 453 543 510 543 q 365 509 397 543 q 333 414 333 475 l 333 35 q 324 10 333 21 q 299 0 314 0 l 114 0 m 368 826 q 346 849 346 826 q 353 867 346 860 l 476 1018 q 501 1040 490 1035 q 528 1044 511 1044 l 719 1044 q 739 1037 732 1044 q 746 1017 746 1029 q 739 1000 746 1007 l 553 847 q 528 831 539 836 q 499 826 517 826 l 368 826 z "},"ŉ":{"ha":897,"x_min":79,"x_max":825,"o":"m 114 0 q 90 10 100 0 q 79 35 79 21 l 79 688 q 90 713 79 703 q 114 722 100 722 l 285 722 q 310 713 300 722 q 319 688 319 703 l 319 635 q 416 708 357 681 q 551 736 475 736 q 692 700 631 736 q 790 593 754 664 q 825 422 825 522 l 825 35 q 815 10 825 21 q 790 0 806 0 l 606 0 q 580 10 590 0 q 569 35 569 19 l 569 414 q 540 510 569 476 q 453 543 510 543 q 365 509 397 543 q 333 414 333 475 l 333 35 q 324 10 333 21 q 299 0 314 0 l 114 0 m 146 819 q 126 828 135 819 q 119 850 118 838 l 147 1031 q 163 1065 150 1050 q 199 1079 175 1079 l 349 1079 q 368 1071 360 1079 q 376 1051 376 1063 q 374 1036 376 1050 l 304 860 q 284 831 296 842 q 251 819 272 819 l 146 819 z "},"ň":{"ha":897,"x_min":79,"x_max":825,"o":"m 114 0 q 90 10 100 0 q 79 35 79 21 l 79 688 q 90 713 79 703 q 114 722 100 722 l 285 722 q 310 713 300 722 q 319 688 319 703 l 319 635 q 416 708 357 681 q 551 736 475 736 q 692 700 631 736 q 790 593 754 664 q 825 422 825 522 l 825 35 q 815 10 825 21 q 790 0 806 0 l 606 0 q 580 10 590 0 q 569 35 569 19 l 569 414 q 540 510 569 476 q 453 543 510 543 q 365 509 397 543 q 333 414 333 475 l 333 35 q 324 10 333 21 q 299 0 314 0 l 114 0 m 393 826 q 368 831 379 826 q 344 850 357 836 l 200 1003 q 190 1024 190 1013 q 211 1044 190 1044 l 281 1044 q 329 1035 311 1044 l 451 968 l 574 1035 q 622 1044 592 1044 l 690 1044 q 713 1024 713 1044 q 701 1003 713 1014 l 558 850 q 534 831 544 836 q 508 826 524 826 l 393 826 z "},"ņ":{"ha":897,"x_min":79,"x_max":825,"o":"m 114 0 q 90 10 100 0 q 79 35 79 21 l 79 688 q 90 713 79 703 q 114 722 100 722 l 285 722 q 310 713 300 722 q 319 688 319 703 l 319 635 q 416 708 357 681 q 551 736 475 736 q 692 700 631 736 q 790 593 754 664 q 825 422 825 522 l 825 35 q 815 10 825 21 q 790 0 806 0 l 606 0 q 580 10 590 0 q 569 35 569 19 l 569 414 q 540 510 569 476 q 453 543 510 543 q 365 509 397 543 q 333 414 333 475 l 333 35 q 324 10 333 21 q 299 0 314 0 l 114 0 m 338 -329 q 318 -320 326 -329 q 311 -299 310 -311 l 339 -118 q 354 -84 342 -99 q 390 -69 367 -69 l 540 -69 q 560 -78 551 -69 q 568 -97 568 -86 q 565 -112 568 -99 l 496 -289 q 476 -318 488 -307 q 443 -329 464 -329 l 338 -329 z "},"ŋ":{"ha":897,"x_min":79,"x_max":825,"o":"m 428 -312 q 403 -303 414 -312 q 393 -278 393 -293 l 393 -133 q 403 -108 393 -118 q 428 -97 413 -97 l 467 -97 q 546 -67 522 -97 q 569 28 569 -37 l 569 414 q 540 510 569 476 q 453 543 510 543 q 365 509 397 543 q 333 414 333 475 l 333 35 q 324 10 333 21 q 299 0 314 0 l 114 0 q 90 10 100 0 q 79 35 79 21 l 79 688 q 90 713 79 703 q 114 722 100 722 l 285 722 q 310 713 300 722 q 319 688 319 703 l 319 635 q 416 708 357 681 q 551 736 475 736 q 692 700 631 736 q 790 593 754 664 q 825 422 825 522 l 825 18 q 727 -228 825 -143 q 457 -312 629 -312 l 428 -312 z "},"ñ":{"ha":897,"x_min":79,"x_max":825,"o":"m 114 0 q 90 10 100 0 q 79 35 79 21 l 79 688 q 90 713 79 703 q 114 722 100 722 l 285 722 q 310 713 300 722 q 319 688 319 703 l 319 635 q 416 708 357 681 q 551 736 475 736 q 692 700 631 736 q 790 593 754 664 q 825 422 825 522 l 825 35 q 815 10 825 21 q 790 0 806 0 l 606 0 q 580 10 590 0 q 569 35 569 19 l 569 414 q 540 510 569 476 q 453 543 510 543 q 365 509 397 543 q 333 414 333 475 l 333 35 q 324 10 333 21 q 299 0 314 0 l 114 0 m 536 819 q 490 826 508 819 q 443 847 472 833 q 385 868 410 868 q 363 863 371 868 q 347 846 356 857 q 335 831 340 836 q 319 826 329 826 l 233 826 q 216 833 224 826 q 208 850 208 840 q 224 928 208 886 q 276 999 240 969 q 367 1029 311 1029 q 414 1022 394 1029 q 460 1001 433 1015 q 491 985 479 990 q 518 981 503 981 q 540 986 532 981 q 556 1004 547 992 q 568 1019 563 1014 q 583 1024 574 1024 l 671 1024 q 689 1016 682 1024 q 696 999 696 1008 q 679 921 696 963 q 627 849 663 879 q 536 819 592 819 z "},"o":{"ha":853,"x_min":54,"x_max":800,"o":"m 426 -14 q 158 67 251 -14 q 56 299 64 149 q 54 361 54 317 q 56 424 54 406 q 160 653 64 571 q 426 736 257 736 q 692 653 596 736 q 797 424 789 571 q 800 361 800 388 q 797 299 800 335 q 695 67 789 149 q 426 -14 601 -14 m 426 161 q 511 197 483 161 q 543 306 539 232 q 544 361 544 319 q 543 417 544 403 q 511 525 539 489 q 426 561 483 561 q 342 525 369 561 q 310 417 314 489 l 308 361 l 310 306 q 342 197 314 232 q 426 161 369 161 z "},"ó":{"ha":853,"x_min":54,"x_max":800,"o":"m 426 -14 q 158 67 251 -14 q 56 299 64 149 q 54 361 54 317 q 56 424 54 406 q 160 653 64 571 q 426 736 257 736 q 692 653 596 736 q 797 424 789 571 q 800 361 800 388 q 797 299 800 335 q 695 67 789 149 q 426 -14 601 -14 m 426 161 q 511 197 483 161 q 543 306 539 232 q 544 361 544 319 q 543 417 544 403 q 511 525 539 489 q 426 561 483 561 q 342 525 369 561 q 310 417 314 489 l 308 361 l 310 306 q 342 197 314 232 q 426 161 369 161 m 342 826 q 319 849 319 826 q 326 867 319 860 l 450 1018 q 474 1040 464 1035 q 501 1044 485 1044 l 693 1044 q 713 1037 706 1044 q 719 1017 719 1029 q 713 1000 719 1007 l 526 847 q 501 831 513 836 q 472 826 490 826 l 342 826 z "},"ŏ":{"ha":853,"x_min":54,"x_max":800,"o":"m 426 -14 q 158 67 251 -14 q 56 299 64 149 q 54 361 54 317 q 56 424 54 406 q 160 653 64 571 q 426 736 257 736 q 692 653 596 736 q 797 424 789 571 q 800 361 800 388 q 797 299 800 335 q 695 67 789 149 q 426 -14 601 -14 m 426 161 q 511 197 483 161 q 543 306 539 232 q 544 361 544 319 q 543 417 544 403 q 511 525 539 489 q 426 561 483 561 q 342 525 369 561 q 310 417 314 489 l 308 361 l 310 306 q 342 197 314 232 q 426 161 369 161 m 426 819 q 269 875 324 819 q 215 1018 215 931 q 222 1037 215 1029 q 242 1044 229 1044 l 336 1044 q 356 1037 349 1044 q 363 1018 363 1029 q 426 936 363 936 q 489 1018 489 936 q 496 1037 489 1029 q 515 1044 503 1044 l 610 1044 q 629 1037 622 1044 q 636 1018 636 1029 q 582 875 636 931 q 426 819 528 819 z "},"ô":{"ha":853,"x_min":54,"x_max":800,"o":"m 426 -14 q 158 67 251 -14 q 56 299 64 149 q 54 361 54 317 q 56 424 54 406 q 160 653 64 571 q 426 736 257 736 q 692 653 596 736 q 797 424 789 571 q 800 361 800 388 q 797 299 800 335 q 695 67 789 149 q 426 -14 601 -14 m 426 161 q 511 197 483 161 q 543 306 539 232 q 544 361 544 319 q 543 417 544 403 q 511 525 539 489 q 426 561 483 561 q 342 525 369 561 q 310 417 314 489 l 308 361 l 310 306 q 342 197 314 232 q 426 161 369 161 m 186 826 q 165 846 165 826 q 175 868 165 858 l 319 1019 q 344 1039 333 1033 q 368 1044 354 1044 l 483 1044 q 509 1040 499 1044 q 533 1019 519 1035 l 676 868 q 688 846 688 857 q 665 826 688 826 l 597 826 q 549 836 567 826 l 426 903 l 304 836 q 256 826 286 826 l 186 826 z "},"ö":{"ha":853,"x_min":54,"x_max":800,"o":"m 426 -14 q 158 67 251 -14 q 56 299 64 149 q 54 361 54 317 q 56 424 54 406 q 160 653 64 571 q 426 736 257 736 q 692 653 596 736 q 797 424 789 571 q 800 361 800 388 q 797 299 800 335 q 695 67 789 149 q 426 -14 601 -14 m 426 161 q 511 197 483 161 q 543 306 539 232 q 544 361 544 319 q 543 417 544 403 q 511 525 539 489 q 426 561 483 561 q 342 525 369 561 q 310 417 314 489 l 308 361 l 310 306 q 342 197 314 232 q 426 161 369 161 m 214 842 q 192 850 200 842 q 183 872 183 858 l 183 1006 q 192 1028 183 1019 q 214 1038 200 1038 l 347 1038 q 370 1028 361 1038 q 379 1006 379 1019 l 379 872 q 370 850 379 858 q 347 842 361 842 l 214 842 m 507 842 q 484 850 493 842 q 475 872 475 858 l 475 1006 q 484 1028 475 1019 q 507 1038 493 1038 l 639 1038 q 662 1028 653 1038 q 671 1006 671 1019 l 671 872 q 662 850 671 858 q 639 842 653 842 l 507 842 z "},"ò":{"ha":853,"x_min":54,"x_max":800,"o":"m 426 -14 q 158 67 251 -14 q 56 299 64 149 q 54 361 54 317 q 56 424 54 406 q 160 653 64 571 q 426 736 257 736 q 692 653 596 736 q 797 424 789 571 q 800 361 800 388 q 797 299 800 335 q 695 67 789 149 q 426 -14 601 -14 m 426 161 q 511 197 483 161 q 543 306 539 232 q 544 361 544 319 q 543 417 544 403 q 511 525 539 489 q 426 561 483 561 q 342 525 369 561 q 310 417 314 489 l 308 361 l 310 306 q 342 197 314 232 q 426 161 369 161 m 381 826 q 353 831 364 826 q 328 847 342 836 l 142 1000 q 135 1017 135 1007 q 142 1037 135 1029 q 161 1044 149 1044 l 351 1044 q 379 1040 369 1044 q 403 1018 389 1035 l 528 867 q 535 849 535 860 q 513 826 535 826 l 381 826 z "},"ő":{"ha":853,"x_min":54,"x_max":800,"o":"m 426 -14 q 158 67 251 -14 q 56 299 64 149 q 54 361 54 317 q 56 424 54 406 q 160 653 64 571 q 426 736 257 736 q 692 653 596 736 q 797 424 789 571 q 800 361 800 388 q 797 299 800 335 q 695 67 789 149 q 426 -14 601 -14 m 426 161 q 511 197 483 161 q 543 306 539 232 q 544 361 544 319 q 543 417 544 403 q 511 525 539 489 q 426 561 483 561 q 342 525 369 561 q 310 417 314 489 l 308 361 l 310 306 q 342 197 314 232 q 426 161 369 161 m 206 826 q 183 849 183 826 q 190 869 183 856 l 257 1018 q 276 1038 264 1032 q 308 1044 288 1044 l 461 1044 q 481 1038 474 1044 q 489 1018 489 1031 q 481 1000 489 1008 l 342 846 q 296 826 325 826 l 206 826 m 508 826 q 486 849 486 826 q 493 869 486 856 l 560 1018 q 578 1038 567 1032 q 611 1044 590 1044 l 764 1044 q 784 1038 776 1044 q 792 1018 792 1031 q 783 1000 792 1008 l 644 846 q 600 826 628 826 l 508 826 z "},"ō":{"ha":853,"x_min":54,"x_max":800,"o":"m 426 -14 q 158 67 251 -14 q 56 299 64 149 q 54 361 54 317 q 56 424 54 406 q 160 653 64 571 q 426 736 257 736 q 692 653 596 736 q 797 424 789 571 q 800 361 800 388 q 797 299 800 335 q 695 67 789 149 q 426 -14 601 -14 m 426 161 q 511 197 483 161 q 543 306 539 232 q 544 361 544 319 q 543 417 544 403 q 511 525 539 489 q 426 561 483 561 q 342 525 369 561 q 310 417 314 489 l 308 361 l 310 306 q 342 197 314 232 q 426 161 369 161 m 229 839 q 207 848 215 839 q 199 871 199 857 l 199 974 q 207 996 199 988 q 229 1004 215 1004 l 625 1004 q 647 996 639 1004 q 656 974 656 988 l 656 871 q 647 848 656 857 q 625 839 639 839 l 229 839 z "},"ø":{"ha":893,"x_min":14,"x_max":878,"o":"m 447 -14 q 233 32 317 -14 q 108 163 149 78 l 58 143 q 43 139 47 139 q 22 147 31 139 q 14 167 14 154 l 14 239 q 21 265 14 257 q 44 281 28 274 l 76 292 q 75 358 75 314 q 76 424 75 403 q 180 652 85 568 q 447 736 275 736 q 657 692 574 736 q 781 565 740 647 l 833 586 q 849 590 844 590 q 869 583 861 590 q 878 563 878 575 l 878 490 q 871 464 878 472 q 847 449 864 456 l 818 438 q 821 354 821 390 l 819 299 q 719 69 811 151 q 447 -14 626 -14 m 556 478 q 447 561 536 561 q 332 432 340 561 l 331 411 l 332 390 l 556 478 m 447 161 q 533 194 504 161 q 564 303 561 228 l 564 339 l 338 251 q 447 161 356 161 z "},"ǿ":{"ha":893,"x_min":14,"x_max":878,"o":"m 356 826 q 333 849 333 826 q 340 867 333 860 l 464 1018 q 488 1040 478 1035 q 515 1044 499 1044 l 707 1044 q 726 1037 719 1044 q 733 1017 733 1029 q 726 1000 733 1007 l 540 847 q 515 831 526 836 q 486 826 504 826 l 356 826 m 447 -14 q 233 32 317 -14 q 108 163 149 78 l 58 143 q 43 139 47 139 q 22 147 31 139 q 14 167 14 154 l 14 239 q 21 265 14 257 q 44 281 28 274 l 76 292 q 75 358 75 314 q 76 424 75 403 q 180 652 85 568 q 447 736 275 736 q 657 692 574 736 q 781 565 740 647 l 833 586 q 849 590 844 590 q 869 583 861 590 q 878 563 878 575 l 878 490 q 871 464 878 472 q 847 449 864 456 l 818 438 q 821 354 821 390 l 819 299 q 719 69 811 151 q 447 -14 626 -14 m 556 478 q 447 561 536 561 q 332 432 340 561 l 331 411 l 332 390 l 556 478 m 447 161 q 533 194 504 161 q 564 303 561 228 l 564 339 l 338 251 q 447 161 356 161 z "},"õ":{"ha":853,"x_min":54,"x_max":800,"o":"m 426 -14 q 158 67 251 -14 q 56 299 64 149 q 54 361 54 317 q 56 424 54 406 q 160 653 64 571 q 426 736 257 736 q 692 653 596 736 q 797 424 789 571 q 800 361 800 388 q 797 299 800 335 q 695 67 789 149 q 426 -14 601 -14 m 426 161 q 511 197 483 161 q 543 306 539 232 q 544 361 544 319 q 543 417 544 403 q 511 525 539 489 q 426 561 483 561 q 342 525 369 561 q 310 417 314 489 l 308 361 l 310 306 q 342 197 314 232 q 426 161 369 161 m 511 819 q 465 826 483 819 q 418 847 447 833 q 360 868 385 868 q 338 863 346 868 q 322 846 331 857 q 310 831 315 836 q 294 826 304 826 l 208 826 q 191 833 199 826 q 183 850 183 840 q 199 928 183 886 q 251 999 215 969 q 342 1029 286 1029 q 389 1022 369 1029 q 435 1001 408 1015 q 466 985 454 990 q 493 981 478 981 q 515 986 507 981 q 531 1004 522 992 q 543 1019 538 1014 q 558 1024 549 1024 l 646 1024 q 664 1016 657 1024 q 671 999 671 1008 q 654 921 671 963 q 602 849 638 879 q 511 819 567 819 z "},"œ":{"ha":1322,"x_min":54,"x_max":1278,"o":"m 426 -14 q 158 67 251 -14 q 56 299 64 149 q 54 361 54 317 q 56 424 54 406 q 160 653 64 571 q 426 736 257 736 q 676 651 583 736 q 911 736 768 736 q 1113 688 1031 736 q 1237 556 1196 640 q 1278 365 1278 472 l 1278 331 q 1267 305 1278 315 q 1242 294 1257 294 l 801 294 l 801 286 q 831 185 803 224 q 910 147 858 147 q 961 160 942 147 q 999 194 981 174 q 1019 212 1011 208 q 1043 215 1028 215 l 1226 215 q 1248 207 1239 215 q 1256 186 1257 199 q 1213 102 1254 150 q 1094 20 1172 54 q 913 -14 1017 -14 q 778 7 839 -14 q 675 67 718 28 q 426 -14 583 -14 m 1022 436 l 1022 439 q 993 542 1022 506 q 911 579 964 579 q 830 542 858 579 q 801 439 801 506 l 801 436 l 1022 436 m 426 161 q 513 197 485 161 q 543 306 540 232 q 544 361 544 319 q 543 417 544 403 q 513 525 540 489 q 426 561 485 561 q 342 525 369 561 q 311 417 314 489 l 310 361 l 311 306 q 342 197 314 232 q 426 161 369 161 z "},"p":{"ha":881,"x_min":79,"x_max":826,"o":"m 115 -264 q 90 -254 100 -264 q 79 -229 79 -244 l 79 688 q 90 713 79 703 q 115 722 100 722 l 281 722 q 306 713 296 722 q 315 688 315 703 l 315 638 q 531 736 390 736 q 742 652 665 736 q 825 413 819 568 q 826 361 826 394 q 825 308 826 328 q 742 72 819 158 q 531 -14 664 -14 q 329 78 396 -14 l 329 -229 q 319 -254 329 -244 q 294 -264 310 -264 l 115 -264 m 450 179 q 540 216 513 179 q 571 318 567 253 q 572 361 572 332 q 571 404 572 390 q 540 506 567 469 q 450 543 513 543 q 361 505 390 543 q 329 408 332 467 q 328 356 328 390 q 329 304 328 322 q 362 215 332 250 q 450 179 392 179 z "},"þ":{"ha":882,"x_min":81,"x_max":828,"o":"m 115 -264 q 91 -254 101 -264 q 81 -229 81 -244 l 81 951 q 91 976 81 967 q 115 986 101 986 l 294 986 q 320 976 310 986 q 331 951 331 967 l 331 647 q 410 714 364 692 q 531 736 457 736 q 744 652 667 736 q 826 413 821 568 q 828 361 828 394 q 826 308 828 328 q 743 72 821 158 q 531 -14 665 -14 q 331 78 397 -14 l 331 -229 q 320 -254 331 -244 q 294 -264 310 -264 l 115 -264 m 451 179 q 540 216 514 179 q 571 318 567 253 q 574 361 574 346 q 571 404 574 376 q 540 506 567 469 q 451 543 514 543 q 362 506 390 543 q 331 408 333 468 q 329 356 329 390 q 331 304 329 322 q 363 215 333 250 q 451 179 393 179 z "},"q":{"ha":881,"x_min":54,"x_max":801,"o":"m 588 -264 q 562 -254 572 -264 q 551 -229 551 -244 l 551 78 q 351 -14 485 -14 q 139 72 217 -14 q 56 308 61 158 l 54 361 l 56 413 q 138 652 61 568 q 351 736 215 736 q 477 710 424 736 q 565 638 531 683 l 565 688 q 576 713 565 703 q 601 722 586 722 l 767 722 q 792 713 782 722 q 801 688 801 703 l 801 -229 q 792 -254 801 -244 q 767 -264 782 -264 l 588 -264 m 431 179 q 519 215 489 179 q 551 304 549 250 q 554 356 554 340 q 551 408 554 372 q 520 506 549 468 q 431 543 492 543 q 342 506 368 543 q 311 404 315 469 q 310 361 310 390 q 311 318 310 332 q 342 216 315 253 q 431 179 368 179 z "},"r":{"ha":640,"x_min":79,"x_max":624,"o":"m 114 0 q 90 10 100 0 q 79 35 79 21 l 79 686 q 89 712 79 701 q 114 722 99 722 l 283 722 q 309 712 299 722 q 319 686 319 701 l 319 633 q 410 699 358 676 q 526 722 463 722 l 589 722 q 614 713 604 722 q 624 688 624 703 l 624 536 q 614 512 624 522 q 589 501 604 501 l 449 501 q 363 471 393 501 q 333 385 333 440 l 333 35 q 323 10 333 19 q 297 0 313 0 l 114 0 z "},"ŕ":{"ha":640,"x_min":79,"x_max":638,"o":"m 114 0 q 90 10 100 0 q 79 35 79 21 l 79 686 q 89 712 79 701 q 114 722 99 722 l 283 722 q 309 712 299 722 q 319 686 319 701 l 319 633 q 410 699 358 676 q 526 722 463 722 l 589 722 q 614 713 604 722 q 624 688 624 703 l 624 536 q 614 512 624 522 q 589 501 604 501 l 449 501 q 363 471 393 501 q 333 385 333 440 l 333 35 q 323 10 333 19 q 297 0 313 0 l 114 0 m 260 826 q 238 849 238 826 q 244 867 238 860 l 368 1018 q 392 1040 382 1035 q 419 1044 403 1044 l 611 1044 q 631 1037 624 1044 q 638 1017 638 1029 q 631 1000 638 1007 l 444 847 q 419 831 431 836 q 390 826 408 826 l 260 826 z "},"ř":{"ha":640,"x_min":79,"x_max":624,"o":"m 114 0 q 90 10 100 0 q 79 35 79 21 l 79 686 q 89 712 79 701 q 114 722 99 722 l 283 722 q 309 712 299 722 q 319 686 319 701 l 319 633 q 410 699 358 676 q 526 722 463 722 l 589 722 q 614 713 604 722 q 624 688 624 703 l 624 536 q 614 512 624 522 q 589 501 604 501 l 449 501 q 363 471 393 501 q 333 385 333 440 l 333 35 q 323 10 333 19 q 297 0 313 0 l 114 0 m 283 826 q 258 831 269 826 q 235 850 247 836 l 90 1003 q 81 1024 81 1013 q 101 1044 81 1044 l 171 1044 q 219 1035 201 1044 l 342 968 l 464 1035 q 513 1044 482 1044 l 581 1044 q 603 1024 603 1044 q 592 1003 603 1014 l 449 850 q 424 831 435 836 q 399 826 414 826 l 283 826 z "},"ŗ":{"ha":640,"x_min":53,"x_max":624,"o":"m 114 0 q 90 10 100 0 q 79 35 79 21 l 79 686 q 89 712 79 701 q 114 722 99 722 l 283 722 q 309 712 299 722 q 319 686 319 701 l 319 633 q 410 699 358 676 q 526 722 463 722 l 589 722 q 614 713 604 722 q 624 688 624 703 l 624 536 q 614 512 624 522 q 589 501 604 501 l 449 501 q 363 471 393 501 q 333 385 333 440 l 333 35 q 323 10 333 19 q 297 0 313 0 l 114 0 m 79 -329 q 60 -320 68 -329 q 53 -299 51 -311 l 81 -118 q 96 -84 83 -99 q 132 -69 108 -69 l 282 -69 q 301 -78 293 -69 q 310 -97 310 -86 q 307 -112 310 -99 l 238 -289 q 217 -318 229 -307 q 185 -329 206 -329 l 79 -329 z "},"s":{"ha":774,"x_min":42,"x_max":733,"o":"m 382 -14 q 192 18 268 -14 q 78 94 115 50 q 42 175 42 139 q 52 198 42 189 q 75 207 63 207 l 243 207 q 257 201 251 207 q 283 183 281 186 q 333 153 310 164 q 388 143 356 143 q 449 158 425 143 q 474 199 474 172 q 460 235 474 221 q 410 262 447 249 q 299 289 374 275 q 58 511 58 338 q 95 620 58 568 q 203 704 132 672 q 375 736 275 736 q 551 705 476 736 q 664 630 625 674 q 703 550 703 586 q 694 528 703 538 q 672 518 685 518 l 519 518 q 500 524 507 518 q 467 544 483 532 q 423 570 442 561 q 375 579 404 579 q 321 564 340 579 q 301 525 301 549 q 313 491 301 504 q 362 465 325 478 q 474 439 399 453 q 672 355 610 415 q 733 214 733 294 q 641 48 733 110 q 382 -14 549 -14 z "},"ś":{"ha":774,"x_min":42,"x_max":733,"o":"m 382 -14 q 192 18 268 -14 q 78 94 115 50 q 42 175 42 139 q 52 198 42 189 q 75 207 63 207 l 243 207 q 257 201 251 207 q 283 183 281 186 q 333 153 310 164 q 388 143 356 143 q 449 158 425 143 q 474 199 474 172 q 460 235 474 221 q 410 262 447 249 q 299 289 374 275 q 58 511 58 338 q 95 620 58 568 q 203 704 132 672 q 375 736 275 736 q 551 705 476 736 q 664 630 625 674 q 703 550 703 586 q 694 528 703 538 q 672 518 685 518 l 519 518 q 500 524 507 518 q 467 544 483 532 q 423 570 442 561 q 375 579 404 579 q 321 564 340 579 q 301 525 301 549 q 313 491 301 504 q 362 465 325 478 q 474 439 399 453 q 672 355 610 415 q 733 214 733 294 q 641 48 733 110 q 382 -14 549 -14 m 286 826 q 264 849 264 826 q 271 867 264 860 l 394 1018 q 419 1040 408 1035 q 446 1044 429 1044 l 638 1044 q 657 1037 650 1044 q 664 1017 664 1029 q 657 1000 664 1007 l 471 847 q 446 831 457 836 q 417 826 435 826 l 286 826 z "},"š":{"ha":774,"x_min":42,"x_max":733,"o":"m 382 -14 q 192 18 268 -14 q 78 94 115 50 q 42 175 42 139 q 52 198 42 189 q 75 207 63 207 l 243 207 q 257 201 251 207 q 283 183 281 186 q 333 153 310 164 q 388 143 356 143 q 449 158 425 143 q 474 199 474 172 q 460 235 474 221 q 410 262 447 249 q 299 289 374 275 q 58 511 58 338 q 95 620 58 568 q 203 704 132 672 q 375 736 275 736 q 551 705 476 736 q 664 630 625 674 q 703 550 703 586 q 694 528 703 538 q 672 518 685 518 l 519 518 q 500 524 507 518 q 467 544 483 532 q 423 570 442 561 q 375 579 404 579 q 321 564 340 579 q 301 525 301 549 q 313 491 301 504 q 362 465 325 478 q 474 439 399 453 q 672 355 610 415 q 733 214 733 294 q 641 48 733 110 q 382 -14 549 -14 m 329 826 q 304 831 315 826 q 281 850 293 836 l 136 1003 q 126 1024 126 1013 q 147 1044 126 1044 l 217 1044 q 265 1035 247 1044 l 388 968 l 510 1035 q 558 1044 528 1044 l 626 1044 q 649 1024 649 1044 q 638 1003 649 1014 l 494 850 q 470 831 481 836 q 444 826 460 826 l 329 826 z "},"ş":{"ha":774,"x_min":42,"x_max":733,"o":"m 381 -306 q 299 -287 335 -306 q 264 -249 264 -268 q 271 -235 264 -240 l 297 -212 q 313 -206 304 -206 q 338 -215 318 -206 q 381 -224 357 -224 q 414 -212 401 -224 q 426 -182 426 -200 q 414 -154 426 -165 q 381 -143 401 -143 q 349 -148 368 -143 q 322 -153 331 -153 q 303 -144 311 -153 l 275 -117 q 267 -100 267 -108 q 276 -72 267 -92 l 304 -8 q 158 33 217 1 q 70 104 99 65 q 42 175 42 143 q 52 198 42 189 q 75 207 63 207 l 235 207 q 253 201 246 207 q 273 190 264 196 q 289 181 282 185 q 335 153 314 163 q 388 143 357 143 q 449 158 425 143 q 474 199 474 172 q 460 235 474 221 q 410 262 447 249 q 299 289 374 275 q 58 511 58 338 q 95 620 58 568 q 203 704 132 672 q 375 736 275 736 q 551 705 476 736 q 664 630 625 674 q 703 550 703 586 q 694 528 703 538 q 672 518 685 518 l 518 518 q 500 524 507 518 q 467 544 483 532 q 423 570 442 561 q 375 579 404 579 q 321 564 340 579 q 301 525 301 549 q 313 491 301 504 q 362 465 325 478 q 474 439 399 453 q 672 355 610 415 q 733 214 733 294 q 642 49 733 111 q 388 -14 551 -12 l 360 -68 q 383 -62 369 -64 q 406 -60 396 -60 q 485 -94 456 -60 q 515 -182 515 -128 q 479 -271 515 -236 q 381 -306 443 -306 z "},"ŝ":{"ha":774,"x_min":42,"x_max":733,"o":"m 382 -14 q 192 18 268 -14 q 78 94 115 50 q 42 175 42 139 q 52 198 42 189 q 75 207 63 207 l 243 207 q 257 201 251 207 q 283 183 281 186 q 333 153 310 164 q 388 143 356 143 q 449 158 425 143 q 474 199 474 172 q 460 235 474 221 q 410 262 447 249 q 299 289 374 275 q 58 511 58 338 q 95 620 58 568 q 203 704 132 672 q 375 736 275 736 q 551 705 476 736 q 664 630 625 674 q 703 550 703 586 q 694 528 703 538 q 672 518 685 518 l 519 518 q 500 524 507 518 q 467 544 483 532 q 423 570 442 561 q 375 579 404 579 q 321 564 340 579 q 301 525 301 549 q 313 491 301 504 q 362 465 325 478 q 474 439 399 453 q 672 355 610 415 q 733 214 733 294 q 641 48 733 110 q 382 -14 549 -14 m 147 826 q 126 846 126 826 q 136 868 126 858 l 281 1019 q 305 1039 294 1033 q 329 1044 315 1044 l 444 1044 q 470 1040 460 1044 q 494 1019 481 1035 l 638 868 q 649 846 649 857 q 626 826 649 826 l 558 826 q 510 836 528 826 l 388 903 l 265 836 q 217 826 247 826 l 147 826 z "},"ș":{"ha":774,"x_min":42,"x_max":733,"o":"m 382 -14 q 192 18 268 -14 q 78 94 115 50 q 42 175 42 139 q 52 198 42 189 q 75 207 63 207 l 243 207 q 257 201 251 207 q 283 183 281 186 q 333 153 310 164 q 388 143 356 143 q 449 158 425 143 q 474 199 474 172 q 460 235 474 221 q 410 262 447 249 q 299 289 374 275 q 58 511 58 338 q 95 620 58 568 q 203 704 132 672 q 375 736 275 736 q 551 705 476 736 q 664 630 625 674 q 703 550 703 586 q 694 528 703 538 q 672 518 685 518 l 519 518 q 500 524 507 518 q 467 544 483 532 q 423 570 442 561 q 375 579 404 579 q 321 564 340 579 q 301 525 301 549 q 313 491 301 504 q 362 465 325 478 q 474 439 399 453 q 672 355 610 415 q 733 214 733 294 q 641 48 733 110 q 382 -14 549 -14 m 268 -329 q 249 -320 257 -329 q 242 -299 240 -311 l 269 -118 q 285 -84 272 -99 q 321 -69 297 -69 l 471 -69 q 490 -78 482 -69 q 499 -97 499 -86 q 496 -112 499 -99 l 426 -289 q 406 -318 418 -307 q 374 -329 394 -329 l 268 -329 z "},"ß":{"ha":894,"x_min":79,"x_max":846,"o":"m 115 0 q 90 10 100 0 q 79 35 79 19 l 79 651 q 171 892 79 799 q 446 986 263 985 q 649 947 568 986 q 767 846 729 908 q 804 710 804 783 q 708 522 804 588 q 846 293 846 465 q 806 153 846 221 q 686 43 767 86 q 486 0 606 0 l 419 0 q 389 10 400 0 q 378 35 378 19 l 378 147 q 389 173 378 163 q 419 182 400 183 l 451 182 q 551 216 514 182 q 589 304 589 250 q 552 392 589 358 q 447 425 515 425 l 415 425 q 388 435 397 425 q 378 461 378 444 l 378 558 q 415 593 378 593 l 443 593 q 537 622 503 594 q 571 697 571 649 q 537 773 571 743 q 446 803 503 803 q 355 767 388 803 q 322 656 322 731 l 322 35 q 313 10 322 21 q 288 0 303 0 l 115 0 z "},"ſ":{"ha":485,"x_min":24,"x_max":619,"o":"m 199 0 q 174 10 185 0 q 164 35 164 21 l 164 533 l 58 533 q 34 544 44 533 q 24 568 24 554 l 24 688 q 34 713 24 703 q 58 722 44 722 l 164 722 l 164 763 q 244 965 164 903 q 475 1028 324 1028 l 585 1028 q 610 1018 600 1028 q 619 993 619 1008 l 619 874 q 610 849 619 860 q 585 839 600 839 l 486 839 q 422 818 440 839 q 404 757 404 797 l 404 35 q 394 10 404 21 q 369 0 385 0 l 199 0 z "},"t":{"ha":658,"x_min":19,"x_max":625,"o":"m 458 0 q 164 276 164 0 l 164 533 l 54 533 q 30 544 40 533 q 19 568 19 554 l 19 688 q 30 713 19 703 q 54 722 40 722 l 164 722 l 164 951 q 174 976 164 967 q 199 986 185 986 l 369 986 q 394 976 385 986 q 404 951 404 967 l 404 722 l 578 722 q 603 713 593 722 q 614 688 614 703 l 614 568 q 603 543 614 553 q 578 533 593 533 l 404 533 l 404 297 q 422 224 404 249 q 481 199 440 199 l 590 199 q 615 188 606 199 q 625 163 625 178 l 625 35 q 615 10 625 21 q 590 0 606 0 l 458 0 z "},"ŧ":{"ha":664,"x_min":22,"x_max":629,"o":"m 461 0 q 167 276 167 0 l 167 386 l 58 386 q 33 396 43 386 q 22 421 22 406 l 22 475 q 33 500 22 490 q 58 510 43 510 l 167 510 l 167 599 l 58 599 q 33 608 43 599 q 22 633 22 618 l 22 688 q 33 713 22 703 q 58 722 43 722 l 167 722 l 167 951 q 177 976 167 967 q 203 986 188 986 l 372 986 q 397 976 388 986 q 407 951 407 967 l 407 722 l 582 722 q 607 713 597 722 q 617 688 617 703 l 617 633 q 607 609 617 619 q 582 599 597 599 l 407 599 l 407 510 l 582 510 q 607 500 597 510 q 617 475 617 490 l 617 421 q 607 397 617 407 q 582 386 597 386 l 407 386 l 407 297 q 485 199 407 199 l 593 199 q 619 188 608 199 q 629 163 629 178 l 629 35 q 619 10 629 19 q 593 0 608 0 l 461 0 z "},"ť":{"ha":636,"x_min":19,"x_max":753,"o":"m 458 0 q 164 276 164 0 l 164 533 l 54 533 q 30 544 40 533 q 19 568 19 554 l 19 688 q 30 713 19 703 q 54 722 40 722 l 164 722 l 164 951 q 174 976 164 967 q 199 986 185 986 l 369 986 q 394 976 385 986 q 404 951 404 967 l 404 722 l 578 722 q 603 713 593 722 q 614 688 614 703 l 614 568 q 603 543 614 553 q 578 533 593 533 l 404 533 l 404 297 q 422 224 404 249 q 481 199 440 199 l 590 199 q 615 188 606 199 q 625 163 625 178 l 625 35 q 615 10 625 21 q 590 0 606 0 l 458 0 m 522 847 q 503 856 511 847 q 496 878 494 865 l 524 1058 q 539 1092 526 1078 q 575 1107 551 1107 l 725 1107 q 744 1099 736 1107 q 753 1079 753 1090 q 750 1064 753 1078 l 681 888 q 660 858 672 869 q 628 847 649 847 l 522 847 z "},"ț":{"ha":658,"x_min":19,"x_max":625,"o":"m 458 0 q 164 276 164 0 l 164 533 l 54 533 q 30 544 40 533 q 19 568 19 554 l 19 688 q 30 713 19 703 q 54 722 40 722 l 164 722 l 164 951 q 174 976 164 967 q 199 986 185 986 l 369 986 q 394 976 385 986 q 404 951 404 967 l 404 722 l 578 722 q 603 713 593 722 q 614 688 614 703 l 614 568 q 603 543 614 553 q 578 533 593 533 l 404 533 l 404 297 q 422 224 404 249 q 481 199 440 199 l 590 199 q 615 188 606 199 q 625 163 625 178 l 625 35 q 615 10 625 21 q 590 0 606 0 l 458 0 m 222 -329 q 203 -320 211 -329 q 196 -299 194 -311 l 224 -118 q 239 -84 226 -99 q 275 -69 251 -69 l 425 -69 q 444 -78 436 -69 q 453 -97 453 -86 q 450 -112 453 -99 l 381 -289 q 360 -318 372 -307 q 328 -329 349 -329 l 222 -329 z "},"u":{"ha":894,"x_min":72,"x_max":815,"o":"m 344 -14 q 147 68 222 -14 q 72 300 72 150 l 72 688 q 83 713 72 703 q 107 722 93 722 l 292 722 q 317 713 307 722 q 328 688 328 703 l 328 308 q 443 179 328 179 q 530 213 499 179 q 561 308 561 247 l 561 688 q 572 713 561 703 q 597 722 582 722 l 781 722 q 806 713 796 722 q 815 688 815 703 l 815 35 q 806 10 815 21 q 781 0 796 0 l 611 0 q 585 10 596 0 q 575 35 575 19 l 575 88 q 344 -14 503 -14 z "},"ú":{"ha":894,"x_min":72,"x_max":815,"o":"m 344 -14 q 147 68 222 -14 q 72 300 72 150 l 72 688 q 83 713 72 703 q 107 722 93 722 l 292 722 q 317 713 307 722 q 328 688 328 703 l 328 308 q 443 179 328 179 q 530 213 499 179 q 561 308 561 247 l 561 688 q 572 713 561 703 q 597 722 582 722 l 781 722 q 806 713 796 722 q 815 688 815 703 l 815 35 q 806 10 815 21 q 781 0 796 0 l 611 0 q 585 10 596 0 q 575 35 575 19 l 575 88 q 344 -14 503 -14 m 361 826 q 339 849 339 826 q 346 867 339 860 l 469 1018 q 494 1040 483 1035 q 521 1044 504 1044 l 713 1044 q 732 1037 725 1044 q 739 1017 739 1029 q 732 1000 739 1007 l 546 847 q 521 831 532 836 q 492 826 510 826 l 361 826 z "},"ŭ":{"ha":894,"x_min":72,"x_max":815,"o":"m 344 -14 q 147 68 222 -14 q 72 300 72 150 l 72 688 q 83 713 72 703 q 107 722 93 722 l 292 722 q 317 713 307 722 q 328 688 328 703 l 328 308 q 443 179 328 179 q 530 213 499 179 q 561 308 561 247 l 561 688 q 572 713 561 703 q 597 722 582 722 l 781 722 q 806 713 796 722 q 815 688 815 703 l 815 35 q 806 10 815 21 q 781 0 796 0 l 611 0 q 585 10 596 0 q 575 35 575 19 l 575 88 q 344 -14 503 -14 m 444 819 q 288 875 342 819 q 233 1018 233 931 q 240 1037 233 1029 q 260 1044 247 1044 l 354 1044 q 374 1037 367 1044 q 381 1018 381 1029 q 444 936 381 936 q 507 1018 507 936 q 514 1037 507 1029 q 533 1044 521 1044 l 628 1044 q 647 1037 640 1044 q 654 1018 654 1029 q 600 875 654 931 q 444 819 546 819 z "},"û":{"ha":894,"x_min":72,"x_max":815,"o":"m 344 -14 q 147 68 222 -14 q 72 300 72 150 l 72 688 q 83 713 72 703 q 107 722 93 722 l 292 722 q 317 713 307 722 q 328 688 328 703 l 328 308 q 443 179 328 179 q 530 213 499 179 q 561 308 561 247 l 561 688 q 572 713 561 703 q 597 722 582 722 l 781 722 q 806 713 796 722 q 815 688 815 703 l 815 35 q 806 10 815 21 q 781 0 796 0 l 611 0 q 585 10 596 0 q 575 35 575 19 l 575 88 q 344 -14 503 -14 m 204 826 q 183 846 183 826 q 193 868 183 858 l 338 1019 q 362 1039 351 1033 q 386 1044 372 1044 l 501 1044 q 527 1040 517 1044 q 551 1019 538 1035 l 694 868 q 706 846 706 857 q 683 826 706 826 l 615 826 q 567 836 585 826 l 444 903 l 322 836 q 274 826 304 826 l 204 826 z "},"ü":{"ha":894,"x_min":72,"x_max":815,"o":"m 344 -14 q 147 68 222 -14 q 72 300 72 150 l 72 688 q 83 713 72 703 q 107 722 93 722 l 292 722 q 317 713 307 722 q 328 688 328 703 l 328 308 q 443 179 328 179 q 530 213 499 179 q 561 308 561 247 l 561 688 q 572 713 561 703 q 597 722 582 722 l 781 722 q 806 713 796 722 q 815 688 815 703 l 815 35 q 806 10 815 21 q 781 0 796 0 l 611 0 q 585 10 596 0 q 575 35 575 19 l 575 88 q 344 -14 503 -14 m 231 842 q 208 850 217 842 q 200 872 200 858 l 200 1006 q 208 1028 200 1019 q 231 1038 217 1038 l 364 1038 q 387 1028 378 1038 q 396 1006 396 1019 l 396 872 q 387 850 396 858 q 364 842 378 842 l 231 842 m 524 842 q 501 850 510 842 q 492 872 492 858 l 492 1006 q 501 1028 492 1019 q 524 1038 510 1038 l 656 1038 q 678 1028 669 1038 q 688 1006 688 1019 l 688 872 q 678 850 688 858 q 656 842 669 842 l 524 842 z "},"ù":{"ha":894,"x_min":72,"x_max":815,"o":"m 344 -14 q 147 68 222 -14 q 72 300 72 150 l 72 688 q 83 713 72 703 q 107 722 93 722 l 292 722 q 317 713 307 722 q 328 688 328 703 l 328 308 q 443 179 328 179 q 530 213 499 179 q 561 308 561 247 l 561 688 q 572 713 561 703 q 597 722 582 722 l 781 722 q 806 713 796 722 q 815 688 815 703 l 815 35 q 806 10 815 21 q 781 0 796 0 l 611 0 q 585 10 596 0 q 575 35 575 19 l 575 88 q 344 -14 503 -14 m 394 826 q 367 831 378 826 q 342 847 356 836 l 156 1000 q 149 1017 149 1007 q 156 1037 149 1029 q 175 1044 163 1044 l 365 1044 q 393 1040 383 1044 q 417 1018 403 1035 l 542 867 q 549 849 549 860 q 526 826 549 826 l 394 826 z "},"ű":{"ha":894,"x_min":72,"x_max":815,"o":"m 344 -14 q 147 68 222 -14 q 72 300 72 150 l 72 688 q 83 713 72 703 q 107 722 93 722 l 292 722 q 317 713 307 722 q 328 688 328 703 l 328 308 q 443 179 328 179 q 530 213 499 179 q 561 308 561 247 l 561 688 q 572 713 561 703 q 597 722 582 722 l 781 722 q 806 713 796 722 q 815 688 815 703 l 815 35 q 806 10 815 21 q 781 0 796 0 l 611 0 q 585 10 596 0 q 575 35 575 19 l 575 88 q 344 -14 503 -14 m 224 826 q 201 849 201 826 q 208 869 201 856 l 275 1018 q 294 1038 282 1032 q 326 1044 306 1044 l 479 1044 q 499 1038 492 1044 q 507 1018 507 1031 q 499 1000 507 1008 l 360 846 q 314 826 343 826 l 224 826 m 526 826 q 504 849 504 826 q 511 869 504 856 l 578 1018 q 597 1038 585 1032 q 629 1044 608 1044 l 782 1044 q 802 1038 794 1044 q 810 1018 810 1031 q 801 1000 810 1008 l 663 846 q 618 826 646 826 l 526 826 z "},"ū":{"ha":894,"x_min":72,"x_max":815,"o":"m 344 -14 q 147 68 222 -14 q 72 300 72 150 l 72 688 q 83 713 72 703 q 107 722 93 722 l 292 722 q 317 713 307 722 q 328 688 328 703 l 328 308 q 443 179 328 179 q 530 213 499 179 q 561 308 561 247 l 561 688 q 572 713 561 703 q 597 722 582 722 l 781 722 q 806 713 796 722 q 815 688 815 703 l 815 35 q 806 10 815 21 q 781 0 796 0 l 611 0 q 585 10 596 0 q 575 35 575 19 l 575 88 q 344 -14 503 -14 m 246 839 q 224 848 232 839 q 215 871 215 857 l 215 974 q 224 996 215 988 q 246 1004 232 1004 l 642 1004 q 664 996 656 1004 q 672 974 672 988 l 672 871 q 664 848 672 857 q 642 839 656 839 l 246 839 z "},"ų":{"ha":894,"x_min":72,"x_max":815,"o":"m 764 -306 q 608 -246 663 -306 q 553 -87 553 -186 q 594 17 553 -31 q 581 27 586 19 q 575 44 575 35 l 575 88 q 344 -14 503 -14 q 147 68 222 -14 q 72 300 72 150 l 72 688 q 83 713 72 703 q 107 722 93 722 l 292 722 q 317 713 307 722 q 328 688 328 703 l 328 308 q 443 179 328 179 q 530 213 499 179 q 561 308 561 247 l 561 688 q 572 713 561 703 q 597 722 582 722 l 781 722 q 806 713 796 722 q 815 688 815 703 l 815 35 q 806 12 815 22 q 783 0 797 1 l 767 -1 q 714 -31 731 -8 q 697 -87 697 -54 q 715 -144 697 -122 q 769 -167 732 -167 l 781 -167 q 806 -177 796 -167 q 815 -201 815 -187 l 815 -271 q 806 -296 815 -286 q 781 -306 796 -306 l 764 -306 z "},"ů":{"ha":894,"x_min":72,"x_max":815,"o":"m 344 -14 q 147 68 222 -14 q 72 300 72 150 l 72 688 q 83 713 72 703 q 107 722 93 722 l 292 722 q 317 713 307 722 q 328 688 328 703 l 328 308 q 443 179 328 179 q 530 213 499 179 q 561 308 561 247 l 561 688 q 572 713 561 703 q 597 722 582 722 l 781 722 q 806 713 796 722 q 815 688 815 703 l 815 35 q 806 10 815 21 q 781 0 796 0 l 611 0 q 585 10 596 0 q 575 35 575 19 l 575 88 q 344 -14 503 -14 m 443 819 q 351 854 389 819 q 314 942 314 889 q 351 1030 314 994 q 443 1065 389 1065 q 535 1030 497 1065 q 572 942 572 994 q 535 854 572 889 q 443 819 497 819 m 443 900 q 473 912 461 900 q 485 942 485 924 q 473 972 485 960 q 443 983 461 983 q 413 972 425 983 q 401 942 401 960 q 413 912 401 924 q 443 900 425 900 z "},"ũ":{"ha":894,"x_min":72,"x_max":815,"o":"m 344 -14 q 147 68 222 -14 q 72 300 72 150 l 72 688 q 83 713 72 703 q 107 722 93 722 l 292 722 q 317 713 307 722 q 328 688 328 703 l 328 308 q 443 179 328 179 q 530 213 499 179 q 561 308 561 247 l 561 688 q 572 713 561 703 q 597 722 582 722 l 781 722 q 806 713 796 722 q 815 688 815 703 l 815 35 q 806 10 815 21 q 781 0 796 0 l 611 0 q 585 10 596 0 q 575 35 575 19 l 575 88 q 344 -14 503 -14 m 529 819 q 483 826 501 819 q 436 847 465 833 q 378 868 403 868 q 356 863 364 868 q 340 846 349 857 q 328 831 333 836 q 313 826 322 826 l 226 826 q 209 833 217 826 q 201 850 201 840 q 217 928 201 886 q 269 999 233 969 q 360 1029 304 1029 q 407 1022 388 1029 q 453 1001 426 1015 q 484 985 472 990 q 511 981 496 981 q 533 986 525 981 q 549 1004 540 992 q 561 1019 556 1014 q 576 1024 567 1024 l 664 1024 q 682 1016 675 1024 q 689 999 689 1008 q 672 921 689 963 q 620 849 656 879 q 529 819 585 819 z "},"v":{"ha":832,"x_min":25,"x_max":807,"o":"m 338 0 q 308 9 318 0 q 290 35 297 18 l 26 679 q 25 690 25 683 q 34 713 25 704 q 57 722 43 722 l 222 722 q 264 693 251 722 l 415 278 l 568 693 q 582 713 572 704 q 608 722 592 722 l 775 722 q 797 713 788 722 q 807 690 807 704 l 804 679 l 542 35 q 524 9 535 18 q 493 0 513 0 l 338 0 z "},"w":{"ha":1168,"x_min":33,"x_max":1135,"o":"m 282 0 q 252 9 263 0 q 236 35 242 18 l 36 678 l 33 690 q 43 713 33 704 q 65 722 53 722 l 217 722 q 244 713 233 722 q 258 693 256 704 l 372 308 l 493 690 q 507 713 496 703 q 536 722 518 722 l 632 722 q 661 713 650 722 q 676 690 672 703 l 797 308 l 910 693 q 924 713 914 704 q 951 722 935 722 l 1103 722 q 1126 713 1117 722 q 1135 690 1135 704 q 1133 678 1135 683 l 932 35 q 888 0 922 0 l 756 0 q 708 35 721 0 l 585 404 l 460 35 q 414 0 450 0 l 282 0 z "},"ẃ":{"ha":1168,"x_min":33,"x_max":1135,"o":"m 282 0 q 252 9 263 0 q 236 35 242 18 l 36 678 l 33 690 q 43 713 33 704 q 65 722 53 722 l 217 722 q 244 713 233 722 q 258 693 256 704 l 372 308 l 493 690 q 507 713 496 703 q 536 722 518 722 l 632 722 q 661 713 650 722 q 676 690 672 703 l 797 308 l 910 693 q 924 713 914 704 q 951 722 935 722 l 1103 722 q 1126 713 1117 722 q 1135 690 1135 704 q 1133 678 1135 683 l 932 35 q 888 0 922 0 l 756 0 q 708 35 721 0 l 585 404 l 460 35 q 414 0 450 0 l 282 0 m 507 826 q 485 849 485 826 q 492 867 485 860 l 615 1018 q 640 1040 629 1035 q 667 1044 650 1044 l 858 1044 q 878 1037 871 1044 q 885 1017 885 1029 q 878 1000 885 1007 l 692 847 q 667 831 678 836 q 638 826 656 826 l 507 826 z "},"ŵ":{"ha":1168,"x_min":33,"x_max":1135,"o":"m 282 0 q 252 9 263 0 q 236 35 242 18 l 36 678 l 33 690 q 43 713 33 704 q 65 722 53 722 l 217 722 q 244 713 233 722 q 258 693 256 704 l 372 308 l 493 690 q 507 713 496 703 q 536 722 518 722 l 632 722 q 661 713 650 722 q 676 690 672 703 l 797 308 l 910 693 q 924 713 914 704 q 951 722 935 722 l 1103 722 q 1126 713 1117 722 q 1135 690 1135 704 q 1133 678 1135 683 l 932 35 q 888 0 922 0 l 756 0 q 708 35 721 0 l 585 404 l 460 35 q 414 0 450 0 l 282 0 m 344 826 q 324 846 324 826 q 333 868 324 858 l 478 1019 q 502 1039 492 1033 q 526 1044 513 1044 l 642 1044 q 667 1040 657 1044 q 692 1019 678 1035 l 835 868 q 846 846 846 857 q 824 826 846 826 l 756 826 q 707 836 725 826 l 585 903 l 463 836 q 414 826 444 826 l 344 826 z "},"ẅ":{"ha":1168,"x_min":33,"x_max":1135,"o":"m 282 0 q 252 9 263 0 q 236 35 242 18 l 36 678 l 33 690 q 43 713 33 704 q 65 722 53 722 l 217 722 q 244 713 233 722 q 258 693 256 704 l 372 308 l 493 690 q 507 713 496 703 q 536 722 518 722 l 632 722 q 661 713 650 722 q 676 690 672 703 l 797 308 l 910 693 q 924 713 914 704 q 951 722 935 722 l 1103 722 q 1126 713 1117 722 q 1135 690 1135 704 q 1133 678 1135 683 l 932 35 q 888 0 922 0 l 756 0 q 708 35 721 0 l 585 404 l 460 35 q 414 0 450 0 l 282 0 m 372 842 q 350 850 358 842 q 342 872 342 858 l 342 1006 q 350 1028 342 1019 q 372 1038 358 1038 l 506 1038 q 528 1028 519 1038 q 538 1006 538 1019 l 538 872 q 528 850 538 858 q 506 842 519 842 l 372 842 m 665 842 q 642 850 651 842 q 633 872 633 858 l 633 1006 q 642 1028 633 1019 q 665 1038 651 1038 l 797 1038 q 820 1028 811 1038 q 829 1006 829 1019 l 829 872 q 820 850 829 858 q 797 842 811 842 l 665 842 z "},"ẁ":{"ha":1168,"x_min":33,"x_max":1135,"o":"m 282 0 q 252 9 263 0 q 236 35 242 18 l 36 678 l 33 690 q 43 713 33 704 q 65 722 53 722 l 217 722 q 244 713 233 722 q 258 693 256 704 l 372 308 l 493 690 q 507 713 496 703 q 536 722 518 722 l 632 722 q 661 713 650 722 q 676 690 672 703 l 797 308 l 910 693 q 924 713 914 704 q 951 722 935 722 l 1103 722 q 1126 713 1117 722 q 1135 690 1135 704 q 1133 678 1135 683 l 932 35 q 888 0 922 0 l 756 0 q 708 35 721 0 l 585 404 l 460 35 q 414 0 450 0 l 282 0 m 536 826 q 508 831 519 826 q 483 847 497 836 l 297 1000 q 290 1017 290 1007 q 297 1037 290 1029 q 317 1044 304 1044 l 507 1044 q 535 1040 525 1044 q 558 1018 544 1035 l 683 867 q 690 849 690 860 q 668 826 690 826 l 536 826 z "},"x":{"ha":824,"x_min":19,"x_max":803,"o":"m 51 0 q 29 9 39 0 q 19 32 19 18 q 28 53 19 43 l 258 371 l 49 669 q 40 690 40 681 q 50 713 40 704 q 72 722 60 722 l 251 722 q 276 715 268 722 q 293 697 285 708 l 415 526 l 539 697 q 546 706 540 699 q 560 717 551 713 q 581 722 569 722 l 751 722 q 774 713 764 722 q 783 692 783 704 q 775 669 783 681 l 561 371 l 796 53 q 803 32 803 43 q 794 9 803 18 q 771 0 785 0 l 583 0 q 544 22 560 0 l 410 206 l 274 22 q 257 6 265 11 q 233 0 249 0 l 51 0 z "},"y":{"ha":835,"x_min":28,"x_max":815,"o":"m 215 -264 q 194 -256 203 -264 q 186 -235 186 -247 q 189 -217 186 -225 l 299 44 l 32 675 q 28 690 28 686 q 40 713 31 704 q 61 722 49 722 l 226 722 q 267 693 256 722 l 421 299 l 579 693 q 621 722 593 722 l 785 722 q 806 713 797 722 q 815 693 815 704 q 813 675 815 683 l 419 -235 q 376 -264 406 -264 l 215 -264 z "},"ý":{"ha":835,"x_min":28,"x_max":815,"o":"m 215 -264 q 194 -256 203 -264 q 186 -235 186 -247 q 189 -217 186 -225 l 299 44 l 32 675 q 28 690 28 686 q 40 713 31 704 q 61 722 49 722 l 226 722 q 267 693 256 722 l 421 299 l 579 693 q 621 722 593 722 l 785 722 q 806 713 797 722 q 815 693 815 704 q 813 675 815 683 l 419 -235 q 376 -264 406 -264 l 215 -264 m 342 826 q 319 849 319 826 q 326 867 319 860 l 450 1018 q 474 1040 464 1035 q 501 1044 485 1044 l 693 1044 q 713 1037 706 1044 q 719 1017 719 1029 q 713 1000 719 1007 l 526 847 q 501 831 513 836 q 472 826 490 826 l 342 826 z "},"ŷ":{"ha":835,"x_min":28,"x_max":815,"o":"m 215 -264 q 194 -256 203 -264 q 186 -235 186 -247 q 189 -217 186 -225 l 299 44 l 32 675 q 28 690 28 686 q 40 713 31 704 q 61 722 49 722 l 226 722 q 267 693 256 722 l 421 299 l 579 693 q 621 722 593 722 l 785 722 q 806 713 797 722 q 815 693 815 704 q 813 675 815 683 l 419 -235 q 376 -264 406 -264 l 215 -264 m 181 826 q 160 846 160 826 q 169 868 160 858 l 314 1019 q 338 1039 328 1033 q 363 1044 349 1044 l 478 1044 q 503 1040 493 1044 q 528 1019 514 1035 l 671 868 q 682 846 682 857 q 660 826 682 826 l 592 826 q 543 836 561 826 l 421 903 l 299 836 q 250 826 281 826 l 181 826 z "},"ÿ":{"ha":835,"x_min":28,"x_max":815,"o":"m 215 -264 q 194 -256 203 -264 q 186 -235 186 -247 q 189 -217 186 -225 l 299 44 l 32 675 q 28 690 28 686 q 40 713 31 704 q 61 722 49 722 l 226 722 q 267 693 256 722 l 421 299 l 579 693 q 621 722 593 722 l 785 722 q 806 713 797 722 q 815 693 815 704 q 813 675 815 683 l 419 -235 q 376 -264 406 -264 l 215 -264 m 210 842 q 188 850 196 842 q 179 872 179 858 l 179 1006 q 188 1028 179 1019 q 210 1038 196 1038 l 343 1038 q 366 1028 357 1038 q 375 1006 375 1019 l 375 872 q 366 850 375 858 q 343 842 357 842 l 210 842 m 503 842 q 480 850 489 842 q 471 872 471 858 l 471 1006 q 480 1028 471 1019 q 503 1038 489 1038 l 635 1038 q 658 1028 649 1038 q 667 1006 667 1019 l 667 872 q 658 850 667 858 q 635 842 649 842 l 503 842 z "},"ỳ":{"ha":835,"x_min":28,"x_max":815,"o":"m 215 -264 q 194 -256 203 -264 q 186 -235 186 -247 q 189 -217 186 -225 l 299 44 l 32 675 q 28 690 28 686 q 40 713 31 704 q 61 722 49 722 l 226 722 q 267 693 256 722 l 421 299 l 579 693 q 621 722 593 722 l 785 722 q 806 713 797 722 q 815 693 815 704 q 813 675 815 683 l 419 -235 q 376 -264 406 -264 l 215 -264 m 375 826 q 347 831 358 826 q 322 847 336 836 l 136 1000 q 129 1017 129 1007 q 136 1037 129 1029 q 156 1044 143 1044 l 346 1044 q 374 1040 364 1044 q 397 1018 383 1035 l 522 867 q 529 849 529 860 q 507 826 529 826 l 375 826 z "},"z":{"ha":774,"x_min":53,"x_max":728,"o":"m 88 0 q 63 10 74 0 q 53 35 53 21 l 53 150 q 74 196 53 175 l 394 536 l 99 536 q 74 547 85 536 q 64 571 64 557 l 64 688 q 74 713 64 703 q 99 722 85 722 l 664 722 q 689 713 679 722 q 699 688 699 703 l 699 563 q 679 521 699 540 l 368 186 l 693 186 q 718 176 708 186 q 728 151 728 167 l 728 35 q 718 10 728 21 q 693 0 708 0 l 88 0 z "},"ź":{"ha":774,"x_min":53,"x_max":728,"o":"m 88 0 q 63 10 74 0 q 53 35 53 21 l 53 150 q 74 196 53 175 l 394 536 l 99 536 q 74 547 85 536 q 64 571 64 557 l 64 688 q 74 713 64 703 q 99 722 85 722 l 664 722 q 689 713 679 722 q 699 688 699 703 l 699 563 q 679 521 699 540 l 368 186 l 693 186 q 718 176 708 186 q 728 151 728 167 l 728 35 q 718 10 728 21 q 693 0 708 0 l 88 0 m 310 826 q 288 849 288 826 q 294 867 288 860 l 418 1018 q 442 1040 432 1035 q 469 1044 453 1044 l 661 1044 q 681 1037 674 1044 q 688 1017 688 1029 q 681 1000 688 1007 l 494 847 q 469 831 481 836 q 440 826 458 826 l 310 826 z "},"ž":{"ha":774,"x_min":53,"x_max":728,"o":"m 88 0 q 63 10 74 0 q 53 35 53 21 l 53 150 q 74 196 53 175 l 394 536 l 99 536 q 74 547 85 536 q 64 571 64 557 l 64 688 q 74 713 64 703 q 99 722 85 722 l 664 722 q 689 713 679 722 q 699 688 699 703 l 699 563 q 679 521 699 540 l 368 186 l 693 186 q 718 176 708 186 q 728 151 728 167 l 728 35 q 718 10 728 21 q 693 0 708 0 l 88 0 m 332 826 q 307 831 318 826 q 283 850 296 836 l 139 1003 q 129 1024 129 1013 q 150 1044 129 1044 l 219 1044 q 268 1035 250 1044 l 390 968 l 513 1035 q 561 1044 531 1044 l 629 1044 q 651 1024 651 1044 q 640 1003 651 1014 l 497 850 q 473 831 483 836 q 447 826 463 826 l 332 826 z "},"ż":{"ha":774,"x_min":53,"x_max":728,"o":"m 88 0 q 63 10 74 0 q 53 35 53 21 l 53 150 q 74 196 53 175 l 394 536 l 99 536 q 74 547 85 536 q 64 571 64 557 l 64 688 q 74 713 64 703 q 99 722 85 722 l 664 722 q 689 713 679 722 q 699 688 699 703 l 699 563 q 679 521 699 540 l 368 186 l 693 186 q 718 176 708 186 q 728 151 728 167 l 728 35 q 718 10 728 21 q 693 0 708 0 l 88 0 m 318 836 q 296 845 304 836 q 288 868 288 854 l 288 1011 q 296 1034 288 1025 q 318 1043 304 1043 l 463 1043 q 485 1034 476 1043 q 494 1011 494 1025 l 494 868 q 485 845 494 854 q 463 836 476 836 l 318 836 z "},"ﬁ":{"ha":956,"x_min":22,"x_max":876,"o":"m 199 0 q 173 10 183 0 q 163 35 163 19 l 163 533 l 58 533 q 33 543 43 533 q 22 568 22 553 l 22 688 q 33 713 22 703 q 58 722 43 722 l 163 722 l 163 764 q 243 965 163 903 q 474 1028 324 1028 l 842 1028 q 867 1018 857 1028 q 876 993 876 1008 l 876 874 q 867 849 876 860 q 842 839 857 839 l 485 839 q 422 819 440 839 q 403 757 403 799 l 403 722 l 842 722 q 867 713 857 722 q 876 688 876 703 l 876 35 q 867 10 876 21 q 842 0 857 0 l 672 0 q 647 10 657 0 q 636 35 636 19 l 636 533 l 403 533 l 403 35 q 393 10 403 21 q 368 0 383 0 l 199 0 z "},"ﬂ":{"ha":994,"x_min":22,"x_max":915,"o":"m 199 0 q 173 10 183 0 q 163 35 163 19 l 163 533 l 58 533 q 33 543 43 533 q 22 568 22 553 l 22 688 q 33 713 22 703 q 58 722 43 722 l 163 722 l 163 764 q 243 965 163 903 q 474 1028 324 1028 l 565 1028 q 590 1018 581 1028 q 600 993 600 1008 l 600 874 q 590 849 600 860 q 565 839 581 839 l 485 839 q 422 819 440 839 q 403 757 403 799 l 403 722 l 675 722 l 675 993 q 685 1018 675 1008 q 710 1028 696 1028 l 881 1028 q 906 1018 896 1028 q 915 993 915 1008 l 915 35 q 906 10 915 21 q 881 0 896 0 l 710 0 q 685 10 696 0 q 675 35 675 21 l 675 533 l 403 533 l 403 35 q 393 10 403 21 q 368 0 383 0 l 199 0 z "},"ª":{"ha":494,"x_min":47,"x_max":425,"o":"m 183 596 q 85 627 124 596 q 47 706 47 658 q 88 788 47 757 q 204 832 129 819 l 283 844 q 276 876 283 865 q 246 886 269 886 q 207 872 226 886 q 181 861 193 861 l 92 861 q 78 865 83 861 q 72 878 72 869 q 92 921 72 897 q 152 962 113 944 q 249 979 192 979 q 381 940 336 979 q 425 826 425 901 l 425 626 q 419 610 425 617 q 403 603 413 603 l 313 603 q 295 610 303 603 q 288 626 288 617 l 288 642 q 245 608 274 621 q 183 596 217 596 m 219 692 q 267 710 251 692 q 283 763 283 729 l 236 753 q 182 714 182 742 q 192 698 182 704 q 219 692 203 692 z "},"º":{"ha":492,"x_min":51,"x_max":440,"o":"m 246 596 q 106 635 154 596 q 53 750 57 675 l 51 788 l 53 825 q 108 940 57 900 q 246 979 158 979 q 384 940 333 979 q 439 825 435 900 q 440 788 440 818 q 439 750 440 757 q 386 635 435 675 q 246 596 338 596 m 246 699 q 281 712 271 699 q 294 757 292 725 q 296 788 296 764 q 294 818 296 811 q 282 862 293 847 q 246 876 271 876 q 210 862 221 876 q 197 818 199 847 l 196 788 l 197 757 q 210 712 200 725 q 246 699 221 699 z "},"А":{"ha":1000,"x_min":11,"x_max":989,"o":"m 40 0 q 20 9 29 0 q 11 29 11 18 q 13 42 11 38 l 336 932 q 392 972 350 972 l 608 972 q 664 932 650 972 l 988 42 q 989 29 989 38 q 980 9 989 18 q 960 0 971 0 l 779 0 q 732 31 746 0 l 682 165 l 318 165 l 268 31 q 221 0 254 0 l 40 0 m 376 374 l 624 374 l 500 728 l 376 374 z "},"Б":{"ha":915,"x_min":94,"x_max":904,"o":"m 129 0 q 105 10 115 0 q 94 35 94 21 l 94 936 q 104 962 94 951 q 129 972 114 972 l 801 972 q 827 962 817 972 q 838 936 838 951 l 838 790 q 827 765 838 775 q 801 754 817 754 l 356 754 l 356 600 l 542 600 q 807 521 710 600 q 904 304 904 442 q 862 148 904 217 q 738 40 819 79 q 542 0 656 0 l 129 0 m 518 188 q 603 222 572 188 q 633 306 633 256 q 603 386 633 354 q 518 418 574 418 l 356 418 l 356 188 l 518 188 z "},"В":{"ha":982,"x_min":94,"x_max":928,"o":"m 129 0 q 105 10 115 0 q 94 35 94 21 l 94 936 q 104 962 94 951 q 129 972 114 972 l 558 972 q 821 900 735 972 q 907 694 907 828 q 872 579 907 628 q 793 508 836 531 q 889 426 850 483 q 928 296 928 368 q 835 78 928 156 q 571 0 743 0 l 129 0 m 529 588 q 608 615 581 588 q 636 688 636 643 q 609 758 636 731 q 529 785 582 785 l 356 785 l 356 588 l 529 588 m 542 188 q 626 219 596 188 q 656 296 656 250 q 625 374 656 343 q 542 406 594 406 l 356 406 l 356 188 l 542 188 z "},"Г":{"ha":789,"x_min":94,"x_max":769,"o":"m 129 0 q 105 10 115 0 q 94 35 94 21 l 94 936 q 104 962 94 951 q 129 972 114 972 l 735 972 q 760 962 750 972 q 769 936 769 951 l 769 790 q 760 765 769 775 q 735 754 750 754 l 356 754 l 356 35 q 345 10 356 19 q 319 0 335 0 l 129 0 z "},"Ѓ":{"ha":789,"x_min":94,"x_max":769,"o":"m 129 0 q 105 10 115 0 q 94 35 94 21 l 94 936 q 104 962 94 951 q 129 972 114 972 l 735 972 q 760 962 750 972 q 769 936 769 951 l 769 790 q 760 765 769 775 q 735 754 750 754 l 356 754 l 356 35 q 345 10 356 19 q 319 0 335 0 l 129 0 m 381 1042 q 358 1064 358 1042 q 365 1082 358 1075 l 489 1233 q 513 1255 503 1250 q 540 1260 524 1260 l 743 1260 q 763 1252 756 1260 q 769 1232 769 1244 q 763 1215 769 1222 l 576 1063 q 551 1047 563 1051 q 524 1042 540 1042 l 381 1042 z "},"Ґ":{"ha":789,"x_min":94,"x_max":769,"o":"m 735 1167 q 760 1157 750 1167 q 769 1132 769 1147 l 769 790 q 760 765 769 775 q 735 754 750 754 l 356 754 l 356 35 q 345 10 356 19 q 319 0 335 0 l 129 0 q 105 10 115 0 q 94 35 94 21 l 94 936 q 104 962 94 951 q 129 972 114 972 l 510 972 l 510 1132 q 520 1157 510 1147 q 544 1167 531 1167 l 735 1167 z "},"Д":{"ha":1096,"x_min":42,"x_max":1051,"o":"m 76 -194 q 51 -184 61 -194 q 42 -158 42 -174 l 42 196 q 51 222 42 211 q 76 232 61 232 l 101 232 q 191 344 165 232 q 217 657 217 456 l 217 938 q 227 963 217 953 q 253 972 238 972 l 915 972 q 941 962 931 972 q 951 936 951 951 l 951 232 l 1015 232 q 1041 222 1031 232 q 1051 196 1051 211 l 1051 -158 q 1041 -184 1051 -174 q 1015 -194 1031 -194 l 826 -194 q 801 -184 811 -194 q 790 -158 790 -174 l 790 0 l 303 0 l 303 -158 q 292 -184 303 -174 q 267 -194 282 -194 l 76 -194 m 690 232 l 690 740 l 468 740 l 468 624 q 408 232 468 349 l 690 232 z "},"Е":{"ha":892,"x_min":94,"x_max":832,"o":"m 129 0 q 105 10 115 0 q 94 35 94 21 l 94 936 q 104 962 94 951 q 129 972 114 972 l 785 972 q 810 962 800 972 q 821 936 821 951 l 821 799 q 810 774 821 783 q 785 764 800 764 l 346 764 l 346 588 l 754 588 q 780 577 769 588 q 790 551 790 567 l 790 425 q 780 399 790 410 q 754 389 769 389 l 346 389 l 346 208 l 796 208 q 822 198 811 208 q 832 172 832 188 l 832 35 q 822 10 832 19 q 796 0 811 0 l 129 0 z "},"Ѐ":{"ha":892,"x_min":94,"x_max":832,"o":"m 129 0 q 105 10 115 0 q 94 35 94 21 l 94 936 q 104 962 94 951 q 129 972 114 972 l 785 972 q 810 962 800 972 q 821 936 821 951 l 821 799 q 810 774 821 783 q 785 764 800 764 l 346 764 l 346 588 l 754 588 q 780 577 769 588 q 790 551 790 567 l 790 425 q 780 399 790 410 q 754 389 769 389 l 346 389 l 346 208 l 796 208 q 822 198 811 208 q 832 172 832 188 l 832 35 q 822 10 832 19 q 796 0 811 0 l 129 0 m 425 1042 q 396 1047 407 1042 q 371 1063 385 1051 l 185 1215 q 178 1232 178 1222 q 185 1252 178 1244 q 204 1260 192 1260 l 407 1260 q 435 1255 425 1260 q 458 1233 444 1250 l 583 1082 q 590 1064 590 1075 q 568 1042 590 1042 l 425 1042 z "},"Ё":{"ha":892,"x_min":94,"x_max":832,"o":"m 129 0 q 105 10 115 0 q 94 35 94 21 l 94 936 q 104 962 94 951 q 129 972 114 972 l 785 972 q 810 962 800 972 q 821 936 821 951 l 821 799 q 810 774 821 783 q 785 764 800 764 l 346 764 l 346 588 l 754 588 q 780 577 769 588 q 790 551 790 567 l 790 425 q 780 399 790 410 q 754 389 769 389 l 346 389 l 346 208 l 796 208 q 822 198 811 208 q 832 172 832 188 l 832 35 q 822 10 832 19 q 796 0 811 0 l 129 0 m 260 1092 q 238 1100 246 1092 q 229 1122 229 1108 l 229 1256 q 238 1278 229 1269 q 260 1288 246 1288 l 393 1288 q 416 1278 407 1288 q 425 1256 425 1269 l 425 1122 q 416 1100 425 1108 q 393 1092 407 1092 l 260 1092 m 553 1092 q 530 1100 539 1092 q 521 1122 521 1108 l 521 1256 q 530 1278 521 1269 q 553 1288 539 1288 l 685 1288 q 708 1278 699 1288 q 717 1256 717 1269 l 717 1122 q 708 1100 717 1108 q 685 1092 699 1092 l 553 1092 z "},"Ж":{"ha":1494,"x_min":31,"x_max":1465,"o":"m 1461 47 q 1465 32 1465 42 q 1456 9 1465 18 q 1433 0 1447 0 l 1215 0 q 1167 28 1182 0 l 960 375 l 874 375 l 874 35 q 863 10 874 19 q 838 0 853 0 l 657 0 q 632 10 642 0 q 622 35 622 19 l 622 375 l 536 375 l 329 28 q 310 8 321 15 q 281 0 300 0 l 61 0 q 40 9 49 0 q 31 32 31 18 q 33 47 31 43 l 315 504 l 58 926 q 54 943 54 935 q 63 964 54 956 q 83 972 71 972 l 294 972 q 347 944 329 972 l 547 607 l 622 607 l 622 938 q 633 963 622 953 q 657 972 643 972 l 838 972 q 863 963 853 972 q 874 938 874 953 l 874 607 l 947 607 l 1147 944 q 1200 972 1163 972 l 1411 972 q 1433 964 1425 972 q 1442 943 1442 956 q 1436 926 1442 938 l 1179 504 l 1461 47 z "},"З":{"ha":939,"x_min":51,"x_max":885,"o":"m 465 -14 q 238 25 328 -14 q 103 125 147 64 q 51 257 58 186 l 51 260 q 60 278 51 271 q 81 286 69 286 l 269 286 q 296 280 286 286 q 314 261 306 274 q 460 193 346 193 q 574 219 532 193 q 615 294 615 246 q 577 370 615 344 q 468 396 539 396 l 365 396 q 341 407 351 396 q 331 433 331 418 l 331 551 q 341 578 331 567 q 365 589 351 589 l 465 589 q 557 612 524 589 q 590 683 590 635 q 556 752 590 726 q 461 778 522 778 q 367 760 403 778 q 322 708 332 742 q 307 690 315 696 q 283 685 299 685 l 90 685 q 68 693 78 685 q 60 714 58 701 q 170 907 72 828 q 467 986 268 986 q 672 949 583 986 q 808 847 760 911 q 856 708 856 783 q 831 597 856 649 q 747 511 807 544 q 852 414 819 475 q 885 283 885 353 q 833 127 885 194 q 688 23 782 60 q 465 -14 593 -14 z "},"И":{"ha":1086,"x_min":94,"x_max":992,"o":"m 129 0 q 104 10 114 0 q 94 36 94 21 l 94 936 q 105 962 94 951 q 131 972 115 972 l 319 972 q 345 962 335 972 q 356 936 356 951 l 356 393 l 739 946 q 786 972 756 972 l 957 972 q 982 962 972 972 q 992 936 992 951 l 992 35 q 982 10 992 21 q 957 0 972 0 l 767 0 q 741 10 751 0 q 731 35 731 19 l 731 557 l 347 26 q 328 7 339 14 q 300 0 318 0 l 129 0 z "},"Й":{"ha":1086,"x_min":94,"x_max":992,"o":"m 129 0 q 104 10 114 0 q 94 36 94 21 l 94 936 q 105 962 94 951 q 131 972 115 972 l 319 972 q 345 962 335 972 q 356 936 356 951 l 356 393 l 739 946 q 786 972 756 972 l 957 972 q 982 962 972 972 q 992 936 992 951 l 992 35 q 982 10 992 21 q 957 0 972 0 l 767 0 q 741 10 751 0 q 731 35 731 19 l 731 557 l 347 26 q 328 7 339 14 q 300 0 318 0 l 129 0 m 550 1029 q 361 1085 422 1029 q 300 1231 300 1140 q 307 1249 300 1242 q 326 1257 314 1257 l 443 1257 q 463 1249 456 1257 q 469 1231 469 1242 q 550 1158 469 1158 q 629 1231 629 1158 q 636 1249 629 1242 q 656 1257 643 1257 l 772 1257 q 792 1249 785 1257 q 799 1231 799 1242 q 738 1085 799 1140 q 550 1029 676 1029 z "},"Ѝ":{"ha":1086,"x_min":94,"x_max":992,"o":"m 129 0 q 104 10 114 0 q 94 36 94 21 l 94 936 q 105 962 94 951 q 131 972 115 972 l 319 972 q 345 962 335 972 q 356 936 356 951 l 356 393 l 739 946 q 786 972 756 972 l 957 972 q 982 962 972 972 q 992 936 992 951 l 992 35 q 982 10 992 21 q 957 0 972 0 l 767 0 q 741 10 751 0 q 731 35 731 19 l 731 557 l 347 26 q 328 7 339 14 q 300 0 318 0 l 129 0 m 501 1042 q 472 1047 483 1042 q 447 1063 461 1051 l 261 1215 q 254 1232 254 1222 q 261 1252 254 1244 q 281 1260 268 1260 l 483 1260 q 511 1255 501 1260 q 535 1233 521 1250 l 660 1082 q 667 1064 667 1075 q 644 1042 667 1042 l 501 1042 z "},"К":{"ha":982,"x_min":94,"x_max":951,"o":"m 947 47 q 951 32 951 42 q 942 9 951 18 q 921 0 933 0 l 701 0 q 653 28 668 0 l 446 375 l 356 375 l 356 35 q 345 10 356 19 q 319 0 335 0 l 129 0 q 104 10 114 0 q 94 35 94 19 l 94 936 q 104 962 94 951 q 129 972 114 972 l 319 972 q 345 962 335 972 q 356 936 356 951 l 356 607 l 433 607 l 633 944 q 686 972 651 972 l 899 972 q 919 964 911 972 q 928 943 928 956 q 922 926 928 933 l 665 504 l 947 47 z "},"Ќ":{"ha":982,"x_min":94,"x_max":951,"o":"m 947 47 q 951 32 951 42 q 942 9 951 18 q 921 0 933 0 l 701 0 q 653 28 668 0 l 446 375 l 356 375 l 356 35 q 345 10 356 19 q 319 0 335 0 l 129 0 q 104 10 114 0 q 94 35 94 19 l 94 936 q 104 962 94 951 q 129 972 114 972 l 319 972 q 345 962 335 972 q 356 936 356 951 l 356 607 l 433 607 l 633 944 q 686 972 651 972 l 899 972 q 919 964 911 972 q 928 943 928 956 q 922 926 928 933 l 665 504 l 947 47 m 382 1042 q 360 1064 360 1042 q 367 1082 360 1075 l 490 1233 q 515 1255 504 1250 q 542 1260 525 1260 l 744 1260 q 764 1252 757 1260 q 771 1232 771 1244 q 764 1215 771 1222 l 578 1063 q 553 1047 564 1051 q 525 1042 542 1042 l 382 1042 z "},"Л":{"ha":1068,"x_min":42,"x_max":974,"o":"m 747 0 q 723 10 733 0 q 713 35 713 21 l 713 740 l 463 740 l 463 624 q 432 257 463 388 q 319 65 401 126 q 78 0 236 3 q 53 11 64 0 q 42 36 42 22 l 42 190 q 76 226 42 219 q 181 349 150 239 q 211 657 211 458 l 211 938 q 222 963 211 953 q 247 972 232 972 l 938 972 q 963 962 953 972 q 974 936 974 951 l 974 35 q 963 10 974 19 q 938 0 953 0 l 747 0 z "},"М":{"ha":1154,"x_min":94,"x_max":1060,"o":"m 131 0 q 105 10 115 0 q 94 35 94 19 l 94 936 q 105 962 94 951 q 131 972 115 972 l 288 972 q 338 942 322 972 l 576 514 l 817 942 q 867 972 832 972 l 1024 972 q 1049 962 1039 972 q 1060 936 1060 951 l 1060 35 q 1049 10 1060 19 q 1024 0 1039 0 l 847 0 q 823 10 833 0 q 813 35 813 21 l 813 540 l 663 265 q 614 233 644 233 l 539 233 q 490 265 511 233 l 342 540 l 342 35 q 331 10 342 19 q 306 0 321 0 l 131 0 z "},"Н":{"ha":1039,"x_min":94,"x_max":944,"o":"m 129 0 q 104 10 114 0 q 94 35 94 19 l 94 936 q 104 962 94 951 q 129 972 114 972 l 319 972 q 345 962 335 972 q 356 936 356 951 l 356 607 l 683 607 l 683 936 q 694 962 683 951 q 719 972 704 972 l 908 972 q 934 962 924 972 q 944 936 944 951 l 944 35 q 934 10 944 19 q 908 0 924 0 l 719 0 q 694 10 704 0 q 683 35 683 19 l 683 375 l 356 375 l 356 35 q 345 10 356 19 q 319 0 335 0 l 129 0 z "},"О":{"ha":993,"x_min":64,"x_max":931,"o":"m 497 -14 q 186 82 300 -14 q 65 364 72 178 q 64 483 64 403 q 65 604 64 564 q 187 887 71 788 q 497 986 303 986 q 806 887 690 986 q 928 604 922 788 q 931 483 931 524 q 928 364 931 442 q 808 82 921 178 q 497 -14 694 -14 m 497 194 q 613 238 569 194 q 658 372 656 282 q 661 488 661 453 q 658 600 661 522 q 613 734 656 690 q 497 778 569 778 q 381 734 424 778 q 335 600 338 690 q 333 488 333 561 q 335 372 333 413 q 381 238 338 282 q 497 194 424 194 z "},"П":{"ha":1039,"x_min":94,"x_max":944,"o":"m 129 0 q 104 10 114 0 q 94 35 94 19 l 94 936 q 104 962 94 951 q 129 972 114 972 l 908 972 q 934 962 924 972 q 944 936 944 951 l 944 35 q 934 10 944 19 q 908 0 924 0 l 719 0 q 694 10 704 0 q 683 35 683 19 l 683 740 l 356 740 l 356 35 q 345 10 356 19 q 319 0 335 0 l 129 0 z "},"Р":{"ha":943,"x_min":94,"x_max":908,"o":"m 129 0 q 105 10 115 0 q 94 35 94 21 l 94 936 q 104 962 94 951 q 129 972 114 972 l 522 972 q 806 890 703 972 q 908 650 908 808 q 806 413 908 492 q 522 335 703 335 l 364 335 l 364 35 q 354 10 364 21 q 329 0 344 0 l 129 0 m 515 533 q 605 563 572 533 q 638 651 638 593 q 608 739 638 706 q 515 772 578 772 l 360 772 l 360 533 l 515 533 z "},"С":{"ha":981,"x_min":64,"x_max":933,"o":"m 497 -14 q 185 82 299 -14 q 65 363 72 178 q 64 485 64 400 q 65 610 64 571 q 187 888 72 790 q 497 986 301 986 q 719 946 621 986 q 874 829 817 906 q 933 649 931 753 q 924 628 933 636 q 903 619 915 619 l 706 619 q 677 627 686 619 q 661 656 668 635 q 602 751 642 724 q 497 778 563 778 q 335 603 340 778 q 333 488 333 565 q 335 369 333 410 q 497 194 340 194 q 602 222 561 194 q 661 317 643 250 q 676 345 667 338 q 706 353 686 353 l 903 353 q 924 344 915 353 q 933 324 933 336 q 874 143 931 219 q 719 26 817 67 q 497 -14 621 -14 z "},"Т":{"ha":882,"x_min":28,"x_max":854,"o":"m 344 0 q 319 10 329 0 q 308 35 308 19 l 308 746 l 64 746 q 38 756 49 746 q 28 781 28 765 l 28 936 q 38 962 28 951 q 64 972 49 972 l 818 972 q 844 962 833 972 q 854 936 854 951 l 854 781 q 844 756 854 765 q 818 746 833 746 l 574 746 l 574 35 q 563 10 574 19 q 538 0 553 0 l 344 0 z "},"У":{"ha":910,"x_min":11,"x_max":911,"o":"m 881 972 q 903 964 894 972 q 911 943 911 956 q 904 917 911 931 l 629 283 q 537 112 581 171 q 430 26 493 53 q 263 0 367 0 l 186 0 q 162 10 172 0 q 151 35 151 21 l 151 190 q 161 216 151 206 q 186 226 171 226 l 240 226 q 306 242 279 226 q 356 292 333 257 l 15 929 q 11 940 11 933 q 21 963 11 953 q 44 972 31 972 l 249 972 q 289 943 274 972 l 481 564 l 647 943 q 689 972 658 972 l 881 972 z "},"Ў":{"ha":910,"x_min":11,"x_max":911,"o":"m 881 972 q 903 964 894 972 q 911 943 911 956 q 904 917 911 931 l 629 283 q 537 112 581 171 q 430 26 493 53 q 263 0 367 0 l 186 0 q 162 10 172 0 q 151 35 151 21 l 151 190 q 161 216 151 206 q 186 226 171 226 l 240 226 q 306 242 279 226 q 356 292 333 257 l 15 929 q 11 940 11 933 q 21 963 11 953 q 44 972 31 972 l 249 972 q 289 943 274 972 l 481 564 l 647 943 q 689 972 658 972 l 881 972 m 475 1029 q 286 1085 347 1029 q 225 1231 225 1140 q 232 1249 225 1242 q 251 1257 239 1257 l 368 1257 q 388 1249 381 1257 q 394 1231 394 1242 q 475 1158 394 1158 q 554 1231 554 1158 q 561 1249 554 1242 q 581 1257 568 1257 l 697 1257 q 717 1249 710 1257 q 724 1231 724 1242 q 663 1085 724 1140 q 475 1029 601 1029 z "},"Ф":{"ha":1297,"x_min":63,"x_max":1235,"o":"m 553 -44 q 528 -35 539 -44 q 518 -10 518 -25 l 518 85 q 194 178 310 85 q 64 454 78 272 l 63 506 l 64 557 q 194 832 74 735 q 518 929 315 929 l 518 1007 q 528 1033 518 1022 q 553 1043 538 1043 l 743 1043 q 769 1033 758 1043 q 779 1007 779 1022 l 779 929 q 1103 832 982 929 q 1232 557 1224 735 q 1235 506 1235 515 q 1232 454 1235 496 q 1103 178 1219 272 q 779 85 988 85 l 779 -10 q 769 -35 779 -25 q 743 -44 758 -44 l 553 -44 m 519 721 q 379 673 425 721 q 333 522 333 625 l 333 461 q 385 334 339 375 q 519 293 432 293 l 519 721 m 776 293 q 912 334 865 293 q 964 461 958 375 q 965 508 965 471 q 964 553 965 544 q 910 680 957 639 q 776 721 864 721 l 776 293 z "},"Х":{"ha":967,"x_min":14,"x_max":953,"o":"m 43 0 q 23 9 32 0 q 14 29 14 18 q 18 46 14 38 l 321 496 l 42 926 q 38 943 38 935 q 47 963 38 954 q 67 972 56 972 l 279 972 q 329 942 310 972 l 486 700 l 649 942 q 697 972 668 972 l 900 972 q 920 963 911 972 q 929 943 929 954 q 925 926 929 935 l 643 499 l 949 46 q 953 29 953 38 q 944 9 953 18 q 924 0 935 0 l 704 0 q 656 28 674 0 l 478 286 l 304 28 q 256 0 286 0 l 43 0 z "},"Ч":{"ha":976,"x_min":63,"x_max":874,"o":"m 649 0 q 623 10 633 0 q 613 35 613 19 l 613 328 q 528 288 582 301 q 413 275 474 275 q 149 363 235 275 q 63 632 63 451 l 63 938 q 73 963 63 953 q 99 972 83 972 l 288 972 q 313 963 303 972 q 324 938 324 953 l 324 644 q 357 545 324 576 q 467 514 390 514 q 567 533 522 514 q 613 593 613 553 l 613 938 q 623 963 613 953 q 649 972 633 972 l 838 972 q 863 963 853 972 q 874 938 874 953 l 874 35 q 863 10 874 19 q 838 0 853 0 l 649 0 z "},"Ц":{"ha":1089,"x_min":94,"x_max":1044,"o":"m 819 -194 q 795 -185 806 -194 q 785 -160 785 -175 l 785 0 l 129 0 q 104 10 114 0 q 94 36 94 21 l 94 938 q 104 963 94 953 q 129 972 114 972 l 319 972 q 345 963 335 972 q 356 938 356 953 l 356 232 l 683 232 l 683 938 q 694 963 683 953 q 719 972 704 972 l 908 972 q 934 963 924 972 q 944 938 944 953 l 944 232 l 1010 232 q 1035 222 1025 232 q 1044 196 1044 211 l 1044 -160 q 1035 -185 1044 -175 q 1010 -194 1025 -194 l 819 -194 z "},"Ш":{"ha":1375,"x_min":94,"x_max":1281,"o":"m 129 0 q 105 10 115 0 q 94 35 94 21 l 94 938 q 104 963 94 953 q 129 972 114 972 l 319 972 q 345 963 335 972 q 356 938 356 953 l 356 232 l 558 232 l 558 938 q 569 963 558 953 q 593 972 579 972 l 783 972 q 808 963 799 972 q 818 938 818 953 l 818 232 l 1021 232 l 1021 938 q 1031 963 1021 953 q 1056 972 1042 972 l 1246 972 q 1271 963 1261 972 q 1281 938 1281 953 l 1281 35 q 1271 10 1281 21 q 1246 0 1261 0 l 129 0 z "},"Щ":{"ha":1425,"x_min":94,"x_max":1382,"o":"m 1156 -194 q 1131 -185 1142 -194 q 1121 -160 1121 -175 l 1121 0 l 129 0 q 105 10 115 0 q 94 35 94 21 l 94 938 q 104 963 94 953 q 129 972 114 972 l 319 972 q 345 963 335 972 q 356 938 356 953 l 356 232 l 558 232 l 558 938 q 569 963 558 953 q 593 972 579 972 l 783 972 q 808 963 799 972 q 818 938 818 953 l 818 232 l 1021 232 l 1021 938 q 1031 963 1021 953 q 1056 972 1042 972 l 1246 972 q 1271 963 1261 972 q 1281 938 1281 953 l 1281 232 l 1346 232 q 1372 222 1361 232 q 1382 196 1382 211 l 1382 -160 q 1372 -185 1382 -175 q 1346 -194 1361 -194 l 1156 -194 z "},"Џ":{"ha":1039,"x_min":94,"x_max":944,"o":"m 424 -194 q 399 -185 410 -194 q 389 -160 389 -175 l 389 0 l 129 0 q 105 10 115 0 q 94 35 94 21 l 94 938 q 104 963 94 953 q 129 972 114 972 l 319 972 q 345 963 335 972 q 356 938 356 953 l 356 232 l 683 232 l 683 938 q 694 963 683 953 q 719 972 704 972 l 908 972 q 934 963 924 972 q 944 938 944 953 l 944 35 q 934 10 944 19 q 908 0 924 0 l 650 0 l 650 -160 q 640 -185 650 -175 q 614 -194 629 -194 l 424 -194 z "},"Ь":{"ha":921,"x_min":94,"x_max":876,"o":"m 129 0 q 105 10 115 0 q 94 35 94 21 l 94 938 q 105 963 94 953 q 129 972 115 972 l 319 972 q 345 963 335 972 q 356 938 356 953 l 356 642 l 496 642 q 778 562 679 642 q 876 326 876 482 q 776 88 876 176 q 496 0 676 0 l 129 0 m 490 200 q 576 235 546 200 q 606 325 606 269 q 576 413 606 383 q 490 443 546 443 l 356 443 l 356 200 l 490 200 z "}}}
